<svg xmlns="http://www.w3.org/2000/svg" viewBox="0 0 500 500"><g id="freepik--Stadium--inject-39"><g id="freepik--stadium--inject-39"><g id="freepik--Puck--inject-39"><path d="M40.37,115.36a1.24,1.24,0,0,0-.73-1,3.92,3.92,0,0,0-3.56,0,1.26,1.26,0,0,0-.74,1V285.51a1.25,1.25,0,0,0,.74,1,3.92,3.92,0,0,0,3.56,0,1.23,1.23,0,0,0,.73-1Z" style="fill:#ebebeb"></path><path d="M36.08,114.33a1.26,1.26,0,0,0-.74,1,1.27,1.27,0,0,0,.74,1,4,4,0,0,0,3.56,0,1.26,1.26,0,0,0,.73-1,1.24,1.24,0,0,0-.73-1A3.92,3.92,0,0,0,36.08,114.33Z" style="fill:#f0f0f0"></path></g><g id="freepik--puck--inject-39"><path d="M119.52,67.75a1.25,1.25,0,0,0-.74-1,3.92,3.92,0,0,0-3.56,0,1.25,1.25,0,0,0-.74,1V237.9a1.26,1.26,0,0,0,.74,1,3.92,3.92,0,0,0,3.56,0,1.26,1.26,0,0,0,.74-1Z" style="fill:#ebebeb"></path><path d="M115.22,66.73a1.08,1.08,0,0,0,0,2,3.92,3.92,0,0,0,3.56,0,1.08,1.08,0,0,0,0-2A3.92,3.92,0,0,0,115.22,66.73Z" style="fill:#f0f0f0"></path></g><g id="freepik--puck--inject-39"><path d="M203.55,45.15a1.23,1.23,0,0,0-.73-1,3.92,3.92,0,0,0-3.56,0,1.25,1.25,0,0,0-.74,1V215.3a1.27,1.27,0,0,0,.74,1,3.92,3.92,0,0,0,3.56,0,1.26,1.26,0,0,0,.73-1Z" style="fill:#ebebeb"></path><path d="M199.26,44.13a1.25,1.25,0,0,0-.74,1,1.26,1.26,0,0,0,.74,1,3.92,3.92,0,0,0,3.56,0,1.08,1.08,0,0,0,0-2A3.92,3.92,0,0,0,199.26,44.13Z" style="fill:#f0f0f0"></path></g><g id="freepik--puck--inject-39"><path d="M457,115.36a1.26,1.26,0,0,1,.74-1,3.92,3.92,0,0,1,3.56,0,1.24,1.24,0,0,1,.73,1V285.51a1.23,1.23,0,0,1-.73,1,3.92,3.92,0,0,1-3.56,0,1.25,1.25,0,0,1-.74-1Z" style="fill:#ebebeb"></path><path d="M461.32,114.33a1.24,1.24,0,0,1,.73,1,1.26,1.26,0,0,1-.73,1,4,4,0,0,1-3.56,0,1.27,1.27,0,0,1-.74-1,1.26,1.26,0,0,1,.74-1A3.92,3.92,0,0,1,461.32,114.33Z" style="fill:#f0f0f0"></path></g><g id="freepik--puck--inject-39"><path d="M377.88,67.75a1.25,1.25,0,0,1,.74-1,3.92,3.92,0,0,1,3.56,0,1.23,1.23,0,0,1,.73,1V237.9a1.24,1.24,0,0,1-.73,1,3.92,3.92,0,0,1-3.56,0,1.26,1.26,0,0,1-.74-1Z" style="fill:#ebebeb"></path><path d="M382.18,66.73a1.08,1.08,0,0,1,0,2,3.92,3.92,0,0,1-3.56,0,1.08,1.08,0,0,1,0-2A3.92,3.92,0,0,1,382.18,66.73Z" style="fill:#f0f0f0"></path></g><g id="freepik--puck--inject-39"><path d="M293.84,45.15a1.25,1.25,0,0,1,.74-1,3.92,3.92,0,0,1,3.56,0,1.25,1.25,0,0,1,.74,1V215.3a1.27,1.27,0,0,1-.74,1,3.92,3.92,0,0,1-3.56,0,1.27,1.27,0,0,1-.74-1Z" style="fill:#ebebeb"></path><path d="M298.14,44.13a1.25,1.25,0,0,1,.74,1,1.26,1.26,0,0,1-.74,1,3.92,3.92,0,0,1-3.56,0,1.08,1.08,0,0,1,0-2A3.92,3.92,0,0,1,298.14,44.13Z" style="fill:#f0f0f0"></path></g><path d="M482.89,249.26c-12.09-17.8-31.07-34.49-56.94-48.82-97.17-53.81-254.73-53.81-351.9,0-25.87,14.33-44.85,31-56.94,48.82v68.32H482.89Z" style="fill:#f0f0f0"></path><path d="M482.89,251.26a2,2,0,0,1-1.65-.87C468.92,232.26,450,216,425,202.19c-96.48-53.43-253.48-53.43-350,0C50,216,31.08,232.26,18.76,250.39a2,2,0,1,1-3.31-2.25c12.68-18.66,32.07-35.29,57.63-49.45,97.56-54,256.29-54,353.84,0,25.56,14.16,44.95,30.8,57.63,49.45a2,2,0,0,1-.53,2.78A2,2,0,0,1,482.89,251.26Z" style="fill:#ebebeb"></path><path d="M482.89,148a.5.5,0,0,1-.41-.22c-12.46-18.33-31.56-34.7-56.77-48.67-96.89-53.65-254.53-53.65-351.42,0-25.22,14-44.32,30.34-56.77,48.67a.5.5,0,0,1-.83-.57c12.55-18.45,31.76-34.93,57.12-49,97.15-53.8,255.23-53.8,352.38,0,25.36,14,44.57,30.52,57.12,49a.5.5,0,0,1-.14.69A.47.47,0,0,1,482.89,148Z" style="fill:#e0e0e0"></path></g></g><g id="freepik--Floor--inject-39"><g id="freepik--floor--inject-39"><path id="freepik--floor--inject-39" d="M77.66,245.56c-95.18,55-95.17,144.05,0,199s249.49,54.95,344.67,0,95.17-144,0-199S172.84,190.61,77.66,245.56Z" style="fill:#e0e0e0"></path><path d="M388.05,308.31h0L211.12,206.15c-1.88.18-3.75.36-5.63.56l179.27,103.5L216.45,407.38,22.06,295.15c-.61.93-1.19,1.86-1.76,2.79L213.15,409.29h0L280.24,448l23.39,13.5h0l.82.48,174.9-101ZM358.89,329l40.71,23.5-110,63.5-40.71-23.5ZM304.45,458.19l-84.71-48.9,25.87-14.94,84.71,48.91Zm29.16-16.83-40.71-23.5,110-63.51,40.7,23.51ZM362.19,327l25.86-14.93,66.05,38.14L472.76,361,446.9,376Z" style="fill:#fff"></path></g></g><g id="freepik--Shadow--inject-39"><path id="freepik--shadow--inject-39" d="M86.69,324.35c11.53-7.25,25.7-11,38.77-13,27.49-4.18,58.38-1.19,82.79,12.9a61.63,61.63,0,0,1,16.62,13.47c3.75,4.48,8,11.37,6.61,17.53-.76,3.45-3.87,5.88-7.06,7.4-10.28,4.94-22.42,3.36-33.57.91s-22.55-5.67-33.79-3.69c-21.06,3.72-35.35,24.43-55.82,30.62-11.28,3.41-24.7,2.88-32.55-7-4.82-6.07-6.7-14.15-6-21.86s3.71-15.08,7.87-21.62A50.85,50.85,0,0,1,86.69,324.35Z" style="fill:#263238;opacity:0.2"></path></g><g id="freepik--Clouds--inject-39"><path id="freepik--Cloud--inject-39" d="M29.35,57.15c-2.52-.38-4.2-1.2-4.53-2.53a3.41,3.41,0,0,1,2.09-3.57,11.14,11.14,0,0,1,5.43-.66c-.24-2.32,1.89-5,4-6.22s5.92-1.43,8.07.34c.62-4.14,3.29-6.17,7.46-7.63a10.91,10.91,0,0,1,10.7,2.06c2.42-4.53,9.63-7.24,17-4.27a12.86,12.86,0,0,1,6.68,6.24A14.58,14.58,0,0,1,87.41,46a6.49,6.49,0,0,1,6.86-.34,5.34,5.34,0,0,1,2.5,4.8,13.62,13.62,0,0,1,4.45,1c1.6.67,3.27,2.18,2.69,3.76-.44,1.2-1.94,1.68-3.25,1.86a19.78,19.78,0,0,1-7.81-.49,14,14,0,0,1-16-.38,27.57,27.57,0,0,1-3.3,2.13,13,13,0,0,1-3.83,1c-2.24.24-5.39-.18-7.14-1.65a1,1,0,0,0-1.54-.21,10.34,10.34,0,0,1-10.91-.78,10.38,10.38,0,0,1-14.45-.58A11.62,11.62,0,0,1,29.35,57.15Z" style="fill:#f5f5f5"></path><path id="freepik--cloud--inject-39" d="M168.52,42c1.83-.27,3.06-.86,3.3-1.83a2.48,2.48,0,0,0-1.52-2.6,8,8,0,0,0-4-.48c.17-1.69-1.38-3.68-2.91-4.52s-4.3-1-5.86.24c-.46-3-2.39-4.49-5.43-5.55a8,8,0,0,0-7.79,1.5c-1.76-3.29-7-5.26-12.39-3.11a9.35,9.35,0,0,0-4.86,4.55,10.57,10.57,0,0,0-.82,3.71,4.71,4.71,0,0,0-5-.24,3.84,3.84,0,0,0-1.82,3.48,10,10,0,0,0-3.23.75c-1.17.49-2.39,1.59-2,2.74.32.87,1.4,1.22,2.36,1.35a14.32,14.32,0,0,0,5.68-.35,10.19,10.19,0,0,0,11.61-.28,19,19,0,0,0,2.4,1.55,9.29,9.29,0,0,0,2.79.74,7.52,7.52,0,0,0,5.19-1.2,1.09,1.09,0,0,1,.6-.33,1,1,0,0,1,.52.18,7.54,7.54,0,0,0,7.94-.57,7.61,7.61,0,0,0,5.35,1.92,7.53,7.53,0,0,0,5.16-2.34A8.27,8.27,0,0,0,168.52,42Z" style="fill:#f5f5f5"></path></g><g id="freepik--Sun--inject-39"><circle id="freepik--sun--inject-39" cx="432.1" cy="49.45" r="16.31" transform="translate(91.59 320.02) rotate(-45)" style="fill:#ffbda7"></circle></g><g id="freepik--Wicket--inject-39"><g id="freepik--wicket--inject-39"><path d="M357.65,273.88a1.76,1.76,0,0,0-1-1.45,5.57,5.57,0,0,0-5,0,1.78,1.78,0,0,0-1,1.45V406.36a1.78,1.78,0,0,0,1,1.46,5.57,5.57,0,0,0,5,0,1.76,1.76,0,0,0,1-1.46Z" style="fill:#263238"></path><path d="M357.66,403.33v3a1.76,1.76,0,0,1-1,1.45,5.51,5.51,0,0,1-5,0,1.76,1.76,0,0,1-1-1.45v-3a1.76,1.76,0,0,0,1,1.45,5.57,5.57,0,0,0,5,0A1.76,1.76,0,0,0,357.66,403.33Z" style="fill:#BA68C8"></path><path d="M357.66,285v3a1.76,1.76,0,0,1-1,1.45,5.51,5.51,0,0,1-5,0,1.76,1.76,0,0,1-1-1.45v-3a1.76,1.76,0,0,0,1,1.45,5.57,5.57,0,0,0,5,0A1.76,1.76,0,0,0,357.66,285Z" style="fill:#BA68C8"></path><path d="M357.66,292.88v3a1.76,1.76,0,0,1-1,1.45,5.51,5.51,0,0,1-5,0,1.76,1.76,0,0,1-1-1.45v-3a1.76,1.76,0,0,0,1,1.45,5.57,5.57,0,0,0,5,0A1.76,1.76,0,0,0,357.66,292.88Z" style="fill:#BA68C8"></path><path d="M357.66,300.73v3a1.76,1.76,0,0,1-1,1.45,5.51,5.51,0,0,1-5,0,1.76,1.76,0,0,1-1-1.45v-3a1.76,1.76,0,0,0,1,1.45,5.57,5.57,0,0,0,5,0A1.76,1.76,0,0,0,357.66,300.73Z" style="fill:#BA68C8"></path><path d="M351.58,272.43a1.53,1.53,0,0,0,0,2.9,5.51,5.51,0,0,0,5,0,1.53,1.53,0,0,0,0-2.9A5.57,5.57,0,0,0,351.58,272.43Z" style="fill:#455a64"></path><path d="M371.81,265.71a1.78,1.78,0,0,0-1-1.45,5.57,5.57,0,0,0-5,0,1.78,1.78,0,0,0-1,1.45V398.19a1.76,1.76,0,0,0,1,1.45,5.57,5.57,0,0,0,5,0,1.76,1.76,0,0,0,1-1.45Z" style="fill:#263238"></path><path d="M371.81,395.16v3a1.76,1.76,0,0,1-1,1.45,5.51,5.51,0,0,1-5,0,1.76,1.76,0,0,1-1-1.45v-3a1.76,1.76,0,0,0,1,1.45,5.57,5.57,0,0,0,5,0A1.76,1.76,0,0,0,371.81,395.16Z" style="fill:#BA68C8"></path><path d="M371.81,276.85v3a1.76,1.76,0,0,1-1,1.45,5.51,5.51,0,0,1-5,0,1.76,1.76,0,0,1-1-1.45v-3a1.76,1.76,0,0,0,1,1.45,5.57,5.57,0,0,0,5,0A1.76,1.76,0,0,0,371.81,276.85Z" style="fill:#BA68C8"></path><path d="M371.81,284.7v3a1.76,1.76,0,0,1-1,1.45,5.51,5.51,0,0,1-5,0,1.76,1.76,0,0,1-1-1.45v-3a1.76,1.76,0,0,0,1,1.45,5.57,5.57,0,0,0,5,0A1.76,1.76,0,0,0,371.81,284.7Z" style="fill:#BA68C8"></path><path d="M371.81,292.56v3a1.76,1.76,0,0,1-1,1.45,5.51,5.51,0,0,1-5,0,1.76,1.76,0,0,1-1-1.45v-3a1.76,1.76,0,0,0,1,1.45,5.57,5.57,0,0,0,5,0A1.76,1.76,0,0,0,371.81,292.56Z" style="fill:#BA68C8"></path><path d="M365.74,264.26a1.53,1.53,0,0,0,0,2.9,5.57,5.57,0,0,0,5,0,1.53,1.53,0,0,0,0-2.9A5.57,5.57,0,0,0,365.74,264.26Z" style="fill:#455a64"></path><path d="M386,257.54a1.74,1.74,0,0,0-1-1.45,5.55,5.55,0,0,0-5,0,1.76,1.76,0,0,0-1,1.45V390a1.76,1.76,0,0,0,1,1.45,5.55,5.55,0,0,0,5,0,1.74,1.74,0,0,0,1-1.45Z" style="fill:#263238"></path><path d="M386,387v3a1.76,1.76,0,0,1-1,1.45,5.51,5.51,0,0,1-5,0,1.76,1.76,0,0,1-1-1.45v-3a1.76,1.76,0,0,0,1,1.45,5.57,5.57,0,0,0,5,0A1.76,1.76,0,0,0,386,387Z" style="fill:#BA68C8"></path><path d="M386,268.68v3a1.76,1.76,0,0,1-1,1.45,5.51,5.51,0,0,1-5,0,1.76,1.76,0,0,1-1-1.45v-3a1.76,1.76,0,0,0,1,1.45,5.57,5.57,0,0,0,5,0A1.76,1.76,0,0,0,386,268.68Z" style="fill:#BA68C8"></path><path d="M386,276.53v3a1.76,1.76,0,0,1-1,1.45,5.51,5.51,0,0,1-5,0,1.76,1.76,0,0,1-1-1.45v-3a1.76,1.76,0,0,0,1,1.45,5.57,5.57,0,0,0,5,0A1.76,1.76,0,0,0,386,276.53Z" style="fill:#BA68C8"></path><path d="M386,284.38v3a1.76,1.76,0,0,1-1,1.45,5.51,5.51,0,0,1-5,0,1.76,1.76,0,0,1-1-1.45v-3a1.76,1.76,0,0,0,1,1.45,5.57,5.57,0,0,0,5,0A1.76,1.76,0,0,0,386,284.38Z" style="fill:#BA68C8"></path><path d="M379.9,256.09a1.53,1.53,0,0,0,0,2.9,5.55,5.55,0,0,0,5,0,1.53,1.53,0,0,0,0-2.9A5.55,5.55,0,0,0,379.9,256.09Z" style="fill:#455a64"></path><path d="M369.23,266.18a.62.62,0,0,1-.61-.06,1.92,1.92,0,0,1-.87-1.5.59.59,0,0,1,.26-.55l13.58-7.85a.6.6,0,0,1,.61.06,1.88,1.88,0,0,1,.86,1.49.61.61,0,0,1-.25.56Z" style="fill:#263238"></path><path d="M367.75,264.62a.59.59,0,0,1,.26-.55.6.6,0,0,1,.61.06,1.91,1.91,0,0,1,.86,1.49.52.52,0,0,1-.86.5A1.92,1.92,0,0,1,367.75,264.62Z" style="fill:#37474f"></path><path d="M376.26,259.3l1.48-.86a1.75,1.75,0,0,1,.9.76,1.79,1.79,0,0,1,.26,1.39l-1.3.75a1.8,1.8,0,0,0,2.26.34c1.16-.69,1-2.23.3-3.34s-1.82-1.78-3-1.12A2.05,2.05,0,0,0,376.26,259.3Z" style="fill:#455a64"></path><path d="M374.89,260.09l1.47-.86a1.71,1.71,0,0,1,.9.76,1.79,1.79,0,0,1,.26,1.39l-1.29.75a1.79,1.79,0,0,0,2.26.34c1.16-.69,1-2.22.3-3.34s-1.83-1.78-3-1.12A2,2,0,0,0,374.89,260.09Z" style="fill:#455a64"></path><path d="M378.49,262.47c2-1.49-.39-5.62-2.7-4.46a1.81,1.81,0,0,1,1.79-.14c1.57.72,2.72,3.56.91,4.6Z" style="fill:#37474f"></path><path d="M373.51,260.88,375,260a1.69,1.69,0,0,1,.9.75,1.79,1.79,0,0,1,.26,1.39l-1.3.75a1.79,1.79,0,0,0,2.26.34c1.16-.69,1-2.22.3-3.33s-1.83-1.79-3-1.13A2.05,2.05,0,0,0,373.51,260.88Z" style="fill:#455a64"></path><path d="M377.11,263.26c2-1.49-.39-5.62-2.69-4.46a1.8,1.8,0,0,1,1.78-.14c1.58.72,2.73,3.57.91,4.6Z" style="fill:#37474f"></path><path d="M372.14,261.67l1.47-.85a1.71,1.71,0,0,1,.9.76,1.77,1.77,0,0,1,.26,1.38l-1.29.75a1.79,1.79,0,0,0,2.26.35c1.16-.69,1-2.23.3-3.34s-1.83-1.79-3-1.13A2,2,0,0,0,372.14,261.67Z" style="fill:#455a64"></path><path d="M375.74,264.06c2-1.5-.4-5.63-2.7-4.47a1.84,1.84,0,0,1,1.79-.13c1.57.71,2.72,3.56.91,4.6Z" style="fill:#37474f"></path><path d="M370.76,262.47l1.48-.86a1.75,1.75,0,0,1,.9.76,1.84,1.84,0,0,1,.26,1.39l-1.3.75a1.79,1.79,0,0,0,2.26.34c1.16-.69,1-2.23.3-3.34s-1.83-1.78-3-1.12A2.06,2.06,0,0,0,370.76,262.47Z" style="fill:#455a64"></path><path d="M374.36,264.85c2-1.49-.39-5.62-2.7-4.46a1.82,1.82,0,0,1,1.79-.14c1.58.72,2.73,3.56.91,4.6Z" style="fill:#37474f"></path><path d="M355,274.35a.63.63,0,0,1-.61-.06,1.94,1.94,0,0,1-.86-1.5.61.61,0,0,1,.25-.55l13.59-7.85a.6.6,0,0,1,.61.06,1.91,1.91,0,0,1,.86,1.49.63.63,0,0,1-.25.56Z" style="fill:#263238"></path><path d="M353.52,272.79a.61.61,0,0,1,.25-.55.6.6,0,0,1,.61.06,1.88,1.88,0,0,1,.86,1.49.61.61,0,0,1-.25.56.63.63,0,0,1-.61-.06A1.94,1.94,0,0,1,353.52,272.79Z" style="fill:#37474f"></path><path d="M362,267.47l1.48-.86a1.75,1.75,0,0,1,.9.76,1.84,1.84,0,0,1,.26,1.39l-1.3.75a1.79,1.79,0,0,0,2.26.34c1.16-.69,1-2.23.3-3.34s-1.83-1.78-3-1.12A2.06,2.06,0,0,0,362,267.47Z" style="fill:#455a64"></path><path d="M360.65,268.26l1.48-.86a1.75,1.75,0,0,1,.9.76,1.79,1.79,0,0,1,.26,1.39l-1.3.75a1.8,1.8,0,0,0,2.26.34c1.16-.69,1-2.22.31-3.34s-1.83-1.78-3-1.12A2.05,2.05,0,0,0,360.65,268.26Z" style="fill:#455a64"></path><path d="M364.25,270.64c2-1.49-.39-5.62-2.69-4.46a1.8,1.8,0,0,1,1.78-.14c1.58.72,2.73,3.56.91,4.6Z" style="fill:#37474f"></path><path d="M359.28,269.05l1.48-.85a1.69,1.69,0,0,1,.9.75,1.84,1.84,0,0,1,.26,1.39l-1.3.75a1.79,1.79,0,0,0,2.26.34c1.16-.69,1-2.22.3-3.33s-1.83-1.79-3-1.13A2,2,0,0,0,359.28,269.05Z" style="fill:#455a64"></path><path d="M362.88,271.43c2-1.49-.39-5.62-2.7-4.46a1.81,1.81,0,0,1,1.79-.14c1.57.72,2.72,3.57.91,4.6Z" style="fill:#37474f"></path><path d="M357.9,269.84l1.48-.85a1.75,1.75,0,0,1,.9.76,1.77,1.77,0,0,1,.26,1.38l-1.3.75a1.79,1.79,0,0,0,2.26.35c1.16-.69,1-2.23.3-3.34s-1.82-1.79-3-1.13A2.06,2.06,0,0,0,357.9,269.84Z" style="fill:#455a64"></path><path d="M361.5,272.23c2-1.5-.39-5.63-2.69-4.47a1.82,1.82,0,0,1,1.78-.13c1.58.71,2.73,3.56.91,4.6Z" style="fill:#37474f"></path><path d="M356.53,270.64l1.47-.86a1.71,1.71,0,0,1,.9.76,1.79,1.79,0,0,1,.26,1.39l-1.29.75a1.79,1.79,0,0,0,2.26.34c1.16-.69,1-2.23.3-3.34s-1.83-1.78-3-1.12A2,2,0,0,0,356.53,270.64Z" style="fill:#455a64"></path><path d="M360.13,273c2-1.49-.39-5.62-2.7-4.46a1.81,1.81,0,0,1,1.79-.14c1.57.72,2.72,3.56.91,4.6Z" style="fill:#37474f"></path></g></g><g id="freepik--Character--inject-39"><g id="freepik--character--inject-39"><g id="freepik--Bottom--inject-39"><path d="M178.86,340.94l.22,2.51c-.09.56,2,.93,2.11.37l1.05-2.3Z" style="fill:#263238"></path><path d="M185.25,342.54l-.54,2.47c-.25.5,1.65,1.48,1.91,1l1.68-1.88Z" style="fill:#263238"></path><path d="M190.38,345.71l-.86,2.38c-.32.46,1.43,1.68,1.76,1.21l1.92-1.64Z" style="fill:#263238"></path><path d="M195.09,349.68l-.47,2.49c-.25.51,1.68,1.43,1.92.92l1.64-1.93Z" style="fill:#263238"></path><path d="M200.27,352.35l0,2.52c-.14.55,1.93,1.07,2.07.52l1.21-2.22Z" style="fill:#263238"></path><path d="M205.79,353.91l.63,2.44c0,.57,2.14.58,2.14,0l.66-2.43Z" style="fill:#263238"></path><path d="M211.49,353.65l.67,2.44c0,.56,2.14.54,2.13,0l.62-2.45Z" style="fill:#263238"></path><path d="M216.42,351.9l.86,2.38c.05.56,2.18.38,2.13-.19l.43-2.49Z" style="fill:#263238"></path><path d="M220.43,347.62c.27,0,.66,3.07-.8,4.33-1.68,1.45-6.55,4-13.12,3.27a23.07,23.07,0,0,1-12.83-5.2c-2.64-2.14-5.79-4.63-9.32-5.78-2.68-.87-5.76-1.77-6.65-2.6s-.79-4.57-.79-4.57Z" style="fill:#263238"></path><path d="M186.35,324.53l-.19.1c-.8.4-.92,1.91-.88,2.71s.21,2-1,1.18a9.85,9.85,0,0,1-1.93-2.28c-.36-.43-1.39-.69-1.88-1a11,11,0,0,1-1.93-1.12c-.46-.45.2-.89.18-1.49a1.07,1.07,0,0,0-1,.89c-.2,1-.63,5.31-1.05,7-.77,3.09-.41,6.28.42,7.79,1.72,2.07,4.88,3.2,7.76,4.25a36.36,36.36,0,0,1,9.35,5.71c3.1,2.47,9.61,5,13.89,4.95,5.06-.09,10.75-1.76,12-4.09a4.9,4.9,0,0,0-.46-5.62,10.86,10.86,0,0,0-2.81-2l-8.39-4.73c-1.14-.64-2.29-1.29-3.36-2-1.62-1.12-3-2.51-4.53-3.75a12.42,12.42,0,0,1-3.65-4,23.36,23.36,0,0,1-.95-2.82,1,1,0,0,0-.31-.55,1,1,0,0,0-.45-.17A13.93,13.93,0,0,0,186.35,324.53Z" style="fill:#263238"></path><path d="M194.16,348.31a49.48,49.48,0,0,0-4.12-3h0s8.87,5.2,12.42,2.76c2.29-1.57,1.18-3.44,1.12-4,4.63-3.75,7.22-4.18,10.86-3.84,7.53,3.36,7.25,6.08,5.65,9-1.29,2.33-5.41,4.17-12,4.24C203.86,353.45,197.26,350.78,194.16,348.31Z" style="fill:#455a64"></path><path d="M203,342.31c4.68,1.79,2.68,3.17,1.39,2.87-3.79-.9-9.3-3.71-14.11-7.4-5-3.85-8.88-8.61-10.74-10a12.36,12.36,0,0,1-2.14-1.81c.12-1,.18-2,.26-2.45a1.05,1.05,0,0,1,1.13-.84c0,.6.06,1.3.06,1.3a4.65,4.65,0,0,0,1.73,1.32,5.58,5.58,0,0,1,1.78,1c.66.81,1.12,1.39,2,2.38C187.63,332.15,198.27,340.51,203,342.31Z" style="fill:#455a64"></path><path d="M205.31,343.23a.49.49,0,0,0,.3-.14,10.38,10.38,0,0,1,7.94-2.47.45.45,0,0,0,.53-.37.44.44,0,0,0-.37-.52,11.24,11.24,0,0,0-8.77,2.73.46.46,0,0,0,.37.77Z" style="fill:#ebebeb"></path><path d="M201.24,341.34a.51.51,0,0,0,.3-.17,10.39,10.39,0,0,1,7.72-3.07.46.46,0,0,0,.09-.91,11.29,11.29,0,0,0-8.53,3.41.45.45,0,0,0,.07.64A.5.5,0,0,0,201.24,341.34Z" style="fill:#ebebeb"></path><path d="M197.6,338.81a.44.44,0,0,0,.3-.17,10.4,10.4,0,0,1,7.71-3.07.46.46,0,0,0,.51-.41.44.44,0,0,0-.41-.49,11.22,11.22,0,0,0-8.53,3.41.45.45,0,0,0,.42.73Z" style="fill:#ebebeb"></path><path d="M193.54,336a.43.43,0,0,0,.29-.16c1.12-1.37,5.35-3.23,8.46-2.93a.46.46,0,1,0,.09-.91c-3.55-.34-8,1.71-9.27,3.27a.45.45,0,0,0,.07.64A.48.48,0,0,0,193.54,336Z" style="fill:#ebebeb"></path><path d="M189.91,332.62a.42.42,0,0,0,.3-.17c1.55-2,6.15-3,9.32-2.67a.46.46,0,0,0,.09-.91c-3.47-.34-8.38.8-10.14,3a.46.46,0,0,0,.43.73Z" style="fill:#ebebeb"></path><path d="M98.05,371.28c-1.52,4.62-3.11,7.53-5.59,9.82s-6,2.26-9.21.55-6.91-5-6.82-9.34,1-7,2.92-11.2Z" style="fill:#263238"></path><path d="M81.45,379.11,81,381.6c-.25.5,1.76,1.47,2,1l1.69-1.9Z" style="fill:#263238"></path><path d="M77.7,375.43l-1.06,2.29c-.37.44,1.36,1.83,1.73,1.39l2.11-1.44Z" style="fill:#263238"></path><path d="M90.05,381.76l-.84,2.38c0,.57-2.25.37-2.21-.2l-.5-2.5Z" style="fill:#263238"></path><path d="M93.16,333.57c-1.42-.27-3.48,5.93-5.93,12-2.63,6.54-5.13,8.85-7.35,14.2-2.54,6.11-2.93,9-1.58,13.5s8.7,10.46,14.24,6.07c4.52-3.59,6-8.52,7.31-14.93a137.08,137.08,0,0,1,4.68-15.89c1.51-4.67,3.7-9.05,2.63-9.9-.27.67-2.7,5.43-3.32,4.91-.25-.21.25-1.19.45-1.79a2.08,2.08,0,0,0,0-1.64,2.78,2.78,0,0,0-1.37-1.06c-1.3-.62-3.39-1.55-4.75-2-.67-.25-1.74-.54-2.43-.72a6.3,6.3,0,0,0-1.83-.23,1.3,1.3,0,0,0-.92.44,2.16,2.16,0,0,0-.26.71,5.05,5.05,0,0,1-.51,1.25c-.1.18-.3.37-.49.27s-.07-.44,0-.59C92.1,337.13,92.27,336.61,93.16,333.57Z" style="fill:#263238"></path><path d="M80.66,358.08c-.37.88-2.77,6.72-1.31,8.28s3.86-2.79,3.86-2.79,4.77-.1,10.53,4.3c-.59.89-.44,4.4,1.51,4.19s4.45-7,4.48-7.06c-1.32,6.15-2.8,10.9-7.19,14.38-5.54,4.39-12.89-1.6-14.24-6.07s-1-7.39,1.58-13.5C80.13,359.19,80.39,358.63,80.66,358.08Z" style="fill:#455a64"></path><path d="M83.61,364.11c-.63,2.29-2.82.87-2.08-2.4s4.26-10.52,5.7-16.1c2.45-6.11,4.56-12.45,6-12.19-.23.93-1.34,4.54-1.53,5.05-1.75,4.51-4,13.45-5.53,17.61A72.42,72.42,0,0,0,83.61,364.11Z" style="fill:#455a64"></path><path d="M93,367.59a72.23,72.23,0,0,0,3.43-7.69c1.59-4.11,5.89-12.34,8-16.71.54-.69,2.65-4.49,2.67-4.53.77.63.53,1.92-1,5.78-.77,1.88-1.94,4.38-3.1,7-2.62,5.14-5.24,12.8-6.85,15.74S92,369.73,93,367.59Z" style="fill:#455a64"></path><path d="M93.91,368.11a.51.51,0,0,0,.49-.14.49.49,0,0,0,0-.72,18.78,18.78,0,0,0-11.16-4.19.51.51,0,0,0-.52.5.53.53,0,0,0,.54.51A17.91,17.91,0,0,1,93.65,368,.56.56,0,0,0,93.91,368.11Z" style="fill:#ebebeb"></path><path d="M96.1,363.86a.55.55,0,0,0,.5-.16.5.5,0,0,0-.08-.72,23,23,0,0,0-12.34-4.63.51.51,0,0,0-.54.48.55.55,0,0,0,.53.53,22.34,22.34,0,0,1,11.68,4.38A.58.58,0,0,0,96.1,363.86Z" style="fill:#ebebeb"></path><path d="M97.55,359.37a.55.55,0,0,0,.49-.15.49.49,0,0,0-.05-.71c-.22-.2-5.6-4.85-12.35-4.52a.5.5,0,0,0-.48.53.53.53,0,0,0,.57.48c6.28-.3,11.51,4.2,11.56,4.24A.58.58,0,0,0,97.55,359.37Z" style="fill:#ebebeb"></path><path d="M100.11,355.25a.53.53,0,0,0,.49-.14.5.5,0,0,0,0-.72c-.26-.22-6.31-5.41-13.74-4.93a.5.5,0,0,0-.48.54.55.55,0,0,0,.59.47c7-.45,12.87,4.61,12.93,4.66A.48.48,0,0,0,100.11,355.25Z" style="fill:#ebebeb"></path><path d="M101.61,351a.53.53,0,0,0,.49-.15.5.5,0,0,0-.06-.72c-.28-.23-6.8-5.64-13.8-5.09a.49.49,0,0,0-.46.55.54.54,0,0,0,.59.46c6.53-.51,12.92,4.78,13,4.83A.56.56,0,0,0,101.61,351Z" style="fill:#ebebeb"></path><path d="M126.61,192.52c-7.8,9.26-6.27,22.1-9.24,41.3-3.31,21.36-6.46,35.22-8.57,41.42S103,286.1,98,306.68c-4.25,17.33-7.82,31.44-7.82,31.44A17.15,17.15,0,0,0,97,342.87a22.21,22.21,0,0,0,9.34.86s10.74-16.38,17.47-29.56,15.77-30.24,19.84-40.05c5.57-13.45,16-40.84,16-40.84l17.73,31.91s-2.11,8.83-1.35,22.6,1.29,38.6,1.29,38.6,1.65,1.88,8,2.77c7.55,1.06,11.07-2.85,11.07-2.85s8.36-44.46,10.59-58.22-.57-19.4-7.09-38.25a297,297,0,0,0-16.44-37.32Z" style="fill:#BA68C8"></path><path d="M126.61,192.52c-3.44,4.08-5.06,8.85-6.06,14.56.77,2.24,2.35,4.34,3.59,7.54,0,0,2-11,3.47-15.41a31.08,31.08,0,0,1,3.39-6.69Z" style="fill:#263238"></path><path d="M123.43,221c11.25.5,13.31-13.21,17.37-28.5h-9.43a74.93,74.93,0,0,0-5.29,11.79C124.43,209.65,123.43,221,123.43,221Z" style="fill:#263238;opacity:0.2"></path><path d="M184.06,273.69c-.48,2.55-1,5.43-1.41,8.8-1,8.68-.32,37.24-.07,46.15-.42-.09-.82-.2-1.19-.29-.24-9.29-.89-37.35.1-46,.39-3.41.94-6.32,1.42-8.89,1-5.24,1.71-9,.19-12.69-1.82-4.39-11.56-23.6-15.7-31.74-.61-1.19-1.09-2.15-1.42-2.78l1.14-.33c.34.64.8,1.56,1.36,2.66,4.2,8.22,13.85,27.26,15.71,31.73C185.84,264.31,185.09,268.25,184.06,273.69Z" style="fill:#455a64"></path><path d="M159.68,233.28l2-6.1s11.92-1.7,19.87-8.74c-6,8.87-17.59,11.73-17.59,11.73l-1.31,3.65,14.71,31.37Z" style="fill:#263238;opacity:0.2"></path><path d="M130.64,192.52c-5.4,8.35-6.45,17-8.22,31.76-.37,3.08-.77,6.43-1.25,10.1-2.88,22-4,30.28-12.67,46.78-3.08,5.83-5.8,11.47-8.31,17.21-.7,2.44-1.43,5.19-2.19,8.31l0,.07a245.79,245.79,0,0,1,11.56-25c8.81-16.69,9.89-25,12.8-47.18.48-3.67.88-7,1.25-10.11,1.79-15,2.83-23.57,8.46-31.9Z" style="fill:#455a64"></path><path d="M124,221.62h-.61l0-1.18.55,0c9.07,0,11.66-10.2,14.93-23,.42-1.65.8-3.18,1.25-4.88h1.22c-.45,1.7-.92,3.52-1.34,5.17C136.82,210.51,134,221.62,124,221.62Z" style="fill:#455a64"></path><path d="M209.78,275c-4.05,25.52-8.5,56.65-8.5,56.65-.27-.23-.54-.42-.83-.66a3.32,3.32,0,0,0-.27-.25h0c-.61-.54-1.43-1.25-2.13-2-1.06-.69-2-.44-3.24.29a13.19,13.19,0,0,0-1.28.87c-.22.16-.43.33-.65.51l-.65.56c-.43.37-.87.77-1.3,1.16l-1,.87c-.53.46-1.05.9-1.55,1.27a7.63,7.63,0,0,1-1.45.91,1.54,1.54,0,0,1-1.2.18c-.07,0-1-.49-1.21-.57-1.55-.72-.13-6.47-.37-15.46-.32-12.58-.64-19.83,0-31.66s3.59-14.25,4.22-24.19-3-17.09,5.55-22.45c6.73-4.21,13.27-5.15,16.12-3.26h0a4,4,0,0,1,2.05,1.43,3.13,3.13,0,0,1,.53,1.31C213.38,244.91,213.83,249.51,209.78,275Z" style="fill:#37474f"></path><path d="M198.33,328.75c-3.32-2.14-7.94,4.89-11.37,6.44s-1.36-4.55-1.64-15.29c-.32-12.59-.63-19.83,0-31.66s3.59-14.25,4.22-24.2-3-17.09,5.55-22.45,16.89-5.43,17.59-1.06,1.15,9-2.9,34.48-8.51,56.58-8.51,56.58A12.56,12.56,0,0,1,198.33,328.75Z" style="fill:#BA68C8"></path><path d="M198.33,328.75c-3.32-2.14-7.94,4.89-11.37,6.44s-1.36-4.55-1.64-15.29c-.32-12.59-.63-19.83,0-31.66s3.59-14.25,4.22-24.2-3-17.09,5.55-22.45,16.89-5.43,17.59-1.06,1.15,9-2.9,34.48-8.51,56.58-8.51,56.58A12.56,12.56,0,0,1,198.33,328.75Z" style="fill:#fff;opacity:0.6000000000000001"></path><path d="M212.86,259c-.93,3-13.53,8.07-23.43,6.43a2,2,0,0,0-.24,3.53c1.22.63,14.18,2,23-5C215.07,261.64,214.33,258.61,212.86,259Z" style="fill:#BA68C8"></path><path d="M212.86,259c-.93,3-13.53,8.07-23.43,6.43a2,2,0,0,0-.24,3.53c1.22.63,14.18,2,23-5C215.07,261.64,214.33,258.61,212.86,259Z" style="fill:#fff;opacity:0.4"></path><path d="M212.91,255c-.87,3-13.37,8.32-23.3,6.86a2,2,0,0,0-.17,3.54c1.23.61,14.21,1.7,22.94-5.46C215.17,257.63,214.38,254.61,212.91,255Z" style="fill:#BA68C8"></path><path d="M212.91,255c-.87,3-13.37,8.32-23.3,6.86a2,2,0,0,0-.17,3.54c1.23.61,14.21,1.7,22.94-5.46C215.17,257.63,214.38,254.61,212.91,255Z" style="fill:#fff;opacity:0.35000000000000003"></path><path d="M212.91,251.22c-.87,3-13.46,8.41-23.39,7a2,2,0,0,0,0,3.69c1.2.66,14.13,1.46,22.86-5.71C215.17,253.8,214.38,250.79,212.91,251.22Z" style="fill:#BA68C8"></path><path d="M212.91,251.22c-.87,3-13.46,8.41-23.39,7a2,2,0,0,0,0,3.69c1.2.66,14.13,1.46,22.86-5.71C215.17,253.8,214.38,250.79,212.91,251.22Z" style="fill:#fff;opacity:0.30000000000000004"></path><path d="M205.8,270.17q-1.78,12.16-3.37,24.35l0,0c-.26-.55-.52-1.1-.79-1.65s-.48-1-.73-1.46-.54-1.1-.87-1.6c-.05-.08-.13-.16-.22-.14a.16.16,0,0,0-.12.08,14.91,14.91,0,0,0-1.07,1.44c-.35.49-.7,1-1,1.47-.48.69-.93,1.38-1.38,2.08.17-3,.34-6,.49-9,.18-3.92.33-7.83.5-11.75,0-.16-.24-.33-.26-.1-1.15,13.86-2,27.75-2.88,41.63-.24,4-.55,7.93-.49,11.9,0,.2.36.52.41.19.52-3.54.68-7.12.9-10.69.12-2,.24-3.93.37-5.9a.37.37,0,0,1,0-.11l.48-.91c.29-.56.6-1.12.91-1.68s.64-1.12,1-1.67c.17-.29.34-.59.49-.89a2.6,2.6,0,0,0,.15-.28c.08.23.17.46.26.7.19.53.4,1.06.59,1.59s.4,1.1.61,1.64a8.86,8.86,0,0,0,.6,1.34c-.17,1.31-.33,2.61-.5,3.91-.53,4.23-1.13,8.46-1.37,12.71,0,.22.32.58.39.24.77-3.76,1.2-7.59,1.68-11.39q.7-5.46,1.39-10.93c.92-7.45,1.88-14.89,2.73-22.35.48-4.19.92-8.37,1.37-12.56C206.06,270.12,205.83,269.92,205.8,270.17Zm-5.31,39.36c0-.1-.08-.21-.13-.31-.21-.53-.43-1.05-.63-1.58s-.4-1.1-.6-1.65a8.15,8.15,0,0,0-.59-1.4.88.88,0,0,0-.12-.15c-.35-.26-1.41,1.81-1.57,2.11-.46.85-.88,1.72-1.39,2.54-.05.08-.08.15-.12.22,0-.9.11-1.81.16-2.72.07-1.12.14-2.25.2-3.37.18-.26.31-.58.43-.79l1.14-1.95c.37-.64.75-1.26,1.1-1.9l.54-1,.09-.16c.09.29.22.58.32.86L200,300c.41,1.14.86,2.26,1.3,3.39l0,0Zm1-7.49c-.26-.65-.51-1.31-.78-2s-.5-1.18-.74-1.77-.44-1.13-.72-1.66-.66.21-.79.41l-.51.79c-.37.55-.71,1.12-1.06,1.68l-1,1.69.3-5a.28.28,0,0,0,.12-.1c.61-1,1.24-2,1.89-3,.33-.5.65-1,1-1.47a11,11,0,0,0,.69-1l.08.17.36.71L201,293c.45.93.84,1.88,1.29,2.81Q201.85,298.91,201.45,302Z" style="fill:#BA68C8;opacity:0.5"></path><path d="M191.92,264.05a1.18,1.18,0,1,1-1.18-1.18A1.17,1.17,0,0,1,191.92,264.05Z" style="fill:#37474f"></path><path d="M190,263.15c-3.84,1.7-9.21,1.31-13.08.91l.2,2.32s8.53,2,13.11-1.28Z" style="fill:#37474f"></path><path d="M187.06,280.47a68,68,0,0,0-1,9,18.42,18.42,0,0,1-5.66.39c-3.51-.22-4.39-1.14-4.39-1.14s-.24-6.09-.07-8.74C180.46,281.44,187.06,280.47,187.06,280.47Z" style="fill:#37474f"></path><path d="M185.66,315.77s.1,4.77,0,7.21a16.85,16.85,0,0,1-8.47-1.06L177,315.2A25.36,25.36,0,0,0,185.66,315.77Z" style="fill:#37474f"></path><path d="M97.7,344.85c3,1.24,5.7,3.3,4.81,8.33s4.09-3.17,6.71-8.6,18.31-34.48,24.08-45.5,11-23,12.22-27.86S144.25,260.49,134,256.6s-18.41-5.33-24,11-9.37,20.9-13.42,36.19-7.69,27.06-9,32.34-2.33,15.35.08,9.64C89.44,341.55,94.67,343.62,97.7,344.85Z" style="fill:#37474f"></path><path d="M97,346.41c3,1.24,5.69,3.3,4.8,8.33s4.09-3.18,6.72-8.61,18.3-34.48,24.07-45.49,11-23,12.22-27.87-1.27-10.73-11.55-14.61-18.41-5.34-24,11-9.37,20.9-13.42,36.19-7.68,27.06-9,32.35-2.33,15.68.08,10C88.72,343.43,93.94,345.17,97,346.41Z" style="fill:#BA68C8"></path><path d="M97,346.41c3,1.24,5.69,3.3,4.8,8.33s4.09-3.18,6.72-8.61,18.3-34.48,24.07-45.49,11-23,12.22-27.87-1.27-10.73-11.55-14.61-18.41-5.34-24,11-9.37,20.9-13.42,36.19-7.68,27.06-9,32.35-2.33,15.68.08,10C88.72,343.43,93.94,345.17,97,346.41Z" style="fill:#fff;opacity:0.6000000000000001"></path><path d="M106,277.9c1,3.67,7.76,8.14,15,11.09s14.59,3.58,17.13,1.82c.6,2.55-.07,3.68-2.18,4.86s-9.29.93-17.29-2.24-13.18-7.59-14.33-10.87S105.39,276.9,106,277.9Z" style="fill:#BA68C8"></path><path d="M106,277.9c1,3.67,7.76,8.14,15,11.09s14.59,3.58,17.13,1.82c.6,2.55-.07,3.68-2.18,4.86s-9.29.93-17.29-2.24-13.18-7.59-14.33-10.87S105.39,276.9,106,277.9Z" style="fill:#fff;opacity:0.4"></path><path d="M107.67,273.6c1,3.67,7.76,8.14,15,11.09s14.58,3.57,17.13,1.82c.6,2.54-.07,3.67-2.19,4.86s-9.29.93-17.29-2.25-13.17-7.59-14.32-10.87S107.06,272.6,107.67,273.6Z" style="fill:#BA68C8"></path><path d="M107.67,273.6c1,3.67,7.76,8.14,15,11.09s14.58,3.57,17.13,1.82c.6,2.54-.07,3.67-2.19,4.86s-9.29.93-17.29-2.25-13.17-7.59-14.32-10.87S107.06,272.6,107.67,273.6Z" style="fill:#fff;opacity:0.35000000000000003"></path><path d="M109.28,269.15c.52,4.25,7.51,8.78,14.77,11.74s14.84,2.93,17.38,1.17c.6,2.55-.07,3.68-2.18,4.86s-9.29.93-17.29-2.24-13.18-7.6-14.33-10.87S108.67,268.15,109.28,269.15Z" style="fill:#BA68C8"></path><path d="M109.28,269.15c.52,4.25,7.51,8.78,14.77,11.74s14.84,2.93,17.38,1.17c.6,2.55-.07,3.68-2.18,4.86s-9.29.93-17.29-2.24-13.18-7.6-14.33-10.87S108.67,268.15,109.28,269.15Z" style="fill:#fff;opacity:0.30000000000000004"></path><path d="M120.64,297.27c-1.66,3.08-2.94,6.39-4.32,9.6l-4,9.5a1.47,1.47,0,0,0-.1.22s0-.11,0-.16c-.12-.75-.27-1.5-.45-2.24a13.91,13.91,0,0,0-1.55-4.46.29.29,0,0,0-.14-.13c-.22-.07-.89.45-1.09.58l-.83.56c-.62.42-1.24.85-1.84,1.3s-1.14.87-1.69,1.32l-.39.32q1.68-4.94,3.34-9.88A113.69,113.69,0,0,0,111,292.58c0-.21-.31-.56-.44-.28-1.43,3.2-2.45,6.6-3.58,9.91L103.66,312q-3.33,9.74-6.72,19.45-.94,2.73-1.9,5.44a34.3,34.3,0,0,0-1.76,5.83c0,.15.27.56.41.32a26.11,26.11,0,0,0,1.92-4.63l1.77-5,2-5.82a4.8,4.8,0,0,0,.36-.32c.83-.78,1.63-1.58,2.46-2.36.41-.38.83-.76,1.27-1.13.16-.13,1.19-1.07,1.27-.76.11.5.28,1,.37,1.48a10.19,10.19,0,0,1,.36,1.69c.28,1.32.57,2.63.86,3.95-.75,1.72-1.49,3.46-2.25,5.18s-1.54,3.52-2.31,5.28a33.42,33.42,0,0,0-2.2,5.67c0,.16.23.59.39.36a26.16,26.16,0,0,0,2.27-4.48c.71-1.63,1.43-3.26,2.14-4.9q2.09-4.77,4.15-9.56c2.76-6.37,5.51-12.74,8.2-19.13a113.7,113.7,0,0,0,4.33-10.92C121.12,297.37,120.79,297,120.64,297.27Zm-16.3,17.44c.27-.23.53-.45.8-.66.56-.45,1.12-.89,1.69-1.32l1.79-1.37a5.38,5.38,0,0,1,1.13-.77l1.89,7.22c-.69,1.62-1.4,3.24-2.1,4.86-.06-.18-.12-.34-.15-.47-.17-.78-.33-1.55-.5-2.32s-.33-1.47-.49-2.21c-.13-.58-.41-2.28-.75-2.45s-.51.13-.74.27a13.2,13.2,0,0,0-1.36,1c-.63.49-1.25,1-1.87,1.52s-1,.82-1.43,1.24l1.38-4A6,6,0,0,0,104.34,314.71Zm2.57,14c-.19-.88-.38-1.77-.59-2.65-.15-.68-.3-1.37-.47-2.06s-.21-1.25-.4-1.86-.71-.42-1.23-.09a18,18,0,0,0-1.58,1.18c-.87.72-1.71,1.47-2.55,2.24.24-.67.47-1.34.7-2l.84-2.44a13.76,13.76,0,0,0,1.09-1.05l1.57-1.39c.56-.48,1.12-1,1.7-1.43a13.35,13.35,0,0,0,1.37-1.14s.14,1.12.21,1.53c.14.8.27,1.6.43,2.39s.31,1.47.47,2.2a10,10,0,0,0,.43,2C108.24,325.68,107.58,327.21,106.91,328.75Z" style="fill:#BA68C8;opacity:0.5"></path></g><g id="freepik--Top--inject-39"><path d="M206.47,190.35c1.13-8.14-.13-22.62-1.26-33.83s-3.11-20.82-5.67-24.85a16.3,16.3,0,0,0-13.34-7.12c-5.29.12,1.64,59.17,1.64,59.17Z" style="fill:#b16668"></path><path d="M187.47,180.42c.22,2.08.37,3.3.37,3.3l9.77,3.47,4.92-2.08C200.73,181.48,192.87,179,187.47,180.42Z" style="fill:#9a4a4d"></path><path d="M184.21,123.59c9.49.78,13.76,3.77,16.37,8.92s3.44,11.92,4.63,18.68,2,14.84,2,14.84-.6,3.91-9.26,4.74-11.28-.59-11.28-.59Z" style="fill:#37474f"></path><path d="M161.73,205.4c-15.57.5-29.32-4.94-36.64-10.86-2.07-1.67-2.59-5.13,0-9.42,3.07-5,5.54-21.62,9.24-33.24s6.5-19.8,13.91-23.16,29-8.49,39.94-4c6.91,2.86,9.53,7.31,11,16.71,1.58,10-1.3,19-4.67,26.06-3.81,7.95-8.35,19.36-7.93,22.19s2.05,5.58-.29,7.75C183.68,200,177.44,204.9,161.73,205.4Z" style="fill:#BA68C8"></path><path d="M161.73,205.4c-15.57.5-29.32-4.94-36.64-10.86-2.07-1.67-2.59-5.13,0-9.42,3.07-5,5.54-21.62,9.24-33.24s6.5-19.8,13.91-23.16,29-8.49,39.94-4c6.91,2.86,9.53,7.31,11,16.71,1.58,10-1.3,19-4.67,26.06-3.81,7.95-8.35,19.36-7.93,22.19s2.05,5.58-.29,7.75C183.68,200,177.44,204.9,161.73,205.4Z" style="fill:#fff;opacity:0.2"></path><path d="M197.79,135.08c-1.77-5.48-4.21-8.3-9.36-10.44-10.94-4.53-32.74.72-40.15,4.08a16.83,16.83,0,0,0-7.51,7c3.81,2.9,8,6.09,8.19,6.3.38.41,7.25-.59,7.25-.59,0-4.21,3.15-7.67,7.8-10a23.86,23.86,0,0,0,14.9,2.85c4.08-.65,7-3.37,7.61-5.87C191.88,129.28,195.88,131.4,197.79,135.08Z" style="fill:#263238"></path><path d="M160.75,195.61s8.17-1.53,27.71-13.39c5-3.05,18.54,3.58,18,8.13-.61,5.25-3.53,9.35-21.32,14.42-10.83,3.09-22.38,5.52-22.38,5.52Z" style="fill:#b16668"></path><path d="M147.45,129.68c-7.49,2.77-13,6.77-12.69,18.88s2.32,33.82,3.21,38.63,7.43,29.49,7.43,29.49l15.89.74-4.09-32.55-.72-37.56S155.86,135.2,147.45,129.68Z" style="fill:#b16668"></path><path d="M148.28,128.72c-7.48,1.62-12.54,5.81-13.78,15.64-1.06,8.38.53,30.52.53,30.52A30.2,30.2,0,0,0,147.54,176c7.42-.75,10-3,10-3s.09-15.4-.25-22.91C157.05,144.41,155.54,131.86,148.28,128.72Z" style="fill:#37474f"></path><path d="M156.6,212.18l9-2.12a10,10,0,0,0,1.67-8.18c-1.12-4.71-3.6-6-5.74-6.65l-7,1.49a21.37,21.37,0,0,0-1.15,8.38A12.75,12.75,0,0,0,156.6,212.18Z" style="fill:#263238"></path><g id="freepik--Bat--inject-39"><path d="M154,217.42l-17.43-10.06a6.79,6.79,0,0,0-.78-.37,8.3,8.3,0,0,0-.22,1.95l-4.62,2.66L54.4,167.43q-7.59-15.7,0-22.67A25.42,25.42,0,0,0,59,142.1l76.51,44.17c0,4.13,2.51,8.93,5.61,10.72l17.43,10.06v7.71Z" style="fill:#f0997a"></path><polygon points="59.01 164.77 54.4 167.43 130.9 211.6 135.52 208.94 59.01 164.77" style="fill:#263238;opacity:0.2"></polygon><path d="M158.56,214.76,141.13,204.7c-3.1-1.79-5.61.11-5.61,4.24h0L59,164.77Q51.42,149,59,142.1l76.51,44.17h0c0,4.13,2.51,8.93,5.61,10.72l17.43,10.06Z" style="fill:#ffbda7"></path><path d="M138,204.16c2.94-2.54,1.78-8.15,1.78-8.15s21.41,12.42,24.54,14.19,3.73,5.28,1.62,8.28-5,3.15-7.21,1.89l-23-13.38S136,204.61,138,204.16Z" style="fill:#fafafa"></path><path d="M147.43,200.43A11.65,11.65,0,0,1,146.2,206a8.29,8.29,0,0,1-4.78,4.31l-1.8-1a6.78,6.78,0,0,0,5.16-4.23,8,8,0,0,0,.62-5.77Z" style="fill:#37474f"></path></g><g id="freepik--Gloves--inject-39"><path d="M171.23,216.17a1.55,1.55,0,0,1,0,.48,3.82,3.82,0,0,1-3,3c-1.05.25-4.9.34-4.91-1.3,0-1.37.31-3.84,1.67-4.6.74-.42,1.59,0,2.31.23,1,.34,2,.7,2.94,1.13a1.85,1.85,0,0,1,.88.64A1,1,0,0,1,171.23,216.17Z" style="fill:#263238"></path><path d="M160.25,224.16a15.51,15.51,0,0,0,7.9-9.6,4.16,4.16,0,0,0,.11-2.8,1.85,1.85,0,0,0-2.13-.7,5.47,5.47,0,0,0-2,1.31l-3.54,3.18a17,17,0,0,0,.74-2.11,3.47,3.47,0,0,0-.23-3.06,2,2,0,0,0-2.73-.29,2,2,0,0,0-1.7-2.19,3.72,3.72,0,0,0-2.85,1,1.84,1.84,0,0,0-1.82-1.18,4.27,4.27,0,0,0-2.16.83,20.59,20.59,0,0,0-6.09,6.82,4.55,4.55,0,0,0-.7,1.65A2.75,2.75,0,0,0,145,219.7a7.58,7.58,0,0,0,2.13.26,2.06,2.06,0,0,0,1.29,1.71,5.34,5.34,0,0,0,2.22.34,3.43,3.43,0,0,0,4.1,2.09C156.05,225.9,158.62,225,160.25,224.16Z" style="fill:#37474f"></path><path d="M157.05,212.47a3.48,3.48,0,0,0,.54-.93c0-.06,0-.25-.11-.19a2.83,2.83,0,0,0-.72.85l-.72,1c-.47.69-.93,1.38-1.38,2.08s-.89,1.4-1.32,2.11a10,10,0,0,0-1.17,2.27c0,.06,0,.28.13.18a10.42,10.42,0,0,0,1.36-2.09c.44-.74.88-1.47,1.34-2.19s.9-1.39,1.36-2.08Zm3,4c-.16.19-.35.36-.51.55a8.93,8.93,0,0,0-.48.77q-.48.81-1,1.59c-.34.51-.68,1-1,1.51a7.47,7.47,0,0,0-1.06,1.61s0,.18.07.13a4.43,4.43,0,0,0,1.08-1.31c.37-.5.72-1,1.07-1.54s.67-1,1-1.52c.17-.25.32-.51.47-.77a6.49,6.49,0,0,0,.4-1S160.1,216.42,160.07,216.46Z" style="fill:#263238"></path><path d="M163.2,201c-8.35-8.42-10.85-10-15.83-8.6s-11.83,5.21-14,7.66.48,4.27,3.51,3.2,7.16-2.91,7.16-2.91-4.24,2.38-6.1,5.76-2.13,5.42-.89,6.27,3.42-.13,3.42-.13a2.5,2.5,0,0,0,1.39,3.3,2.71,2.71,0,0,0,3.39-.79s-.7,3,2.29,3.1c1.81.08,8.71-8.15,11-9.3,1.78-.89,4.66,1,4.66,1A6.94,6.94,0,0,0,163.2,201Z" style="fill:#455a64"></path><path d="M158.3,201.27a15.35,15.35,0,0,0-6.62,4.13,31.2,31.2,0,0,0-5.11,6.7c0,.07,0,.31.11.2.84-1,1.6-2.15,2.44-3.19a35.27,35.27,0,0,1,2.69-3,24.76,24.76,0,0,1,6.54-4.57C158.44,201.46,158.42,201.24,158.3,201.27Zm-4.43-2.2c.09,0,.07-.27-.05-.24A15.23,15.23,0,0,0,147.2,203a31.24,31.24,0,0,0-5.12,6.7c0,.07,0,.31.12.2.84-1,1.6-2.15,2.43-3.19a33.76,33.76,0,0,1,2.7-3A24.6,24.6,0,0,1,153.87,199.07Z" style="fill:#263238"></path></g><path d="M164.86,82.22c-7,.11-9.74,11.29-8.69,17.83,2,12.63,10.2,14.85,10,20.15l13.14-6.14,10.23-4.78c.94-.44,1.88-.88,2.8-1.36s1.6-1,2.46-1.46c.67-.32,1.29,0,2-.16a3.74,3.74,0,0,0,1.78-1.32,8.33,8.33,0,0,0,1.43-2.09,8.49,8.49,0,0,0,.77-4.79,8.28,8.28,0,0,1,1.23,2.47,4,4,0,0,1-.14,2.71c3.06-1.65,4-9-1.25-12.16-.93-.56-1.41-2.24-1.73-3.24a11.75,11.75,0,0,0-.91-2.49c-.45-.73-.93-1.44-1.44-2.12a26.74,26.74,0,0,0-3.43-3.78c-3.64-3.35-9.33-6.75-14.52-6.11C173,74.07,167.05,76.67,164.86,82.22Z" style="fill:#263238"></path><path d="M149.2,100.72c-6.84.27-17.44,6.75-21.75-1.44-.8,5.68,5.14,9.21,10.09,9.92-2.29,1.6-5.25,1.16-7.89,1.19-6.84-.16-13.36,4-13.85,11.26,1.58-4,6.17-4.85,11.35-4.19,6.44.82,11.57,6.53,18.27,6.11a19.11,19.11,0,0,0,6.35-1.53c2.86-1.24,5.37-3.17,8.08-4.73s5.81-2.75,8.91-2.32a21.7,21.7,0,0,0-7.92-10.54C157.62,102,153.3,100.31,149.2,100.72Z" style="fill:#263238"></path><path d="M165.46,121.38l.28-9.35a4,4,0,0,1-5.62-.58c-3.41-3.57-2.79-7.34-.7-9.65,2.32-2.54,7.37-1.78,7.7,2.58,2.9,1,2.46-3.57,1.94-8.19,0,0,15.76,2.68,23.47-7.65A3.62,3.62,0,0,1,198.25,90c.55,1.69,1.22,4.49,0,9.92-.44,2,.32,4.55,0,7.3-1.32,10.84-4.13,14.11-7.28,15.66A16.69,16.69,0,0,1,182.7,124v.78c0,.68.41,1,1.78,1.18.14.56.64,5.52-6.73,6.42-9.62,1.18-14.94-6.39-14.71-7.91C164.54,124,165.35,123.67,165.46,121.38Z" style="fill:#b16668"></path><path d="M181.27,110.89l5.73,2.47A3.06,3.06,0,0,1,183,115.1,3.26,3.26,0,0,1,181.27,110.89Z" style="fill:#9a4a4d"></path><path d="M181.51,112.3a3.43,3.43,0,0,1,3.16,3,2.85,2.85,0,0,1-1.72-.19,3.2,3.2,0,0,1-1.9-2.79A3.53,3.53,0,0,1,181.51,112.3Z" style="fill:#f28f8f"></path><path d="M196.54,98l-3.75-2.11a2.07,2.07,0,0,1,2.87-.88A2.27,2.27,0,0,1,196.54,98Z" style="fill:#263238"></path><path d="M192.61,101.42a1.85,1.85,0,0,0,1.45,2.11,1.73,1.73,0,0,0,2.07-1.39,1.85,1.85,0,0,0-1.45-2.11A1.74,1.74,0,0,0,192.61,101.42Z" style="fill:#263238"></path><path d="M178.73,97.91l4-1.71a2.1,2.1,0,0,0-2.8-1.2A2.29,2.29,0,0,0,178.73,97.91Z" style="fill:#263238"></path><path d="M179.29,101.64a1.85,1.85,0,0,0,1.45,2.11,1.74,1.74,0,0,0,2.07-1.39,1.85,1.85,0,0,0-1.45-2.11A1.72,1.72,0,0,0,179.29,101.64Z" style="fill:#263238"></path><polygon points="187.13 97.54 187.13 108.96 193.5 107.28 187.13 97.54" style="fill:#9a4a4d"></polygon><path d="M168.41,115c1.68,4.95,6.4,8.3,14.29,8.91h0v.77h0a1,1,0,0,0,.09.44c.15.32.51.51,1.22.66l.47.08c0,.07,0,.22-.16.44-2.56,0-9.08-.5-12.67-4.08A13,13,0,0,1,168.41,115Z" style="fill:#9a4a4d"></path><path d="M155.29,97a22.9,22.9,0,0,0,1.48,6.45c.49-.6,1-1.18,1.61-1.75a38.75,38.75,0,0,1,11.31-7.56h0c9.69-4.37,21.51-5.72,30.91-3a21.85,21.85,0,0,0-1.68-5.43A22.87,22.87,0,0,0,155.29,97Z" style="fill:#BA68C8"></path><path d="M169.56,92.29a25.72,25.72,0,0,1,10.31-8.91c4.73-2.44,14.35-2.43,18.67-2.3,7.55.23,9.33,1.86,9.41,3,0,.27.11,1.49.14,1.77a1,1,0,0,1-.17.71c-1.15,1.7-7.3,4.59-7.3,4.59-9.4-2.75-21.22-1.4-30.91,3Z" style="fill:#BA68C8"></path><path d="M169.56,92.29a25.72,25.72,0,0,1,10.31-8.91c4.73-2.44,14.35-2.43,18.67-2.3,7.55.23,9.33,1.86,9.41,3,0,.27.11,1.49.14,1.77a1,1,0,0,1-.17.71c-1.15,1.7-7.3,4.59-7.3,4.59-9.4-2.75-21.22-1.4-30.91,3Z" style="opacity:0.15"></path><path d="M169.71,94.09c9.69-4.37,21.51-5.72,30.91-3,0,0,6.15-2.89,7.3-4.59.62-.94.11-3.37-9.24-3.65-4.31-.13-13.93-.14-18.66,2.3C172.35,89.14,170.16,93.71,169.71,94.09Z" style="fill:#BA68C8"></path><path d="M169.71,94.09c9.69-4.37,21.51-5.72,30.91-3,0,0,6.15-2.89,7.3-4.59.62-.94.11-3.37-9.24-3.65-4.31-.13-13.93-.14-18.66,2.3C172.35,89.14,170.16,93.71,169.71,94.09Z" style="opacity:0.30000000000000004"></path><path d="M156.09,88.79c-2,6.38-1.09,14.5.5,18,2,4.56,6.6,9.22,10.63,6.07,3.35-2.62,2.94-6.79,2.23-12.48a15.06,15.06,0,0,1,.26-6.32l-13.36-5.16" style="fill:#BA68C8"></path><path d="M158.07,102c.11,3.08,2.12,6.59,4.48,7.84s4.18-.23,4.07-3.31-2.12-6.6-4.48-7.85S158,98.91,158.07,102Z" style="fill:#455a64"></path><path d="M162.14,98.67a3.32,3.32,0,0,0-1.73-.43,4.44,4.44,0,0,0-.68,2.81c.11,3.08,2.11,6.59,4.47,7.85a3.31,3.31,0,0,0,1.74.42,4.56,4.56,0,0,0,.68-2.8C166.51,103.43,164.5,99.92,162.14,98.67Z" style="fill:#263238"></path><path d="M199.64,103.07c0,.93-1,1.6-1.76,2a12.57,12.57,0,0,1-3,1,36.12,36.12,0,0,1-6.55.91,45.88,45.88,0,0,1-13.69-1.69c-1.24-.34-2.47-.71-3.68-1.12l-1.75-.62a3.92,3.92,0,0,0-1.53-.38c-.26,0-.14.38-.05.48a2.27,2.27,0,0,0,1.05.63c.58.23,1.17.43,1.75.63,1.21.42,2.44.81,3.68,1.15a51.24,51.24,0,0,0,7.27,1.5,36.53,36.53,0,0,0,14.61-.8c1.9-.53,4-1.36,3.87-3.67C199.85,102.92,199.65,102.88,199.64,103.07Z" style="fill:#455a64"></path><path d="M199.21,108.9a9.49,9.49,0,0,1-4.93,3.93,23.58,23.58,0,0,1-6.76,1.28A30.07,30.07,0,0,1,174,111.78a36.54,36.54,0,0,1-3.33-1.62c-1.25-.69-2.39-1.61-3.67-2.22-.18-.09-.19.23-.12.32a10.36,10.36,0,0,0,2.24,1.88,24.74,24.74,0,0,0,3.3,1.93,32,32,0,0,0,7.12,2.41,28.65,28.65,0,0,0,15-.66c2.18-.76,4.59-2.21,4.94-4.69C199.49,109,199.32,108.71,199.21,108.9Z" style="fill:#455a64"></path><path d="M197.84,116.36a13.3,13.3,0,0,1-5.76,4.14c-.37.13-.75.22-1.13.32a17.48,17.48,0,0,0,2.51-5.44,26.92,26.92,0,0,0,1-4.5,11,11,0,0,0,.15-4.23c-.05-.21-.45-.57-.56-.21a9.34,9.34,0,0,0-.26,2c-.07.69-.15,1.38-.26,2.07a32.3,32.3,0,0,1-1,4.25,26.89,26.89,0,0,1-1.47,3.86,9.45,9.45,0,0,1-1.94,2.61,26.65,26.65,0,0,1-4.89.37c-.34,0-.68,0-1,0a28.33,28.33,0,0,0,2.34-6.2c.34-1.28.59-2.57.82-3.87s.65-3-.1-4.27c-.06-.1-.28-.2-.34,0a8.42,8.42,0,0,0-.14,2c-.06.69-.18,1.38-.3,2.06-.24,1.26-.51,2.51-.83,3.75a30.84,30.84,0,0,1-2.47,6.55,20.41,20.41,0,0,1-11.37-4.28,18,18,0,0,1-4.56-5.63c-.06-.1-.12.06-.1.12a12.63,12.63,0,0,0,3.66,5.87,18.1,18.1,0,0,0,6.28,3.72,25.78,25.78,0,0,0,8,1.36,22.3,22.3,0,0,0,8.43-1.18,9.16,9.16,0,0,0,5.48-4.71C198.17,116.62,198,116.17,197.84,116.36Z" style="fill:#455a64"></path></g></g></g><g id="freepik--Ball--inject-39"><g id="freepik--ball--inject-39"><circle id="freepik--ball--inject-39" cx="260.86" cy="120.69" r="10.03" style="fill:#BA68C8"></circle><circle id="freepik--ball--inject-39" cx="260.86" cy="120.69" r="10.03" style="fill:#fff;opacity:0.6000000000000001"></circle><path d="M270.45,123.63a13.61,13.61,0,0,1-3.8,2c-4.54,1.29-9.61-.74-11.29-5.3a10.93,10.93,0,0,1,.58-8.35,10,10,0,1,0,14.51,11.68Z" style="fill:#BA68C8;opacity:0.30000000000000004"></path></g></g></svg>
