<svg xmlns="http://www.w3.org/2000/svg" viewBox="0 0 500 500"><g id="freepik--background-complete--inject-149"><rect x="388.81" width="1" height="302.83" style="fill:#dbdbdb"></rect><path d="M388.62,303.26l.43-1.25c.28-.83,2.85-8.13,5.86-9.07a2.15,2.15,0,0,1,2,.36,2,2,0,0,1,.86,1.73c-.18,3-7.19,7.11-8,7.57Zm6.95-9.42a1.13,1.13,0,0,0-.36.06c-1.78.55-3.7,4.54-4.72,7.09,2.42-1.53,6.17-4.27,6.27-6a1,1,0,0,0-.46-.87A1.19,1.19,0,0,0,395.57,293.84Z" style="fill:#dbdbdb"></path><path d="M390.09,303.26l-1.15-.66c-.75-.43-7.32-4.28-7.48-7.11a1.85,1.85,0,0,1,.81-1.64,2.06,2.06,0,0,1,1.89-.34c2.83.88,5.24,7.72,5.5,8.5Zm-6.56-8.85a1.1,1.1,0,0,0-.66.24.86.86,0,0,0-.42.78c.09,1.48,3.21,3.93,5.76,5.56-.95-2.38-2.72-6-4.35-6.52A1,1,0,0,0,383.53,294.41Z" style="fill:#dbdbdb"></path><polygon points="408.86 327.74 444.48 362.25 430 387.78 407.01 342.44 408.86 327.74" style="fill:#a6a6a6"></polygon><polygon points="437.87 265.08 378.43 337.86 385.16 304.2 437.87 265.08" style="fill:#dbdbdb"></polygon><polygon points="437.87 265.08 378.43 337.86 385.16 304.2 437.87 265.08" style="fill:#fff;opacity:0.1"></polygon><polygon points="425.17 307.12 378.43 337.86 437.87 265.08 425.17 307.12" style="fill:#dbdbdb"></polygon><polygon points="385.16 304.2 365.6 329.86 378.43 337.86 385.16 304.2" style="fill:#c7c7c7"></polygon><polygon points="425.17 307.12 395.83 344.21 392.56 328.57 425.17 307.12" style="fill:#c7c7c7"></polygon><polygon points="385.16 304.2 373.34 285.49 365.6 329.86 385.16 304.2" style="fill:#dbdbdb"></polygon><polygon points="395.83 344.21 408.86 327.74 407.01 342.44 395.83 344.21" style="fill:#dbdbdb"></polygon><polygon points="373.34 285.49 354.8 306.11 370.21 303.42 373.34 285.49" style="fill:#c7c7c7"></polygon><polygon points="373.34 285.49 385.16 304.2 388.53 301.7 373.34 285.49" style="fill:#a6a6a6"></polygon><polygon points="407.01 342.44 408.86 327.74 440.1 362.48 425.68 388.93 407.01 342.44" style="fill:#c7c7c7"></polygon><polygon points="93.96 347.96 82.09 347.96 55.74 360.37 74.34 368.76 93.96 347.96" style="fill:#ebebeb"></polygon><polygon points="93.96 347.96 82.09 347.96 55.74 360.37 74.34 368.76 93.96 347.96" style="opacity:0.2"></polygon><polygon points="85.26 266.03 106.54 281.9 116.18 317.63 106.31 323.04 84.32 295.65 85.26 266.03" style="fill:#ebebeb"></polygon><polygon points="85.26 266.03 106.54 281.9 116.18 317.63 106.31 323.04 84.32 295.65 85.26 266.03" style="opacity:0.2"></polygon><polygon points="108.66 313.29 99.96 295.77 55.52 269.32 65.4 305.41 108.66 313.29" style="fill:#ebebeb"></polygon><polygon points="108.66 313.29 99.96 295.77 55.52 269.32 65.4 305.41 108.66 313.29" style="opacity:0.1"></polygon><polygon points="131.34 303.65 145.45 312.58 133.93 315.99 108.66 313.29 131.34 303.65" style="fill:#ebebeb"></polygon><polygon points="131.34 303.65 145.45 312.58 133.93 315.99 108.66 313.29 131.34 303.65" style="opacity:0.1"></polygon><polygon points="91.14 327.98 120.53 336.21 93.96 347.96 79.74 347.96 91.14 327.98" style="fill:#ebebeb"></polygon><polygon points="91.14 327.98 120.53 336.21 93.96 347.96 79.74 347.96 91.14 327.98" style="opacity:0.1"></polygon><polygon points="108.66 313.29 120.53 336.21 91.14 327.98 65.4 305.41 108.66 313.29" style="fill:#ebebeb"></polygon><polygon points="133.93 315.99 120.53 336.21 108.66 313.29 133.93 315.99" style="fill:#ebebeb"></polygon><polygon points="133.93 315.99 120.53 336.21 108.66 313.29 133.93 315.99" style="opacity:0.2"></polygon><polygon points="93.96 347.96 79.74 347.96 57.05 354.67 73.98 365.6 93.96 347.96" style="fill:#ebebeb"></polygon><polygon points="93.96 347.96 79.74 347.96 57.05 354.67 73.98 365.6 93.96 347.96" style="opacity:0.2"></polygon><rect x="111.59" width="1" height="312.72" style="fill:#dbdbdb"></rect><path d="M111.39,313.16l.43-1.26c.29-.83,2.86-8.13,5.87-9.06a2.1,2.1,0,0,1,2,.36,1.92,1.92,0,0,1,.86,1.72c-.17,3-7.19,7.12-8,7.58Zm7-9.43a1.24,1.24,0,0,0-.37.06c-1.77.55-3.7,4.55-4.71,7.1,2.41-1.54,6.16-4.28,6.27-6a1,1,0,0,0-.46-.86A1.2,1.2,0,0,0,118.35,303.73Z" style="fill:#dbdbdb"></path><path d="M112.87,313.16l-1.15-.66c-.75-.43-7.32-4.29-7.49-7.11a1.85,1.85,0,0,1,.82-1.64,2,2,0,0,1,1.89-.34c2.83.88,5.23,7.71,5.5,8.49Zm-6.56-8.85a1.07,1.07,0,0,0-.66.24.84.84,0,0,0-.42.78c.09,1.47,3.21,3.93,5.76,5.56-.95-2.39-2.72-6-4.35-6.53A1.26,1.26,0,0,0,106.31,304.31Z" style="fill:#dbdbdb"></path><polygon points="224.91 82.88 233.49 97.03 222.29 84.68 213.16 86 224.91 82.88" style="fill:#ebebeb"></polygon><polygon points="224.91 82.88 233.49 97.03 222.29 84.68 213.16 86 224.91 82.88" style="opacity:0.4"></polygon><polygon points="215.33 125.8 179.27 110.43 242.27 102.49 215.33 125.8" style="fill:#ebebeb"></polygon><polygon points="215.33 125.8 179.27 110.43 242.27 102.49 215.33 125.8" style="opacity:0.4"></polygon><polygon points="208.49 141.8 215.33 125.8 179.27 110.43 179.13 128.82 208.49 141.8" style="fill:#ebebeb"></polygon><polygon points="208.49 141.8 215.33 125.8 179.27 110.43 179.13 128.82 208.49 141.8" style="opacity:0.30000000000000004"></polygon><polygon points="208.49 141.8 222.29 84.68 213.16 86 191.68 142.63 208.49 141.8" style="fill:#ebebeb"></polygon><polygon points="208.49 141.8 222.29 84.68 213.16 86 191.68 142.63 208.49 141.8" style="opacity:0.2"></polygon><polygon points="200.41 147.1 222.29 84.68 213.16 86 183.6 130.79 200.41 147.1" style="fill:#ebebeb"></polygon><polygon points="200.41 147.1 222.29 84.68 213.16 86 183.6 130.79 200.41 147.1" style="opacity:0.1"></polygon><polygon points="222.29 84.68 220.93 88.56 233.49 97.03 222.29 84.68" style="fill:#ebebeb"></polygon><polygon points="222.29 84.68 220.93 88.56 233.49 97.03 222.29 84.68" style="opacity:0.2"></polygon><polygon points="194.52 127.84 194.18 114.76 171.76 102.21 167.06 115.73 194.52 127.84" style="fill:#ebebeb"></polygon><polygon points="194.52 127.84 194.18 114.76 171.76 102.21 167.06 115.73 194.52 127.84" style="opacity:0.2"></polygon><polygon points="200.41 147.1 197.33 129.08 180.16 134.41 180.76 142.01 200.41 147.1" style="fill:#ebebeb"></polygon><polygon points="200.41 147.1 197.33 129.08 180.16 134.41 180.76 142.01 200.41 147.1" style="opacity:0.30000000000000004"></polygon><polygon points="180.76 142.01 168.58 142.1 167.66 134.73 180.16 134.41 180.76 142.01" style="fill:#ebebeb"></polygon><polygon points="180.76 142.01 168.58 142.1 167.66 134.73 180.16 134.41 180.76 142.01" style="opacity:0.4"></polygon><polygon points="197.33 129.08 167.06 115.73 129.34 150.44 197.33 129.08" style="fill:#ebebeb"></polygon><polygon points="167.06 115.73 171.76 102.21 144.7 48.28 167.06 115.73" style="fill:#ebebeb"></polygon><polygon points="167.06 115.73 171.76 102.21 144.7 48.28 167.06 115.73" style="opacity:0.1"></polygon><rect x="190.91" width="1" height="114.4" style="fill:#dbdbdb"></rect><path d="M190.72,114.84l.43-1.26c.28-.83,2.85-8.13,5.86-9.06a2.15,2.15,0,0,1,2,.35,2,2,0,0,1,.86,1.73c-.18,3-7.19,7.12-8,7.57Zm6.95-9.43a1.13,1.13,0,0,0-.36.06c-1.78.55-3.71,4.55-4.72,7.1,2.42-1.54,6.17-4.28,6.27-6a.94.94,0,0,0-.46-.86A1.2,1.2,0,0,0,197.67,105.41Z" style="fill:#dbdbdb"></path><path d="M192.19,114.84l-1.15-.67c-.75-.43-7.32-4.28-7.49-7.1a1.87,1.87,0,0,1,.82-1.64,2.06,2.06,0,0,1,1.89-.35c2.83.89,5.24,7.72,5.5,8.5ZM185.63,106a1.1,1.1,0,0,0-.66.24.84.84,0,0,0-.42.78c.09,1.47,3.21,3.93,5.76,5.55-.95-2.38-2.72-6-4.35-6.52A1,1,0,0,0,185.63,106Z" style="fill:#dbdbdb"></path></g><g id="freepik--Table--inject-149"><path d="M456.65,461.8c-132.39.61-280.91.62-413.3,0,132.39-.62,280.91-.61,413.3,0Z" style="fill:#263238"></path></g><g id="freepik--Plant--inject-149"><path d="M422.7,364.5c-5.69,0-17.21-4.48-15.26-8.24s7.86,1.07,8.11,1.22c-.17-.28-4-7.79-.59-9.09s6.88,2.32,7.74,6.48c.85-4.16,4.23-7.81,7.74-6.48s-.43,8.81-.59,9.09c.24-.15,6.21-4.89,8.11-1.22S428.39,364.5,422.7,364.5Z" style="fill:#455a64"></path><path d="M451.42,395.18a69.17,69.17,0,0,1-1.45,9.33c-1.35,6.11-3.57,12-6.75,16a56.55,56.55,0,0,1-41.17,0c-6.79-8.48-9.21-25.92-8.24-34.89,1.75-16.2,11.42-22.39,19.82-24.6h0a35.83,35.83,0,0,1,9-1.15c8.23,0,26.36,3,28.82,25.76A50,50,0,0,1,451.42,395.18Z" style="fill:#FFC727"></path><path d="M423.23,359.87c.23,5.38.36,10.76.46,16.14s.13,10.76.15,16.14,0,10.76-.21,16.14a133.47,133.47,0,0,1-1.12,16.11l.2-2,.12-2c.08-1.34.08-2.69.13-4,.06-2.69.11-5.38.11-8.07,0-5.37.07-10.75.05-16.13l0-16.14C423.15,370.63,423.16,365.25,423.23,359.87Z" style="fill:#fff"></path><path d="M419.74,360a66,66,0,0,0-1.93,7.81c-.54,2.63-.93,5.29-1.26,7.94a150.91,150.91,0,0,0-1.11,16l0,4c0,1.34.05,2.68.07,4,0,2.68.24,5.35.36,8,.05,1.35.19,2.68.31,4l.35,4,.91,8c-.44-2.65-.87-5.3-1.26-8l-.46-4c-.15-1.34-.32-2.67-.41-4-.21-2.69-.41-5.37-.46-8.06,0-1.35-.12-2.69-.11-4v-4A137.54,137.54,0,0,1,416,375.66,77.35,77.35,0,0,1,419.74,360Z" style="fill:#fff"></path><path d="M415.07,360.65a33.19,33.19,0,0,0-4.08,7.1c-.26.64-.56,1.25-.8,1.89l-.69,1.93-.35,1c-.1.32-.18.65-.28,1l-.54,2a62.88,62.88,0,0,0-1.86,16.22l.08,4.1.4,4.08.2,2c.1.68.24,1.35.35,2l.69,4.05c.1.68.27,1.34.43,2l.49,2,1,4,2.43,7.86c-.94-2.57-1.85-5.17-2.77-7.76l-1.08-4-.53-2a19.4,19.4,0,0,1-.48-2l-.77-4.06c-.12-.68-.26-1.36-.36-2l-.22-2-.44-4.12-.12-4.13a61.56,61.56,0,0,1,2.05-16.38l.6-2c.1-.33.2-.66.31-1l.37-1,.74-1.93c.26-.64.57-1.26.86-1.88A31.49,31.49,0,0,1,415.07,360.65Z" style="fill:#fff"></path><path d="M411.64,361.58a30.26,30.26,0,0,0-5.56,6.18,36.27,36.27,0,0,0-4,7.29A42.57,42.57,0,0,0,399,391.24c-.05,1.39.06,2.77.11,4.16s.22,2.76.46,4.13l.32,2.05.42,2c.13.68.28,1.36.46,2l.51,2c.35,1.34.79,2.66,1.18,4l1.4,3.93,1.55,3.88,1.7,3.82a82,82,0,0,1-6.37-15.48c-.36-1.35-.79-2.69-1.05-4.07l-.43-2.05-.34-2.08c-.26-1.38-.34-2.78-.5-4.17s-.18-2.81-.14-4.21a41.87,41.87,0,0,1,3.34-16.41,36.31,36.31,0,0,1,4.19-7.28,31.92,31.92,0,0,1,2.72-3.2A22.81,22.81,0,0,1,411.64,361.58Z" style="fill:#fff"></path><path d="M426.51,360a77.19,77.19,0,0,1,3.74,15.68,137.54,137.54,0,0,1,1.29,16.09v4c0,1.35-.08,2.69-.11,4-.05,2.69-.25,5.37-.47,8.05-.08,1.35-.25,2.68-.4,4l-.46,4c-.39,2.66-.82,5.31-1.27,8l.92-8,.35-4c.12-1.33.26-2.67.31-4,.12-2.68.34-5.35.36-8,0-1.34.1-2.68.07-4l0-4a150.91,150.91,0,0,0-1.11-16c-.33-2.66-.73-5.31-1.26-7.94A66,66,0,0,0,426.51,360Z" style="fill:#fff"></path><path d="M431.18,360.69a31.42,31.42,0,0,1,4.4,6.95c.29.63.6,1.25.86,1.88l.74,1.93.37,1c.11.33.21.66.31,1l.6,2a61.56,61.56,0,0,1,2.05,16.38l-.12,4.13L440,400l-.22,2.06c-.1.68-.24,1.36-.36,2l-.77,4.06a19.59,19.59,0,0,1-.48,2l-.53,2-1.08,4c-.92,2.59-1.83,5.18-2.77,7.76l2.43-7.86,1-4,.49-2c.16-.67.33-1.33.43-2l.69-4.05c.11-.67.25-1.34.35-2l.2-2,.4-4.08.08-4.1a63.39,63.39,0,0,0-1.86-16.23l-.55-2c-.09-.33-.17-.66-.27-1l-.35-1-.69-1.93c-.24-.64-.54-1.26-.8-1.89A33.19,33.19,0,0,0,431.18,360.69Z" style="fill:#fff"></path><path d="M434.61,361.62a22.81,22.81,0,0,1,3.13,2.77,33.29,33.29,0,0,1,2.72,3.2,36.79,36.79,0,0,1,4.19,7.28A41.8,41.8,0,0,1,448,391.28c0,1.4-.08,2.8-.14,4.2s-.24,2.8-.5,4.18l-.34,2.08-.43,2.05c-.26,1.38-.69,2.72-1.05,4.07a82.65,82.65,0,0,1-6.37,15.48l1.7-3.82,1.55-3.88,1.4-3.93c.39-1.34.83-2.66,1.18-4l.51-2c.18-.67.33-1.35.46-2l.42-2,.32-2.06c.24-1.36.31-2.75.46-4.13s.16-2.76.1-4.15a42.42,42.42,0,0,0-3.12-16.2,36.47,36.47,0,0,0-4-7.28A30.26,30.26,0,0,0,434.61,361.62Z" style="fill:#fff"></path><path d="M421.31,379.1a36.58,36.58,0,0,1,2.38,3.59h-.43c.4-.72.83-1.44,1.27-2.14.22-.35.45-.7.68-1.05s.48-.68.73-1c-.15.39-.33.76-.5,1.14s-.36.75-.55,1.12q-.57,1.11-1.2,2.19l-.22.38-.21-.38A35.46,35.46,0,0,1,421.31,379.1Z" style="fill:#fff"></path><path d="M423.29,377.24a15.7,15.7,0,0,1,.18,5.58,15.7,15.7,0,0,1-.18-5.58Z" style="fill:#fff"></path><path d="M440,360a34.3,34.3,0,0,1,0,4.3l-.36-.23c.73-.39,1.48-.76,2.23-1.11l1.14-.5c.39-.16.78-.32,1.17-.46-.34.25-.69.46-1.05.69s-.71.43-1.07.64c-.72.41-1.45.81-2.19,1.18l-.39.2,0-.43A38.6,38.6,0,0,1,440,360Z" style="fill:#fff"></path><path d="M442.62,359.55a13.33,13.33,0,0,1-1.22,2.52,13.54,13.54,0,0,1-1.66,2.26,13.37,13.37,0,0,1,1.23-2.52A13.75,13.75,0,0,1,442.62,359.55Z" style="fill:#fff"></path><path d="M435.49,372.91a38.45,38.45,0,0,1,1.95,3.84l-.43,0c.48-.68,1-1.34,1.51-2,.26-.32.52-.64.8-1s.55-.62.84-.92c-.2.37-.42.72-.63,1.08s-.45.7-.68,1.05c-.46.69-.94,1.37-1.44,2l-.26.35L437,377A34.79,34.79,0,0,1,435.49,372.91Z" style="fill:#fff"></path><path d="M437.67,371.29a15.64,15.64,0,0,1-.46,5.56,15.64,15.64,0,0,1,.46-5.56Z" style="fill:#fff"></path><path d="M427.4,415.43a36.58,36.58,0,0,1,2.38,3.59h-.43c.4-.72.83-1.44,1.27-2.14.22-.35.45-.7.68-1.05s.48-.68.73-1c-.15.39-.33.76-.5,1.14s-.36.75-.55,1.12q-.57,1.11-1.2,2.19l-.22.38-.21-.38A35.46,35.46,0,0,1,427.4,415.43Z" style="fill:#fff"></path><path d="M429.38,413.57a15.7,15.7,0,0,1,.18,5.58,15.7,15.7,0,0,1-.18-5.58Z" style="fill:#fff"></path><path d="M408.47,366.38a38.32,38.32,0,0,1,1.24,4.13l-.42-.13c.6-.57,1.21-1.13,1.84-1.68.31-.27.63-.54,1-.8s.65-.52,1-.77c-.26.33-.54.64-.81,1s-.57.61-.86.91c-.58.6-1.17,1.18-1.78,1.75l-.31.29-.1-.42A35.12,35.12,0,0,1,408.47,366.38Z" style="fill:#fff"></path><path d="M410.9,365.17a14.09,14.09,0,0,1-.47,2.76,13.52,13.52,0,0,1-1,2.64,14.08,14.08,0,0,1,.48-2.77A14.33,14.33,0,0,1,410.9,365.17Z" style="fill:#fff"></path><path d="M452.69,381.88a36,36,0,0,1-.45,4.29l-.34-.28c.78-.3,1.56-.58,2.35-.84.39-.13.79-.26,1.19-.37s.8-.23,1.21-.32c-.36.2-.74.37-1.12.56s-.75.35-1.14.51q-1.14.49-2.31.93l-.41.15.07-.43A36.34,36.34,0,0,1,452.69,381.88Z" style="fill:#fff"></path><path d="M455.4,381.71a15.24,15.24,0,0,1-3.41,4.41,14.08,14.08,0,0,1,1.5-2.36A13.7,13.7,0,0,1,455.4,381.71Z" style="fill:#fff"></path><path d="M413.12,397.71a35.44,35.44,0,0,1,2.41,3.57h-.43c.4-.73.82-1.44,1.25-2.15.22-.36.44-.71.67-1.06s.47-.69.72-1c-.15.39-.33.77-.49,1.15s-.35.75-.54,1.13c-.37.74-.76,1.47-1.17,2.2l-.22.38-.22-.38A34.47,34.47,0,0,1,413.12,397.71Z" style="fill:#fff"></path><path d="M415.07,395.83a15.41,15.41,0,0,1,.25,5.58,14,14,0,0,1-.38-2.78A14.64,14.64,0,0,1,415.07,395.83Z" style="fill:#fff"></path><path d="M398.25,407.23a35.9,35.9,0,0,1,3.57,2.4l-.39.17c.09-.83.21-1.65.35-2.47.07-.41.14-.82.22-1.23s.18-.81.29-1.22c0,.42,0,.84,0,1.25s0,.84-.07,1.25c-.07.83-.16,1.66-.27,2.48l-.06.43-.34-.26A37.75,37.75,0,0,1,398.25,407.23Z" style="fill:#fff"></path><path d="M399.36,404.75a13.71,13.71,0,0,1,1.39,2.44,13.09,13.09,0,0,1,.92,2.64,13.07,13.07,0,0,1-1.38-2.44A13.34,13.34,0,0,1,399.36,404.75Z" style="fill:#fff"></path><path d="M394.56,369.45a34.64,34.64,0,0,1,4,1.69l-.35.24c-.07-.83-.11-1.66-.13-2.49,0-.42,0-.84,0-1.25s0-.84,0-1.26c.08.41.14.83.21,1.24s.11.82.16,1.24c.09.82.16,1.65.2,2.48l0,.44-.39-.2A35.59,35.59,0,0,1,394.56,369.45Z" style="fill:#fff"></path><path d="M395.19,366.81a13.66,13.66,0,0,1,1.82,2.13,13.16,13.16,0,0,1,1.4,2.42,14.14,14.14,0,0,1-1.82-2.13A13.5,13.5,0,0,1,395.19,366.81Z" style="fill:#fff"></path><path d="M445.31,396.76a37.23,37.23,0,0,1,2,3.79l-.43,0c.47-.68,1-1.35,1.47-2l.78-1c.27-.31.54-.64.82-.94-.18.37-.4.73-.6,1.09l-.66,1.07c-.45.7-.91,1.39-1.4,2.06l-.25.36-.18-.4A35.3,35.3,0,0,1,445.31,396.76Z" style="fill:#fff"></path><path d="M447.45,395.09a15.67,15.67,0,0,1-.34,5.57,13.14,13.14,0,0,1-.08-2.8A13.75,13.75,0,0,1,447.45,395.09Z" style="fill:#fff"></path><polygon points="398.44 420.92 447.33 420.92 442.41 461.8 403.36 461.8 398.44 420.92" style="fill:#455a64"></polygon><polygon points="398.44 420.92 399.55 430.14 446.5 427.88 447.33 420.92 398.44 420.92" style="fill:#263238"></polygon><rect x="395.37" y="415.75" width="55.04" height="7.31" style="fill:#455a64"></rect></g><g id="freepik--origami-birds-2--inject-149"><rect x="379.25" width="1" height="205.12" style="fill:#263238"></rect><path d="M380.41,205.43l-1.15-.66c-1-.55-9.31-5.45-9.52-9a2.24,2.24,0,0,1,1-2,2.45,2.45,0,0,1,2.29-.42c3.62,1.13,6.82,10.4,7,10.79Zm-8.15-11.17a1.51,1.51,0,0,0-.93.34,1.22,1.22,0,0,0-.59,1.12c.13,2.19,4.92,5.64,7.8,7.45-1.18-3-3.58-8.14-5.81-8.83A1.65,1.65,0,0,0,372.26,194.26Z" style="fill:#263238"></path><path d="M379,205.43l.43-1.26c.31-.92,3.18-9.07,6.52-10.11a2.34,2.34,0,0,1,2.17.4,2.11,2.11,0,0,1,.94,1.88c-.19,3.32-8,7.91-8.91,8.43ZM386.68,195a1.33,1.33,0,0,0-.43.07c-2.05.64-4.26,5.29-5.38,8.14,2.7-1.7,7.08-4.86,7.19-6.88a1.11,1.11,0,0,0-.53-1A1.39,1.39,0,0,0,386.68,195Z" style="fill:#263238"></path><polygon points="397 219.16 397 202.68 360.13 202.68 338.84 249.96 397 219.16" style="fill:#455a64"></polygon><polygon points="397 219.16 397 202.68 360.13 202.68 338.84 249.96 397 219.16" style="fill:#fff;opacity:0.1"></polygon><polygon points="397 219.16 397 202.68 440.85 219.16 425.55 235 397 219.16" style="fill:#455a64"></polygon><polygon points="360.13 202.68 331.12 212.57 349.48 226.32 360.13 202.68" style="fill:#455a64"></polygon><polygon points="406.32 206.19 427.17 205.43 440.85 219.16 406.32 206.19" style="fill:#263238"></polygon><polygon points="397 219.16 405.54 229.56 425.55 235 397 219.16" style="fill:#37474f"></polygon><polygon points="338.84 249.96 344.63 298.27 374.94 262.51 377.36 229.56 338.84 249.96" style="fill:#37474f"></polygon><polygon points="360.13 202.68 337.86 198.37 318.95 216.72 360.13 202.68" style="fill:#37474f"></polygon><polygon points="374.94 262.51 377.36 229.56 397 219.16 374.94 262.51" style="fill:#263238"></polygon><rect x="127.01" width="1" height="177.19" style="fill:#263238"></rect><path d="M128.17,177.49l-1.16-.66c-1-.55-9.3-5.45-9.51-9a2.25,2.25,0,0,1,1-2,2.45,2.45,0,0,1,2.29-.42c3.62,1.13,6.82,10.4,7,10.79ZM120,166.32a1.56,1.56,0,0,0-.92.34,1.23,1.23,0,0,0-.59,1.12c.13,2.2,4.91,5.64,7.8,7.45-1.19-3-3.59-8.14-5.82-8.83A1.55,1.55,0,0,0,120,166.32Z" style="fill:#263238"></path><path d="M126.76,177.49l.43-1.26c.31-.92,3.18-9.06,6.52-10.1a2.34,2.34,0,0,1,2.17.39,2.13,2.13,0,0,1,.94,1.88c-.2,3.33-8,7.92-8.91,8.43ZM134.44,167a1.61,1.61,0,0,0-.43.07c-2,.64-4.27,5.3-5.39,8.15,2.71-1.7,7.08-4.87,7.2-6.89a1.15,1.15,0,0,0-.53-1A1.42,1.42,0,0,0,134.44,167Z" style="fill:#263238"></path><polygon points="101.58 206.07 59.15 247.18 76.4 277.6 103.79 223.58 101.58 206.07" style="fill:#263238"></polygon><polygon points="67.02 131.43 137.84 218.13 129.82 178.03 67.02 131.43" style="fill:#455a64"></polygon><polygon points="67.02 131.43 137.84 218.13 129.82 178.03 67.02 131.43" style="fill:#fff;opacity:0.1"></polygon><polygon points="82.15 181.51 137.84 218.13 67.02 131.43 82.15 181.51" style="fill:#455a64"></polygon><polygon points="129.82 178.03 153.12 208.6 137.84 218.13 129.82 178.03" style="fill:#37474f"></polygon><polygon points="82.15 181.51 117.11 225.7 121 207.06 82.15 181.51" style="fill:#37474f"></polygon><polygon points="129.82 178.03 143.89 155.74 153.12 208.6 129.82 178.03" style="fill:#455a64"></polygon><polygon points="117.11 225.7 101.58 206.07 103.79 223.58 117.11 225.7" style="fill:#455a64"></polygon><polygon points="143.89 155.74 165.98 180.3 147.62 177.11 143.89 155.74" style="fill:#37474f"></polygon><polygon points="143.89 155.74 129.82 178.03 125.8 175.05 143.89 155.74" style="fill:#263238"></polygon><polygon points="103.79 223.58 101.58 206.07 64.36 247.46 81.55 278.96 103.79 223.58" style="fill:#37474f"></polygon><polygon points="332.84 131.96 346.91 131.96 378.13 146.67 356.09 156.6 332.84 131.96" style="fill:#FFC727"></polygon><polygon points="332.84 131.96 346.91 131.96 378.13 146.67 356.09 156.6 332.84 131.96" style="opacity:0.4"></polygon><polygon points="343.15 34.86 317.93 53.67 306.51 96.02 318.21 102.43 344.26 69.97 343.15 34.86" style="fill:#FFC727"></polygon><polygon points="343.15 34.86 317.93 53.67 306.51 96.02 318.21 102.43 344.26 69.97 343.15 34.86" style="opacity:0.4"></polygon><polygon points="315.43 90.86 325.73 70.11 378.39 38.76 366.69 81.53 315.43 90.86" style="fill:#FFC727"></polygon><polygon points="315.43 90.86 325.73 70.11 378.39 38.76 366.69 81.53 315.43 90.86" style="opacity:0.1"></polygon><polygon points="288.54 79.44 271.82 90.03 285.47 94.07 315.43 90.86 288.54 79.44" style="fill:#FFC727"></polygon><polygon points="288.54 79.44 271.82 90.03 285.47 94.07 315.43 90.86 288.54 79.44" style="opacity:0.1"></polygon><polygon points="336.18 108.28 301.35 118.03 332.84 131.96 349.7 131.96 336.18 108.28" style="fill:#FFC727"></polygon><polygon points="336.18 108.28 301.35 118.03 332.84 131.96 349.7 131.96 336.18 108.28" style="opacity:0.1"></polygon><polygon points="315.43 90.86 301.35 118.03 336.18 108.28 366.69 81.53 315.43 90.86" style="fill:#FFC727"></polygon><polygon points="285.47 94.07 301.35 118.03 315.43 90.86 285.47 94.07" style="fill:#FFC727"></polygon><polygon points="285.47 94.07 301.35 118.03 315.43 90.86 285.47 94.07" style="opacity:0.2"></polygon><polygon points="332.84 131.96 349.7 131.96 376.58 139.9 356.52 152.86 332.84 131.96" style="fill:#FFC727"></polygon><polygon points="332.84 131.96 349.7 131.96 376.58 139.9 356.52 152.86 332.84 131.96" style="opacity:0.2"></polygon><rect x="314.22" width="1" height="90.72" style="fill:#263238"></rect><path d="M315.38,91l-1.15-.67c-1-.54-9.31-5.44-9.52-9a2.27,2.27,0,0,1,1-2A2.47,2.47,0,0,1,308,79c3.62,1.13,6.82,10.4,7,10.79Zm-8.15-11.17a1.51,1.51,0,0,0-.93.34,1.22,1.22,0,0,0-.59,1.12c.13,2.19,4.91,5.64,7.8,7.45-1.18-3-3.58-8.14-5.81-8.84A1.58,1.58,0,0,0,307.23,79.86Z" style="fill:#263238"></path><path d="M314,91l.43-1.26c.31-.93,3.18-9.07,6.52-10.11a2.35,2.35,0,0,1,2.17.4,2.11,2.11,0,0,1,.94,1.88c-.19,3.32-8,7.91-8.91,8.42Zm7.68-10.48a1.33,1.33,0,0,0-.43.07c-2.05.64-4.26,5.29-5.38,8.14,2.7-1.7,7.08-4.86,7.19-6.88a1.11,1.11,0,0,0-.53-1A1.39,1.39,0,0,0,321.65,80.55Z" style="fill:#263238"></path></g><g id="freepik--Character--inject-149"><path d="M296,303.61a9.55,9.55,0,0,1-4.32,8.27,57.83,57.83,0,0,1-7,4.12c.67-9.31.3-19,.11-28.16-.22-10.82-1.12-21.41-2.21-32.11a.12.12,0,1,0-.23,0c.41,10.84.48,21.74.63,32.58.13,9.49-.4,19.1-.21,28.59-2.48,1.15-5,2.17-7.56,3.07q.24-5,.41-9.94c.32-10-.16-19.84-.31-29.81,0-.24-.3-.25-.29,0,0,9.69-.7,19.5-1.11,29.19q-.24,5.61-.55,11.22-2.62.86-5.21,1.61c-1.15.33-2.3.65-3.45.92.15-6.54,0-13.15,0-19.56,0-10.37-.61-20.7-.77-31.07,0-.36-.46-.37-.46,0,.1,10.32-.41,20.7-.51,31-.07,6.64-.4,13.44-.44,20.17-15.41,3.55-31.25,3.51-46.7,1.06a187.06,187.06,0,0,1-26.57-6.39c-2.1-.66-7.47-2.54-12.77-4.49.05-3.13,0-6.26.11-9.28.19-6.9,0-13.87.37-20.75,0-.2-.22-.2-.24,0-.56,6.91-1.47,13.76-1.84,20.7-.14,2.78-.35,5.66-.47,8.57-1.9-.7-3.71-1.4-5.31-2,1.05-13,.75-26.28,1.12-39.28,0-.31-.36-.32-.38,0-.89,12.73-2.47,25.63-2.76,38.47a18.54,18.54,0,0,1-3.5-1.69c-2.57-2.46,1-53.93,1.52-65.95,1.06-22.4,2.2-49.26,7.74-70.87,4.75-18.49,14.53-44.89,60.54-44.09,33.76.58,49.5,35.88,52.26,56.37,1.42,10.55,9.06,79.64,9.83,101.81C295.6,291.74,296.07,297.72,296,303.61Z" style="fill:#263238"></path><path d="M87.45,461.57,270,461.8c2.4-2-20.42-139.59-47.57-192.88-5.08-10-35.62-24-58.9,2.14C106,335.66,87.45,461.57,87.45,461.57Z" style="fill:#FFC727"></path><path d="M219.18,264.85H170.12a44.09,44.09,0,0,1,4.89-3.33h39.62A27,27,0,0,1,219.18,264.85Zm7.2,12.4H158.3c-.88,1.1-1.76,2.21-2.62,3.33h72.13C227.33,279.45,226.86,278.34,226.38,277.25ZM232.59,293H146.85c-.73,1.1-1.44,2.21-2.15,3.33h89.08C233.39,295.18,233,294.06,232.59,293Zm5.3,15.72H137.31c-.62,1.11-1.23,2.21-1.83,3.33H238.93C238.58,310.9,238.24,309.79,237.89,308.69Zm4.7,15.73H129.12c-.53,1.1-1.07,2.22-1.59,3.33h116C243.22,326.64,242.91,325.52,242.59,324.42Zm4.28,15.72H122c-.47,1.11-.94,2.22-1.4,3.33H247.73C247.44,342.36,247.16,341.25,246.87,340.14Zm3.94,15.72H115.63c-.43,1.12-.85,2.23-1.26,3.34H251.61C251.35,358.09,251.08,357,250.81,355.86Zm3.67,15.73H110c-.38,1.11-.75,2.22-1.12,3.33H255.22C255,373.82,254.73,372.71,254.48,371.59Zm3.42,15.72h-153c-.35,1.12-.68,2.23-1,3.33H258.6C258.37,389.54,258.14,388.43,257.9,387.31ZM261.1,403H100.32l-.9,3.33H261.75C261.54,405.27,261.32,404.16,261.1,403Zm3,15.72H96.24q-.42,1.69-.81,3.33H264.68Q264.38,420.46,264.08,418.76Zm2.73,15.72H92.6c-.25,1.14-.49,2.25-.71,3.33H267.34C267.17,436.73,267,435.62,266.81,434.48Zm2.37,15.73H89.41c-.22,1.2-.43,2.31-.61,3.33H269.61C269.48,452.52,269.34,451.4,269.18,450.21Z" style="fill:#030402;opacity:0.1"></path><path d="M163,267.76c-29.37,21-120,107.59-116.82,138.23,2.39,22.78,26.68,31.19,48.69,23.2,19.16-6.95,69.23-103.27,83-130.36C190.89,273.05,191.81,247.11,163,267.76Z" style="fill:#f7a9a0"></path><path d="M163,267.76c-29.37,21-120,107.59-116.82,138.23,2.39,22.78,26.68,31.19,48.69,23.2,19.16-6.95,69.23-103.27,83-130.36C190.89,273.05,191.81,247.11,163,267.76Z" style="fill:#FFC727"></path><path d="M186.15,266.08l-10.64-5.14C181.73,259.06,185.07,261.33,186.15,266.08Zm-23.93,2.21c-.94.68-1.95,1.44-3,2.25l25.16,12.13c.33-1.11.63-2.21.88-3.27Zm-13.67,10.87-2.76,2.35,32.76,15.81c.5-1,1-2,1.41-3ZM135.7,290.42,133,292.83l38.34,18.5c.53-1,1-2,1.54-3Zm-12.39,11.47-2.57,2.46,43.33,20.91,1.56-2.95Zm-12,11.67-2.49,2.5,47.79,23.06c.53-1,1.07-2,1.59-2.93ZM99.7,325.42,97.28,328l51.73,25c.55-1,1.09-2,1.63-2.92Zm-11.21,12L86.17,340l55.05,26.57c.56-1,1.12-1.93,1.67-2.9ZM77.75,349.74c-.75.88-1.48,1.76-2.21,2.63l57.66,27.82,1.73-2.86ZM67.61,362.31c-.7.91-1.38,1.81-2,2.71l59.28,28.6,1.81-2.82Zm-9.29,13c-.63.95-1.23,1.89-1.82,2.82L116,406.82c.63-.9,1.28-1.83,1.92-2.77Zm-7.88,13.65c-.49,1-.95,2.06-1.36,3.05l57.12,27.56c.72-.83,1.46-1.71,2.21-2.64Zm-4.39,15.34a13.62,13.62,0,0,0,.08,1.71c.08.74.18,1.47.31,2.18l45.53,22c1-.28,1.9-.6,2.85-.94a11.69,11.69,0,0,0,1.47-.67Z" style="fill:#030402;opacity:0.1"></path><path d="M174.91,306.49c.08-.19-.19-.35-.29-.16-3.53,6.84-7.12,13.64-10.84,20.38s-7.31,13.55-11.05,20.29q-11.16,20.12-23.5,39.55c-2.29,3.63-4.65,7.22-7,10.82s-4.86,7.19-7.13,10.89c-.06.1.1.22.18.12,2.47-2.95,4.72-6.12,7-9.23s4.46-6.21,6.62-9.37c4.31-6.32,8.56-12.69,12.61-19.18s8.08-13.25,11.92-20c3.12-5.47,6.17-11,9-16.62.6-.75,1.2-1.5,1.78-2.27,1.18-1.56,2.33-3.14,3.49-4.72,2.26-3.1,4.3-6.35,6.49-9.5.13-.2-.2-.44-.35-.25-2.27,3.09-4.69,6.07-6.89,9.22-.92,1.31-1.84,2.63-2.74,3.95l0-.05C168,322.53,171.56,314.54,174.91,306.49Z" style="fill:#263238"></path><path d="M194.12,252.78c-18.49,3.6-14.81,27.69-8.39,40.49,7.23,14.43,22.36,25.67,28.17,24.27s3.77-18.75,3.77-18.75,8,14.27,12,13.77,4.77-23.56-3-37.1C218.3,260.72,204.83,250.7,194.12,252.78Z" style="fill:#FFC727"></path><path d="M194.12,252.78c-18.49,3.6-14.81,27.69-8.39,40.49,7.23,14.43,22.36,25.67,28.17,24.27s3.77-18.75,3.77-18.75,8,14.27,12,13.77,4.77-23.56-3-37.1C218.3,260.72,204.83,250.7,194.12,252.78Z" style="fill:#fff;opacity:0.7000000000000001"></path><path d="M187.37,267.26c1.52,3.27,14,28.39,30,29.74,5.22.43,8.84-27.94,8.84-27.94l.75-2,10.42-28.47-36.13-30.22S184.77,261.69,187.37,267.26Z" style="fill:#f7a9a0"></path><path d="M197,222.83a107,107,0,0,0,1.89,10.78c5.5,24.12,18.54,32.15,27.64,34.78L227,267l10.43-28.45-36.14-30.22S199.36,214.48,197,222.83Z" style="fill:#263238"></path><path d="M286,201.84c-4.29,54.65-37.51,58.25-49.29,57.32-10.7-.86-47-5.12-48.39-59.92s25.39-70.08,50-69.43S290.34,147.19,286,201.84Z" style="fill:#f7a9a0"></path><path d="M276.8,197.46a35.71,35.71,0,0,1-3.59-1.56c-1.37-.61-2.52-1-3.35-2.28a2,2,0,0,1,.49-2.4c1.51-1.16,3.38-.83,5-.16a7.27,7.27,0,0,1,4,3.46C280.32,196.17,278.47,198,276.8,197.46Z" style="fill:#263238"></path><path d="M240.34,190.16a36.41,36.41,0,0,0,3.91,0c1.5,0,2.7.11,4-.79a2,2,0,0,0,.49-2.4c-.94-1.66-2.78-2.09-4.59-2.13a7.33,7.33,0,0,0-5,1.62A2.15,2.15,0,0,0,240.34,190.16Z" style="fill:#263238"></path><path d="M243.18,199c-6-1.56-8.69,10.58-3.12,12S248.21,200.3,243.18,199Z" style="fill:#263238"></path><path d="M240.65,199.11c-1.21.46-2.52,1.44-3.82,1.28-1.51-.18-2.35-1.69-3.05-3.13-.07-.15-.2-.06-.24.1-.54,2.32-.17,4.9,2.24,5.8,2.21.81,4.29-.89,5.39-3.1C241.37,199.65,241.14,198.93,240.65,199.11Z" style="fill:#263238"></path><path d="M270.89,204c6.15.92,3.85,13.14-1.84,12.28S265.75,203.24,270.89,204Z" style="fill:#263238"></path><path d="M273.29,205.29c.84.83,1.58,2.18,2.72,2.48,1.32.33,2.55-.8,3.65-1.91.11-.11.19,0,.16.17-.37,2.35-1.6,4.63-3.93,4.66-2.12,0-3.25-2.26-3.37-4.69C272.5,205.55,273,205,273.29,205.29Z" style="fill:#263238"></path><path d="M240.75,233c.65,1.11,1.22,2.55,2.54,3a10.3,10.3,0,0,0,4.25.13.14.14,0,0,1,.11.24,5.19,5.19,0,0,1-5.26.75c-1.61-.75-2-2.42-2-4.07C240.34,232.87,240.65,232.86,240.75,233Z" style="fill:#263238"></path><path d="M259.34,222.67s-.39,5.8-.94,8.45c-.06.25-.72.23-1.64.1,0,0-.07,0-.1,0a12.88,12.88,0,0,1-11.28-7.26.28.28,0,0,1,.47-.29c3,3.3,6.7,4.77,10.84,5.7.34-.7.37-10,.77-9.89,1.7.67,4.65,2.1,5.75,2.62.34-3.75.78-14.47,1.41-21.31,0-.43.71-.43.73,0,.53,10.56.65,16.07.11,24.18C265.42,225.55,260.31,223.35,259.34,222.67Z" style="fill:#263238"></path><path d="M257,229.13a15.74,15.74,0,0,1-6.73,4.31,7.11,7.11,0,0,1-4.32-.12c-3-1.1-2.85-4-2.06-6.34a16.67,16.67,0,0,1,1.73-3.61A20.45,20.45,0,0,0,257,229.13Z" style="fill:#263238"></path><path d="M250.24,233.44a7.11,7.11,0,0,1-4.32-.12c-3-1.1-2.85-4-2.06-6.34C247.16,227.62,250.25,230.18,250.24,233.44Z" style="fill:#ff9bbc"></path><path d="M191.79,200.31c9.68,3.42,17.18-18.83,17.18-18.83s44,2,55.06-31.75c0,0,2.5,23.59,22.55,38.37,0,0,11.68-41.59-21.69-52,0,0-39.62-21.54-67,3.47S185.29,198,191.79,200.31Z" style="fill:#263238"></path><path d="M264.74,147.21a38.4,38.4,0,0,1-5.32,15.35,40,40,0,0,1-11,12.21,34.43,34.43,0,0,1-3.48,2.25l-1.77,1.07c-.62.31-1.25.58-1.89.86-1.26.54-2.51,1.13-3.79,1.62s-2.64.78-4,1.14c-.66.18-1.32.39-2,.54l-2,.31-4,.63c-2.72.16-5.44.17-8.13.15,2.67-.53,5.34-.79,8-1.34l3.88-.95,1.94-.47c.63-.2,1.24-.45,1.87-.68,1.24-.46,2.47-.92,3.72-1.34s2.37-1.14,3.56-1.7L242,176l1.66-1a32.51,32.51,0,0,0,3.27-2.17,46,46,0,0,0,10.9-11.24,47.73,47.73,0,0,0,4-6.87A46.34,46.34,0,0,0,264.74,147.21Z" style="fill:#263238"></path><g style="opacity:0.1"><path d="M210.85,212.89a.84.84,0,1,1-.63-1A.85.85,0,0,1,210.85,212.89Z"></path><path d="M225.3,213.81a.84.84,0,1,1-.63-1A.84.84,0,0,1,225.3,213.81Z"></path><path d="M234.9,215.72a.85.85,0,0,1-1.65-.38.85.85,0,0,1,1.65.38Z"></path><path d="M237.4,223.34a.84.84,0,1,1-.63-1A.85.85,0,0,1,237.4,223.34Z"></path><path d="M216.67,220.4a.84.84,0,1,1-.63-1A.84.84,0,0,1,216.67,220.4Z"></path><path d="M227.19,223.68a.85.85,0,1,1-.64-1A.84.84,0,0,1,227.19,223.68Z"></path><path d="M218.67,207.92a.85.85,0,0,1-1.65-.37.85.85,0,1,1,1.65.37Z"></path><path d="M278.4,220.43a.85.85,0,0,1-1.65-.38.85.85,0,1,1,1.65.38Z"></path><path d="M282.53,216.85a.84.84,0,1,1-.63-1A.84.84,0,0,1,282.53,216.85Z"></path><path d="M273.66,226.4A.85.85,0,0,1,272,226a.85.85,0,1,1,1.65.38Z"></path><path d="M279.87,226a.84.84,0,0,1-1,.64.85.85,0,0,1,.38-1.65A.84.84,0,0,1,279.87,226Z"></path><path d="M270.52,216.91a.85.85,0,0,1-1.65-.38.85.85,0,1,1,1.65.38Z"></path></g><path d="M199.16,200.94s-9.28-19.44-17.91-16.41-3.66,29.79,5,34.79,13.48-3,13.48-3Z" style="fill:#f7a9a0"></path><path d="M182.87,192.17c-.15,0-.21.16-.09.24,6.06,3.71,8.48,10.31,9.84,17-1.54-2.73-4-4.49-7.56-2.73-.19.1-.07.39.12.38,2.76-.12,4.61.66,6,3.09a28.46,28.46,0,0,1,2.2,5.67c.21.64,1.31.5,1.2-.21l0-.16C196.14,207.16,191.63,194.48,182.87,192.17Z" style="fill:#263238"></path><path d="M63.75,430.36C38,422,48.69,391.77,64.86,382c38-22.89,73.94-35.28,114-37.27,12.88-.64,50.81,61.35,38.6,67.77C195.76,423.91,116,447.25,63.75,430.36Z" style="fill:#f7a9a0"></path><path d="M155.89,347.5c5.31-2.29,35.38-23.15,45.89-26s49.15,1.17,58,4.33,34.91,25.62,37.92,33.41c2.41,6.25-9.73,13-26.23,3.78-15.42-8.64-18.69-11.46-23.63-12.83S224,353.7,222.13,361c-1.1,4.32,5.11,15.44,12.91,17.45s15.38-3.07,26.21-3.15,20.37,6.54,19.58,10.55c-1.32,6.64-6.4,5-20.81,10.81-9.27,3.74-20.82,11.74-37.75,19.55-18,8.31-47.41,4.6-47.41,4.6Z" style="fill:#f7a9a0"></path><path d="M204.62,319.09c13-2.82,40.19-4.08,57.86,3.88,11.94,5.38,27,49.69,20.45,54.48s-11.65-.29-18.25-8.74c-2.4-3.08-11.62-22.82-17.13-22.28-7.93.79-27.43,11.14-27.43,11.14Z" style="fill:#f7a9a0"></path><path d="M284.43,374.5c2.45-9.76-2.34-21.1-7.77-31.73a.14.14,0,0,0-.26.12c1.38,2.7,8.38,21.86,7.84,31.62C284.23,374.62,284.4,374.6,284.43,374.5Z" style="fill:#263238"></path><path d="M204.62,319.09c13-2.82,40.19-4.08,57.86,3.88,11.94,5.38,16.77,47.48,10.19,52.28s-14.3-2.09-19.52-13c-1.68-3.53-4.21-18.44-9.73-17.9-7.93.79-27.45,2.91-27.45,2.91Z" style="fill:#f7a9a0"></path><path d="M258.35,370.59c-2.88-3.46-4.45-8.81-5.59-13.1-1-3.74-1.73-8.05-4.25-11.12a8.13,8.13,0,0,0-4.26-2.89,16.08,16.08,0,0,0-5.49.13c-2.08.24-4.15.6-6.22,1s-2.78.55-4.85,1c-.86.18-.65.75.3.58a56.87,56.87,0,0,1,10.42-.85,18.76,18.76,0,0,1,5.45.27,7,7,0,0,1,4.06,3.59c1.82,3.44,2.39,7.47,3.91,11.06s3.35,8,6.3,10.6C258.27,371,258.46,370.73,258.35,370.59Z" style="fill:#263238"></path><path d="M277.26,368.1c1-4.61.4-9.71-.35-14.32a94.68,94.68,0,0,0-3.62-14.34c-.79-2.4-1.64-4.79-2.56-7.15s-1.6-4.76-3.24-6.58c-4.46-5-12.56-5.82-15.48-6.51-.17,0-.28.22-.09.27,2.38.6,10.14,2.45,13,5.41a17.72,17.72,0,0,1,3.62,6.58c.75,2.06,1.51,4.12,2.21,6.2,2.86,8.47,5.28,17.71,4.92,26.72-.19,5-1.87,10.12-6.86,12.11-.17.07-.08.32.09.3C273.31,376.36,276.39,372.09,277.26,368.1Z" style="fill:#263238"></path><path d="M191.53,325.83c5.38-2.51,22.6-16.86,30.13-19.45s37.22-8.61,43.64-2.16c8.06,8.12-14,16.65-23.93,19.49s-18.13,14.64-18.13,14.64Z" style="fill:#f7a9a0"></path><path d="M256.6,318c-3.32.76-6.64,1.89-9.87,3a66.48,66.48,0,0,0-9.2,3.34c-2.89,1.47-9.82,8.16-10.73,9.47-4.2,6-12.18,19.33-21.48,31a70.72,70.72,0,0,1-12.18,11.75c-1.14.85-1.65,1.84.15.74,17-10.33,32.09-38.22,35.25-42.31,2-2.57,7.36-7.5,10.25-9,5.8-3,12.16-4.67,18-7.59C257,318.3,256.84,318,256.6,318Z" style="fill:#263238"></path><path d="M146.64,344l24.22,90.56S66.42,456.19,50.3,420.28c-5.44-12.11-3.06-33.66,22.2-49S146.64,344,146.64,344Z" style="fill:#FFC727"></path><path d="M160.82,436.34l-3.31.53-24.22-89.29,3.2-.91Zm-39.41-85.2c-1,.32-2.1.66-3.17,1L141.8,439l3.34-.4Zm-14.94,5-3.14,1.13,22.56,83.15,3.39-.23Zm-14.75,5.68c-1,.43-2.07.88-3.09,1.32L109.76,441c1.15,0,2.29,0,3.44,0Zm-14.45,6.78c-1,.55-2,1.11-3,1.66l19,70.15c1.17.1,2.35.19,3.53.26Zm-13.79,9.22q-1.45,1.26-2.76,2.55l15.57,57.39c1.2.29,2.42.56,3.67.81Zm-12.09,15.5a36.6,36.6,0,0,0-2,5.29l8.39,30.94A33.4,33.4,0,0,0,62,432.33Z" style="fill:#030402;opacity:0.1"></path><path d="M130.53,356.88c1.62,4.81,2.87,9.77,4.22,14.66s2.67,9.81,3.92,14.73c2.5,9.85,5,19.71,7.28,29.6.63,2.7,1.26,5.41,1.86,8.12.63,2.91.92,5.89,1.58,8.79a.17.17,0,1,1-.33.07c-.66-2.4-1.63-4.73-2.33-7.13s-1.41-5-2.07-7.48q-1.93-7.38-3.83-14.76c-2.51-9.84-5-19.7-7.18-29.61-1.25-5.6-2.66-11.22-3.6-16.88A.25.25,0,1,1,130.53,356.88Z" style="fill:#263238"></path><path d="M169.26,428.53q1,3.09,2,6.21l-.33.08a305.08,305.08,0,0,1-40.15,5.82c-13.49,1-27.13,1.28-40.56-.54,6.77.18,13.5.08,20.23-.15,20.22-.87,40.3-3.11,60.38-5.71l-.23.36c-.46-2-.91-4-1.32-6.07Z" style="fill:#263238"></path><path d="M147.85,348.5c-.46-1.49-.95-3-1.39-4.48l.23.14-24.87,8.29c-10.34,3.48-20.65,7-30.82,11s-19.88,8.85-28.17,15.91a51.51,51.51,0,0,0-8.95,9.47,46.65,46.65,0,0,1,8.32-10.17c8-7.62,17.84-13,28.09-17s20.57-7.53,31-10.76c8.43-2.57,16.92-5,25.47-7.11.38,1.58.72,3.18,1.07,4.76Z" style="fill:#263238"></path><path d="M65.28,373.46a25.48,25.48,0,0,1,15.16-6.52,98,98,0,0,0-15.16,6.52Z" style="fill:#263238"></path></g><g id="freepik--origami-bird-1--inject-149"><polygon points="268.25 371.16 255.15 392.78 272.26 373.91 286.21 375.93 268.25 371.16" style="fill:#FFC727"></polygon><polygon points="268.25 371.16 255.15 392.78 272.26 373.91 286.21 375.93 268.25 371.16" style="opacity:0.5"></polygon><polygon points="282.89 436.72 337.97 413.25 241.74 401.12 282.89 436.72" style="fill:#FFC727"></polygon><polygon points="282.89 436.72 337.97 413.25 241.74 401.12 282.89 436.72" style="opacity:0.5"></polygon><polygon points="293.33 461.16 282.89 436.72 337.97 413.25 338.18 441.33 293.33 461.16" style="fill:#FFC727"></polygon><polygon points="293.33 461.16 282.89 436.72 337.97 413.25 338.18 441.33 293.33 461.16" style="opacity:0.4"></polygon><polygon points="293.33 461.16 272.26 373.91 286.21 375.93 319.02 462.42 293.33 461.16" style="fill:#FFC727"></polygon><polygon points="293.33 461.16 272.26 373.91 286.21 375.93 319.02 462.42 293.33 461.16" style="opacity:0.2"></polygon><polygon points="305.68 469.26 272.26 373.91 286.21 375.93 331.35 444.35 305.68 469.26" style="fill:#FFC727"></polygon><polygon points="305.68 469.26 272.26 373.91 286.21 375.93 331.35 444.35 305.68 469.26" style="opacity:0.1"></polygon><polygon points="272.26 373.91 274.34 379.84 255.15 392.78 272.26 373.91" style="fill:#FFC727"></polygon><polygon points="272.26 373.91 274.34 379.84 255.15 392.78 272.26 373.91" style="opacity:0.2"></polygon><polygon points="314.67 439.83 315.19 419.85 349.44 400.68 356.62 421.34 314.67 439.83" style="fill:#FFC727"></polygon><polygon points="314.67 439.83 315.19 419.85 349.44 400.68 356.62 421.34 314.67 439.83" style="opacity:0.2"></polygon><polygon points="305.68 469.26 310.38 441.73 336.61 449.87 335.69 461.48 305.68 469.26" style="fill:#FFC727"></polygon><polygon points="305.68 469.26 310.38 441.73 336.61 449.87 335.69 461.48 305.68 469.26" style="opacity:0.4"></polygon><polygon points="335.69 461.48 354.3 461.61 355.7 450.36 336.61 449.87 335.69 461.48" style="fill:#FFC727"></polygon><polygon points="335.69 461.48 354.3 461.61 355.7 450.36 336.61 449.87 335.69 461.48" style="opacity:0.5"></polygon><polygon points="310.38 441.73 356.62 421.34 414.24 474.35 310.38 441.73" style="fill:#FFC727"></polygon><polygon points="356.62 421.34 349.44 400.68 390.76 318.32 356.62 421.34" style="fill:#FFC727"></polygon><polygon points="356.62 421.34 349.44 400.68 390.76 318.32 356.62 421.34" style="opacity:0.1"></polygon></g></svg>