<svg xmlns="http://www.w3.org/2000/svg" viewBox="0 0 750 500"><g id="freepik--background-complete--inject-200"><rect x="625.06" y="386.37" width="36.01" height="11.19" transform="translate(1286.14 783.94) rotate(180)" style="fill:#ebebeb"></rect><path d="M645.15,411.67c6-.1,21.31-.35,27.09-.41l8.92,0-.46.45,0-11.19.5.5c-6,0-21.23-.07-27-.15l-9-.11.23-.24-.23,11.19Zm0,0-.23-11.19v-.23h.24c4.49-.06,13.52-.16,18-.2l18-.07h.5v.5l0,11.19v.46h-.46c-10.08,0-25.82-.29-36-.46Z" style="fill:#ebebeb"></path><rect x="456.95" y="245.31" width="36.01" height="11.19" transform="translate(949.92 501.82) rotate(180)" style="fill:#ebebeb"></rect><path d="M477,270.61c6-.1,21.32-.35,27.09-.41l8.92,0-.46.45,0-11.19.5.5c-6,0-21.23-.07-27-.15l-9-.11.24-.24L477,270.61Zm0,0-.23-11.19v-.23H477c4.49-.06,13.52-.16,18-.2l18-.07h.5v.5l0,11.19v.46h-.46c-10.08,0-25.82-.3-36-.46Z" style="fill:#ebebeb"></path><path d="M278.33,158.77c6-.1,21.32-.35,27.09-.42l8.92,0-.45.46-.05-11.19.5.5c-6,0-21.23-.07-27-.16l-9-.11.24-.23-.24,11.19Zm0,0-.23-11.19v-.23h.23c4.5-.06,13.52-.17,18-.2l18-.07h.51v.5l0,11.19v.46h-.46c-10.08,0-25.81-.3-36-.46Z" style="fill:#ebebeb"></path><path d="M298.42,172.88c6-.1,21.32-.35,27.09-.42l8.92,0-.46.46,0-11.19.5.5c-6,0-21.23-.07-27-.16l-9-.11.24-.23-.24,11.19Zm0,0-.23-11.19v-.23h.24c4.49-.06,13.52-.17,18-.2l18-.07h.5v.5l0,11.19v.46h-.46c-10.08,0-25.82-.3-36-.46Z" style="fill:#ebebeb"></path><rect x="318.43" y="147.58" width="36.01" height="11.19" transform="translate(672.87 306.35) rotate(180)" style="fill:#ebebeb"></rect><rect x="68.84" y="400.48" width="36.01" height="11.19" transform="translate(173.69 812.16) rotate(180)" style="fill:#ebebeb"></rect><rect x="88.93" y="44.93" width="36.01" height="11.19" transform="translate(213.86 101.06) rotate(180)" style="fill:#ebebeb"></rect><path d="M68.84,70.23c6-.1,21.31-.35,27.09-.41l8.92,0-.46.45,0-11.19.5.5c-6,0-21.23-.07-27-.15l-9-.11.23-.24-.23,11.19Zm0,0L68.61,59v-.23h.24c4.49-.06,13.51-.16,18-.2l18-.07h.5V59l0,11.19v.46h-.45c-10.08,0-25.82-.3-36-.46Z" style="fill:#ebebeb"></path><path d="M625.06,56.12c6-.1,21.32-.35,27.09-.41l8.92,0-.45.45,0-11.19.5.5c-6,0-21.23-.07-27-.15l-9-.11.24-.24-.24,11.19Zm0,0-.23-11.19V44.7h.23c4.5-.06,13.52-.16,18-.2l18-.07h.5v.5l0,11.19v.46h-.46c-10.08,0-25.81-.3-36-.46Z" style="fill:#ebebeb"></path><path d="M379.07,373.93c6-.1,21.31-.35,27.08-.42l8.93,0-.46.46,0-11.19.5.5c-6,0-21.23-.08-27-.16l-9-.11.23-.23-.23,11.19Zm0,0-.24-11.19v-.23h.24c4.49-.06,13.51-.16,18-.19l18-.07h.5v.5l-.05,11.19v.46h-.45c-10.08,0-25.82-.29-36-.45Z" style="fill:#ebebeb"></path><rect x="79.02" y="43.47" width="155.27" height="238.09" transform="translate(313.3 325.03) rotate(180)" style="fill:#dbdbdb"></rect><rect x="160.26" y="53.01" width="65.57" height="105.9" transform="translate(386.09 211.91) rotate(180)" style="fill:#fff"></rect><rect x="87.48" y="53.01" width="65.57" height="105.9" transform="translate(240.52 211.91) rotate(180)" style="fill:#fff"></rect><rect x="160.26" y="166.12" width="65.57" height="105.9" transform="translate(386.09 438.14) rotate(180)" style="fill:#fff"></rect><rect x="87.48" y="166.12" width="65.57" height="105.9" transform="translate(240.52 438.14) rotate(180)" style="fill:#fff"></rect><rect x="197.51" y="43.47" width="36.78" height="323.41" transform="translate(431.8 410.35) rotate(180)" style="fill:#ebebeb"></rect><polygon points="204.49 59.66 204.2 96.49 204.1 133.32 203.9 206.98 204.1 280.64 204.2 317.47 204.49 337.09 204.77 317.47 204.87 280.64 205.07 206.98 204.87 133.32 204.77 96.49 204.49 59.66" style="fill:#fff"></polygon><polygon points="221.37 68.2 221.09 101.09 220.93 133.97 220.79 199.75 220.92 265.51 221.09 298.4 221.37 314.08 221.66 298.4 221.82 265.51 221.96 199.75 221.82 133.97 221.66 101.09 221.37 68.2" style="fill:#fff"></polygon><polygon points="212.93 75.97 212.65 114.47 212.54 152.98 212.35 229.99 212.54 307 212.64 328.3 212.93 366.81 213.21 328.3 213.32 307 213.51 229.99 213.32 152.98 213.21 114.47 212.93 75.97" style="fill:#fff"></polygon><polygon points="227.65 61.6 227.37 101.91 227.27 142.21 227.07 222.81 227.26 303.42 227.37 326.51 227.65 366.81 227.94 326.51 228.04 303.42 228.24 222.81 228.04 142.21 227.94 101.91 227.65 61.6" style="fill:#fff"></polygon><rect x="79.02" y="43.47" width="36.78" height="323.41" style="fill:#ebebeb"></rect><polygon points="108.82 59.66 108.54 96.49 108.43 133.32 108.24 206.98 108.43 280.64 108.53 317.47 108.82 337.09 109.11 317.47 109.21 280.64 109.4 206.98 109.21 133.32 109.1 96.49 108.82 59.66" style="fill:#fff"></polygon><polygon points="91.93 68.2 91.65 101.09 91.48 133.97 91.35 199.75 91.48 265.51 91.65 298.4 91.93 314.08 92.22 298.4 92.38 265.51 92.52 199.75 92.38 133.97 92.22 101.09 91.93 68.2" style="fill:#fff"></polygon><polygon points="100.38 75.97 100.09 114.47 99.99 152.98 99.79 229.99 99.99 307 100.09 328.3 100.38 366.81 100.66 328.3 100.76 307 100.96 229.99 100.76 152.98 100.66 114.47 100.38 75.97" style="fill:#fff"></polygon><polygon points="85.65 61.6 85.37 101.91 85.27 142.21 85.07 222.81 85.26 303.42 85.37 326.51 85.65 366.81 85.94 326.51 86.04 303.42 86.23 222.81 86.04 142.21 85.94 101.91 85.65 61.6" style="fill:#fff"></polygon><rect x="515.71" y="43.47" width="155.27" height="238.09" transform="translate(1186.7 325.03) rotate(180)" style="fill:#dbdbdb"></rect><rect x="596.95" y="53.01" width="65.57" height="105.9" transform="translate(1259.48 211.91) rotate(180)" style="fill:#fff"></rect><rect x="524.17" y="53.01" width="65.57" height="105.9" transform="translate(1113.91 211.91) rotate(180)" style="fill:#fff"></rect><rect x="596.95" y="166.12" width="65.57" height="105.9" transform="translate(1259.48 438.14) rotate(180)" style="fill:#fff"></rect><rect x="524.17" y="166.12" width="65.57" height="105.9" transform="translate(1113.91 438.14) rotate(180)" style="fill:#fff"></rect><rect x="634.21" y="43.47" width="36.78" height="323.41" transform="translate(1305.19 410.35) rotate(180)" style="fill:#ebebeb"></rect><polygon points="641.18 59.66 640.9 96.49 640.79 133.32 640.6 206.98 640.79 280.64 640.89 317.47 641.18 337.09 641.47 317.47 641.57 280.64 641.76 206.98 641.57 133.32 641.46 96.49 641.18 59.66" style="fill:#fff"></polygon><polygon points="658.07 68.2 657.78 101.09 657.62 133.97 657.49 199.75 657.62 265.51 657.78 298.4 658.07 314.08 658.35 298.4 658.52 265.51 658.65 199.75 658.51 133.97 658.35 101.09 658.07 68.2" style="fill:#fff"></polygon><polygon points="649.62 75.97 649.34 114.47 649.24 152.98 649.04 229.99 649.24 307 649.34 328.3 649.62 366.81 649.91 328.3 650.01 307 650.21 229.99 650.01 152.98 649.91 114.47 649.62 75.97" style="fill:#fff"></polygon><polygon points="664.35 61.6 664.07 101.91 663.96 142.21 663.77 222.81 663.96 303.42 664.06 326.51 664.35 366.81 664.63 326.51 664.74 303.42 664.93 222.81 664.74 142.21 664.63 101.91 664.35 61.6" style="fill:#fff"></polygon><rect x="515.71" y="43.47" width="36.78" height="323.41" style="fill:#ebebeb"></rect><polygon points="545.51 59.66 545.23 96.49 545.13 133.32 544.93 206.98 545.13 280.64 545.23 317.47 545.51 337.09 545.8 317.47 545.9 280.64 546.1 206.98 545.9 133.32 545.8 96.49 545.51 59.66" style="fill:#fff"></polygon><polygon points="528.63 68.2 528.34 101.09 528.18 133.97 528.04 199.75 528.18 265.51 528.34 298.4 528.63 314.08 528.91 298.4 529.08 265.51 529.21 199.75 529.07 133.97 528.91 101.09 528.63 68.2" style="fill:#fff"></polygon><polygon points="537.07 75.97 536.79 114.47 536.68 152.98 536.49 229.99 536.68 307 536.78 328.3 537.07 366.81 537.36 328.3 537.46 307 537.65 229.99 537.46 152.98 537.36 114.47 537.07 75.97" style="fill:#fff"></polygon><polygon points="522.35 61.6 522.06 101.91 521.96 142.21 521.76 222.81 521.96 303.42 522.06 326.51 522.35 366.81 522.63 326.51 522.74 303.42 522.93 222.81 522.73 142.21 522.63 101.91 522.35 61.6" style="fill:#fff"></polygon></g><g id="freepik--Table--inject-200"><rect x="338.77" y="306.68" width="153.09" height="8.22" style="fill:#455a64"></rect><rect x="350.77" y="314.9" width="129.08" height="15.83" style="fill:#455a64"></rect><polygon points="479.85 318.03 350.77 319.56 350.77 314.9 479.85 314.9 479.85 318.03" style="fill:#263238"></polygon><path d="M463.22,327.92H367.4v-10.2h95.82Zm-94.82-1h93.82v-8.2H368.4Z" style="fill:#37474f"></path><rect x="402.72" y="321.49" width="25.18" height="2.66" style="fill:#37474f"></rect><polygon points="349.88 461.19 346.22 461.19 356.88 330.74 366.22 330.74 349.88 461.19" style="fill:#455a64"></polygon><polygon points="366.22 330.74 365.13 339.47 356.17 339.47 356.88 330.74 366.22 330.74" style="fill:#263238"></polygon><polygon points="480.75 461.19 484.41 461.19 473.75 330.74 464.4 330.74 480.75 461.19" style="fill:#455a64"></polygon><polygon points="464.4 330.74 465.5 339.47 474.46 339.47 473.75 330.74 464.4 330.74" style="fill:#263238"></polygon><rect x="402.51" y="246.17" width="25.61" height="60.51" style="fill:#FFC727"></rect><rect x="402.51" y="246.17" width="25.61" height="60.51" style="fill:#fff;opacity:0.30000000000000004"></rect><g style="opacity:0.2"><path d="M404.08,275.74a.65.65,0,0,1-.65.65.66.66,0,1,1,.65-.65Z"></path><path d="M406.46,275.74a.66.66,0,1,1-.66-.66A.65.65,0,0,1,406.46,275.74Z"></path><path d="M408.84,275.74a.66.66,0,0,1-.66.65.66.66,0,0,1,0-1.31A.66.66,0,0,1,408.84,275.74Z"></path><path d="M411.21,275.74a.65.65,0,0,1-.65.65.66.66,0,1,1,.65-.65Z"></path><path d="M413.59,275.74a.66.66,0,1,1-.65-.66A.65.65,0,0,1,413.59,275.74Z"></path><path d="M416,275.74a.66.66,0,0,1-.66.65.66.66,0,0,1,0-1.31A.66.66,0,0,1,416,275.74Z"></path><path d="M418.34,275.74a.65.65,0,0,1-.65.65.66.66,0,1,1,.65-.65Z"></path><path d="M420.72,275.74a.66.66,0,1,1-.65-.66A.65.65,0,0,1,420.72,275.74Z"></path><path d="M423.1,275.74a.66.66,0,0,1-.66.65.66.66,0,0,1,0-1.31A.66.66,0,0,1,423.1,275.74Z"></path><path d="M425.48,275.74a.66.66,0,1,1-.66-.66A.66.66,0,0,1,425.48,275.74Z"></path><path d="M427.85,275.74a.66.66,0,1,1-.65-.66A.65.65,0,0,1,427.85,275.74Z"></path><path d="M404.08,277.79a.65.65,0,0,1-.65.65.66.66,0,1,1,.65-.65Z"></path><path d="M406.46,277.79a.66.66,0,1,1-.66-.66A.65.65,0,0,1,406.46,277.79Z"></path><path d="M408.84,277.79a.66.66,0,0,1-.66.65.66.66,0,0,1,0-1.31A.66.66,0,0,1,408.84,277.79Z"></path><path d="M411.21,277.79a.65.65,0,0,1-.65.65.66.66,0,1,1,.65-.65Z"></path><path d="M413.59,277.79a.66.66,0,1,1-.65-.66A.65.65,0,0,1,413.59,277.79Z"></path><path d="M416,277.79a.66.66,0,0,1-.66.65.66.66,0,0,1,0-1.31A.66.66,0,0,1,416,277.79Z"></path><path d="M418.34,277.79a.65.65,0,0,1-.65.65.66.66,0,1,1,.65-.65Z"></path><path d="M420.72,277.79a.66.66,0,1,1-.65-.66A.65.65,0,0,1,420.72,277.79Z"></path><path d="M423.1,277.79a.66.66,0,0,1-.66.65.66.66,0,0,1,0-1.31A.66.66,0,0,1,423.1,277.79Z"></path><path d="M425.48,277.79a.66.66,0,1,1-.66-.66A.66.66,0,0,1,425.48,277.79Z"></path><path d="M427.85,277.79a.66.66,0,1,1-.65-.66A.65.65,0,0,1,427.85,277.79Z"></path><path d="M404.08,279.84a.65.65,0,0,1-.65.65.66.66,0,1,1,.65-.65Z"></path><circle cx="405.8" cy="279.84" r="0.66"></circle><path d="M408.84,279.84a.66.66,0,0,1-.66.65.66.66,0,0,1,0-1.31A.66.66,0,0,1,408.84,279.84Z"></path><circle cx="410.56" cy="279.84" r="0.66"></circle><path d="M413.59,279.84a.66.66,0,1,1-.65-.66A.65.65,0,0,1,413.59,279.84Z"></path><circle cx="415.31" cy="279.84" r="0.66"></circle><path d="M418.34,279.84a.65.65,0,0,1-.65.65.66.66,0,1,1,.65-.65Z"></path><circle cx="420.07" cy="279.84" r="0.66"></circle><path d="M423.1,279.84a.66.66,0,0,1-.66.65.66.66,0,0,1,0-1.31A.66.66,0,0,1,423.1,279.84Z"></path><path d="M425.48,279.84a.66.66,0,1,1-.66-.66A.66.66,0,0,1,425.48,279.84Z"></path><path d="M427.85,279.84a.66.66,0,1,1-.65-.66A.65.65,0,0,1,427.85,279.84Z"></path><path d="M404.08,281.89a.65.65,0,0,1-.65.65.66.66,0,1,1,.65-.65Z"></path><path d="M406.46,281.89a.66.66,0,1,1-.66-.66A.65.65,0,0,1,406.46,281.89Z"></path><path d="M408.84,281.89a.66.66,0,0,1-.66.65.66.66,0,0,1,0-1.31A.66.66,0,0,1,408.84,281.89Z"></path><path d="M411.21,281.89a.65.65,0,0,1-.65.65.66.66,0,1,1,.65-.65Z"></path><path d="M413.59,281.89a.66.66,0,1,1-.65-.66A.65.65,0,0,1,413.59,281.89Z"></path><path d="M416,281.89a.66.66,0,0,1-.66.65.66.66,0,0,1,0-1.31A.66.66,0,0,1,416,281.89Z"></path><path d="M418.34,281.89a.65.65,0,0,1-.65.65.66.66,0,1,1,.65-.65Z"></path><path d="M420.72,281.89a.66.66,0,1,1-.65-.66A.65.65,0,0,1,420.72,281.89Z"></path><path d="M423.1,281.89a.66.66,0,0,1-.66.65.66.66,0,0,1,0-1.31A.66.66,0,0,1,423.1,281.89Z"></path><path d="M425.48,281.89a.66.66,0,1,1-.66-.66A.66.66,0,0,1,425.48,281.89Z"></path><path d="M427.85,281.89a.66.66,0,1,1-.65-.66A.65.65,0,0,1,427.85,281.89Z"></path><path d="M404.08,283.94a.65.65,0,0,1-.65.65.66.66,0,0,1-.66-.65.67.67,0,0,1,.66-.66A.66.66,0,0,1,404.08,283.94Z"></path><path d="M406.46,283.94a.66.66,0,1,1-.66-.66A.66.66,0,0,1,406.46,283.94Z"></path><path d="M408.84,283.94a.66.66,0,0,1-.66.65.65.65,0,0,1-.65-.65.66.66,0,0,1,.65-.66A.67.67,0,0,1,408.84,283.94Z"></path><path d="M411.21,283.94a.65.65,0,0,1-.65.65.66.66,0,0,1-.66-.65.67.67,0,0,1,.66-.66A.66.66,0,0,1,411.21,283.94Z"></path><path d="M413.59,283.94a.66.66,0,0,1-1.31,0,.66.66,0,1,1,1.31,0Z"></path><path d="M416,283.94a.66.66,0,0,1-.66.65.65.65,0,0,1-.65-.65.66.66,0,0,1,.65-.66A.67.67,0,0,1,416,283.94Z"></path><path d="M418.34,283.94a.65.65,0,0,1-.65.65.66.66,0,0,1-.66-.65.67.67,0,0,1,.66-.66A.66.66,0,0,1,418.34,283.94Z"></path><path d="M420.72,283.94a.66.66,0,0,1-1.31,0,.66.66,0,1,1,1.31,0Z"></path><path d="M423.1,283.94a.66.66,0,0,1-.66.65.65.65,0,0,1-.65-.65.66.66,0,0,1,.65-.66A.67.67,0,0,1,423.1,283.94Z"></path><path d="M425.48,283.94a.66.66,0,0,1-1.32,0,.66.66,0,0,1,1.32,0Z"></path><path d="M427.85,283.94a.66.66,0,0,1-1.31,0,.66.66,0,1,1,1.31,0Z"></path><path d="M404.08,286a.65.65,0,0,1-.65.65.66.66,0,0,1-.66-.65.67.67,0,0,1,.66-.66A.66.66,0,0,1,404.08,286Z"></path><circle cx="405.8" cy="285.99" r="0.66"></circle><path d="M408.84,286a.66.66,0,0,1-.66.65.65.65,0,0,1-.65-.65.66.66,0,0,1,.65-.66A.67.67,0,0,1,408.84,286Z"></path><circle cx="410.56" cy="285.99" r="0.66"></circle><path d="M413.59,286a.66.66,0,0,1-1.31,0,.66.66,0,1,1,1.31,0Z"></path><circle cx="415.31" cy="285.99" r="0.66"></circle><path d="M418.34,286a.65.65,0,0,1-.65.65A.66.66,0,0,1,417,286a.67.67,0,0,1,.66-.66A.66.66,0,0,1,418.34,286Z"></path><circle cx="420.07" cy="285.99" r="0.66"></circle><path d="M423.1,286a.66.66,0,0,1-.66.65.65.65,0,0,1-.65-.65.66.66,0,0,1,.65-.66A.67.67,0,0,1,423.1,286Z"></path><path d="M425.48,286a.66.66,0,0,1-1.32,0,.66.66,0,0,1,1.32,0Z"></path><path d="M427.85,286a.66.66,0,0,1-1.31,0,.66.66,0,1,1,1.31,0Z"></path><path d="M404.08,288a.66.66,0,0,1-.65.66.66.66,0,1,1,0-1.32A.66.66,0,0,1,404.08,288Z"></path><path d="M406.46,288a.66.66,0,1,1-.66-.66A.66.66,0,0,1,406.46,288Z"></path><path d="M408.84,288a.67.67,0,0,1-.66.66.66.66,0,0,1,0-1.32A.67.67,0,0,1,408.84,288Z"></path><path d="M411.21,288a.66.66,0,0,1-.65.66.66.66,0,1,1,0-1.32A.66.66,0,0,1,411.21,288Z"></path><path d="M413.59,288a.66.66,0,1,1-.65-.66A.66.66,0,0,1,413.59,288Z"></path><path d="M416,288a.67.67,0,0,1-.66.66.66.66,0,0,1,0-1.32A.67.67,0,0,1,416,288Z"></path><path d="M418.34,288a.66.66,0,0,1-.65.66.66.66,0,1,1,0-1.32A.66.66,0,0,1,418.34,288Z"></path><path d="M420.72,288a.66.66,0,1,1-.65-.66A.66.66,0,0,1,420.72,288Z"></path><path d="M423.1,288a.67.67,0,0,1-.66.66.66.66,0,0,1,0-1.32A.67.67,0,0,1,423.1,288Z"></path><path d="M425.48,288a.66.66,0,1,1-.66-.66A.67.67,0,0,1,425.48,288Z"></path><path d="M427.85,288a.66.66,0,1,1-.65-.66A.66.66,0,0,1,427.85,288Z"></path><path d="M404.08,290.09a.66.66,0,0,1-.65.66.66.66,0,0,1,0-1.32A.66.66,0,0,1,404.08,290.09Z"></path><path d="M406.46,290.09a.66.66,0,1,1-.66-.66A.66.66,0,0,1,406.46,290.09Z"></path><path d="M408.84,290.09a.67.67,0,0,1-.66.66.66.66,0,0,1,0-1.32A.67.67,0,0,1,408.84,290.09Z"></path><path d="M411.21,290.09a.66.66,0,0,1-.65.66.66.66,0,0,1,0-1.32A.66.66,0,0,1,411.21,290.09Z"></path><path d="M413.59,290.09a.66.66,0,1,1-.65-.66A.66.66,0,0,1,413.59,290.09Z"></path><path d="M416,290.09a.67.67,0,0,1-.66.66.66.66,0,0,1,0-1.32A.67.67,0,0,1,416,290.09Z"></path><path d="M418.34,290.09a.66.66,0,0,1-.65.66.66.66,0,0,1,0-1.32A.66.66,0,0,1,418.34,290.09Z"></path><path d="M420.72,290.09a.66.66,0,1,1-.65-.66A.66.66,0,0,1,420.72,290.09Z"></path><path d="M423.1,290.09a.67.67,0,0,1-.66.66.66.66,0,0,1,0-1.32A.67.67,0,0,1,423.1,290.09Z"></path><path d="M425.48,290.09a.66.66,0,1,1-.66-.66A.67.67,0,0,1,425.48,290.09Z"></path><path d="M427.85,290.09a.66.66,0,1,1-.65-.66A.66.66,0,0,1,427.85,290.09Z"></path><path d="M404.08,292.14a.66.66,0,0,1-.65.66.66.66,0,0,1,0-1.32A.66.66,0,0,1,404.08,292.14Z"></path><circle cx="405.8" cy="292.14" r="0.66"></circle><path d="M408.84,292.14a.67.67,0,0,1-.66.66.66.66,0,0,1,0-1.32A.67.67,0,0,1,408.84,292.14Z"></path><circle cx="410.56" cy="292.14" r="0.66"></circle><path d="M413.59,292.14a.66.66,0,1,1-.65-.66A.66.66,0,0,1,413.59,292.14Z"></path><circle cx="415.31" cy="292.14" r="0.66"></circle><path d="M418.34,292.14a.66.66,0,0,1-.65.66.66.66,0,0,1,0-1.32A.66.66,0,0,1,418.34,292.14Z"></path><circle cx="420.07" cy="292.14" r="0.66"></circle><path d="M423.1,292.14a.67.67,0,0,1-.66.66.66.66,0,0,1,0-1.32A.67.67,0,0,1,423.1,292.14Z"></path><path d="M425.48,292.14a.66.66,0,1,1-.66-.66A.67.67,0,0,1,425.48,292.14Z"></path><path d="M427.85,292.14a.66.66,0,1,1-.65-.66A.66.66,0,0,1,427.85,292.14Z"></path><path d="M404.08,294.19a.66.66,0,0,1-.65.66.67.67,0,0,1-.66-.66.66.66,0,0,1,.66-.65A.65.65,0,0,1,404.08,294.19Z"></path><circle cx="405.8" cy="294.19" r="0.66"></circle><path d="M408.84,294.19a.67.67,0,0,1-.66.66.66.66,0,0,1-.65-.66.65.65,0,0,1,.65-.65A.66.66,0,0,1,408.84,294.19Z"></path><circle cx="410.56" cy="294.19" r="0.66"></circle><path d="M413.59,294.19a.66.66,0,1,1-.65-.65A.65.65,0,0,1,413.59,294.19Z"></path><circle cx="415.31" cy="294.19" r="0.66"></circle><path d="M418.34,294.19a.66.66,0,0,1-.65.66.67.67,0,0,1-.66-.66.66.66,0,0,1,.66-.65A.65.65,0,0,1,418.34,294.19Z"></path><circle cx="420.07" cy="294.19" r="0.66"></circle><path d="M423.1,294.19a.67.67,0,0,1-.66.66.66.66,0,0,1-.65-.66.65.65,0,0,1,.65-.65A.66.66,0,0,1,423.1,294.19Z"></path><path d="M425.48,294.19a.66.66,0,1,1-1.32,0,.66.66,0,0,1,1.32,0Z"></path><path d="M427.85,294.19a.66.66,0,1,1-.65-.65A.65.65,0,0,1,427.85,294.19Z"></path></g><path d="M415.31,269.3a5.79,5.79,0,1,1,5.79-5.78A5.78,5.78,0,0,1,415.31,269.3Zm0-10.82a5,5,0,1,0,5,5A5,5,0,0,0,415.31,258.48Z" style="opacity:0.1"></path><rect x="402.51" y="249.62" width="25.61" height="1.55" style="opacity:0.1"></rect><rect x="402.51" y="301.68" width="25.61" height="1.55" style="opacity:0.1"></rect><path d="M432.92,251.53c5.69,4.32,5.45,13.69,0,18.1.26-.82.62-1.54.88-2.3a19.07,19.07,0,0,0-.88-15.8Z" style="fill:#263238"></path><path d="M437.85,249.09c6.88,5.78,6.55,17.09,0,23,.56-1.42,1.28-2.84,1.75-4.28a9.93,9.93,0,0,0,.46-1.43l.39-1.43.25-1.46a22.85,22.85,0,0,0-2.85-14.38Z" style="fill:#263238"></path><path d="M444.2,246.17c8.32,7.66,7.9,21,0,28.83.78-1.75,1.73-3.52,2.35-5.31,3.14-7.88,1.94-16.27-2.35-23.52Z" style="fill:#263238"></path><path d="M397.7,269.63c-5.69-4.31-5.45-13.68,0-18.1-.25.82-.61,1.55-.88,2.31a19.09,19.09,0,0,0,.88,15.79Z" style="fill:#263238"></path><path d="M392.78,272.07c-6.89-5.77-6.56-17.08,0-23-.57,1.43-1.29,2.85-1.76,4.29a8.8,8.8,0,0,0-.45,1.43l-.4,1.43-.25,1.45a22.84,22.84,0,0,0,2.86,14.38Z" style="fill:#263238"></path><path d="M386.43,275c-8.32-7.66-7.91-21,0-28.83-.78,1.74-1.73,3.52-2.36,5.31-3.14,7.87-1.94,16.27,2.36,23.52Z" style="fill:#263238"></path></g><g id="freepik--Shelf--inject-200"><rect x="293.46" y="117.6" width="163.09" height="8.44" style="fill:#FFC727"></rect><rect x="293.46" y="117.6" width="163.09" height="8.44" style="opacity:0.30000000000000004"></rect><polygon points="312.7 126.05 312.7 146.86 308.32 146.86 304.25 126.05 312.7 126.05" style="fill:#FFC727"></polygon><polygon points="312.7 126.05 312.7 146.86 308.32 146.86 304.25 126.05 312.7 126.05" style="opacity:0.30000000000000004"></polygon><polygon points="304.25 126.05 312.7 126.05 312.7 130.37 305.1 130.37 304.25 126.05" style="opacity:0.1"></polygon><polygon points="445.75 126.05 441.68 146.86 437.3 146.86 437.3 126.05 445.75 126.05" style="fill:#FFC727"></polygon><polygon points="445.75 126.05 441.68 146.86 437.3 146.86 437.3 126.05 445.75 126.05" style="opacity:0.30000000000000004"></polygon><polygon points="445.75 126.05 444.91 130.37 437.3 130.37 437.3 126.05 445.75 126.05" style="opacity:0.1"></polygon><rect x="330.72" y="82.33" width="56.35" height="14.19" transform="translate(448.32 -269.46) rotate(90)" style="fill:#FFC727"></rect><rect x="355.79" y="63.69" width="6.19" height="14.19" transform="translate(429.67 -288.11) rotate(90)" style="fill:#263238"></rect><rect x="357.74" y="72.71" width="2.3" height="14.19" transform="translate(438.69 -279.08) rotate(90)" style="fill:#263238"></rect><rect x="355.79" y="100.02" width="6.19" height="14.19" transform="translate(466 -251.77) rotate(90)" style="fill:#263238"></rect><rect x="338.08" y="79.78" width="65.73" height="9.92" transform="translate(455.68 -286.2) rotate(90)" style="fill:#455a64"></rect><rect x="358.26" y="67.72" width="25.28" height="5.95" transform="translate(441.59 -300.21) rotate(90)" style="fill:#37474f"></rect><rect x="359.35" y="84.23" width="49.93" height="16.84" transform="translate(476.96 -291.66) rotate(90)" style="fill:#FFC727"></rect><rect x="381.99" y="101.57" width="4.65" height="16.84" transform="translate(494.31 -274.32) rotate(90)" style="fill:#455a64"></rect><rect x="383.41" y="95.29" width="1.8" height="16.84" transform="translate(488.02 -280.6) rotate(90)" style="fill:#455a64"></rect><rect x="313.11" y="78.93" width="65.74" height="11.63" transform="translate(430.72 -261.23) rotate(90)" style="fill:#a6a6a6"></rect><rect x="343.35" y="103.21" width="5.24" height="11.63" transform="translate(455 -236.95) rotate(90)" style="fill:#ebebeb"></rect><rect x="343.35" y="60.28" width="5.24" height="11.63" transform="translate(412.07 -279.88) rotate(90)" style="fill:#ebebeb"></rect><rect x="344.96" y="67.51" width="2.03" height="11.63" transform="translate(419.3 -272.65) rotate(90)" style="fill:#ebebeb"></rect><polygon points="335.96 95.61 334.83 98.98 334.15 101.04 333.03 104.41 328.66 117.61 305 117.61 300.61 104.41 299.49 101.04 298.81 98.98 297.69 95.61 306.42 81.13 301.89 71.58 331.77 71.58 327.23 81.13 335.96 95.61" style="fill:#FFC727"></polygon><polygon points="335.96 95.61 334.83 98.98 298.81 98.98 297.69 95.61 335.96 95.61" style="opacity:0.1"></polygon><polygon points="334.15 101.04 333.03 104.41 300.61 104.41 299.49 101.04 334.15 101.04" style="opacity:0.1"></polygon></g><g id="freepik--Character--inject-200"><polygon points="174.85 340.63 125.78 340.63 97.69 200.6 142.63 179.96 174.85 340.63" style="fill:#FFC727"></polygon><polygon points="174.85 340.63 125.78 340.63 97.69 200.6 142.63 179.96 174.85 340.63" style="opacity:0.2"></polygon><polygon points="315.31 340.63 174.85 340.63 142.63 179.96 283.08 179.96 315.31 340.63" style="fill:#FFC727"></polygon><rect x="74.45" y="265.5" width="75.21" height="154.32" style="fill:#FFC727"></rect><rect x="74.45" y="265.5" width="75.21" height="154.32" style="opacity:0.2"></rect><polygon points="351.41 419.82 330.86 419.82 300.24 265.5 351.41 265.5 351.41 419.82" style="fill:#FFC727"></polygon><polygon points="351.41 419.82 330.86 419.82 300.24 265.5 351.41 265.5 351.41 419.82" style="opacity:0.2"></polygon><rect x="149.66" y="265.5" width="41.32" height="154.32" style="fill:#FFC727"></rect><rect x="351.41" y="265.5" width="41.32" height="154.32" style="fill:#FFC727"></rect><rect x="190.98" y="340.63" width="160.43" height="79.19" style="fill:#FFC727"></rect><rect x="190.98" y="306.39" width="160.43" height="34.56" style="fill:#FFC727"></rect><g style="opacity:0.2"><path d="M159.78,265.5l15.6-.28L191,265h.47v.48l.17,18.06.07,18.06c0,12,.08,24.08,0,36.12s-.05,24.07-.2,36.11-.27,24.08-.53,36.12q-.37-18.06-.52-36.12c-.15-12-.17-24.07-.21-36.11s0-24.08,0-36.12l.06-18.06.18-18.06.47.47-15.6-.19Z"></path><path d="M351.41,265.5c.32,12.08.47,24.17.6,36.25l.18,36.25L352,374.26l-.22,18.12-.38,18.13L351,392.38l-.22-18.12L350.63,338l.18-36.25C350.94,289.67,351.09,277.58,351.41,265.5Z"></path><path d="M351.41,340.63c-13.37.32-26.74.47-40.11.59l-40.1.18-40.11-.18L211,341,191,340.63l20.06-.39,20.05-.21,40.11-.18,40.1.18C324.67,340.15,338,340.3,351.41,340.63Z"></path><path d="M351.41,306.39c-13.37.32-26.74.47-40.11.6l-40.1.18L231.09,307,211,306.77,191,306.39,211,306l20.05-.22,40.11-.18,40.1.18C324.67,305.92,338,306.07,351.41,306.39Z"></path></g><polygon points="103.03 419.81 102.01 432.32 99.64 461.2 88.75 461.2 86.37 432.32 85.36 419.81 103.03 419.81" style="fill:#c7c7c7"></polygon><polygon points="85.36 419.81 103.03 419.81 102.01 432.32 86.37 432.32 85.36 419.81" style="fill:#a6a6a6"></polygon><polygon points="179.16 419.81 178.14 432.32 175.77 461.2 164.88 461.2 162.5 432.32 161.48 419.81 179.16 419.81" style="fill:#c7c7c7"></polygon><polygon points="161.48 419.81 179.16 419.81 178.14 432.32 162.5 432.32 161.48 419.81" style="fill:#a6a6a6"></polygon><polygon points="305.43 419.81 304.41 432.32 302.04 461.2 291.14 461.2 288.77 432.32 287.75 419.81 305.43 419.81" style="fill:#c7c7c7"></polygon><polygon points="287.75 419.81 305.43 419.81 304.41 432.32 288.77 432.32 287.75 419.81" style="fill:#a6a6a6"></polygon><polygon points="381.57 419.81 380.55 432.32 378.18 461.2 367.29 461.2 364.92 432.32 363.9 419.81 381.57 419.81" style="fill:#c7c7c7"></polygon><polygon points="381.57 419.81 380.55 432.32 364.92 432.32 363.9 419.81 381.57 419.81" style="fill:#a6a6a6"></polygon><path d="M374.52,460.88c-3.17.27-81.72-20.4-84.4-23.23-1-1,1.26-13.42,4.47-28.3l10.58-38.56,50.39,12.29-8.47,40.37s24.85,21.33,27.48,24.73S377.68,460.63,374.52,460.88Z" style="fill:#ad6359"></path><path d="M374.51,460.88c-3.17.27-81.71-20.41-84.39-23.22-1-1.05,1.25-13.43,4.47-28.3,0,0,.35-1.43.94-3.74l52.53,12.87-1,5s24.84,21.33,27.47,24.73S377.69,460.62,374.51,460.88Z" style="fill:#ebebeb"></path><path d="M375.72,462.19c-3.06.21-83.85-20.71-86.43-23.46-1-1,1.53-13.58,4.79-27.93l54.63,13.69s24.12,20.95,26.62,24.26S378.79,462,375.72,462.19Z" style="fill:#FFC727"></path><path d="M375.72,462.19c-3.06.21-83.85-20.71-86.43-23.46-1-1,1.53-13.58,4.79-27.93l54.63,13.69s24.12,20.95,26.62,24.26S378.79,462,375.72,462.19Z" style="opacity:0.5"></path><path d="M375.4,458.66c-13.46-3.84-68.09-18.06-81.69-20.83-.11,0-.13.05,0,.08,13.26,4.1,68,17.87,81.65,21C375.63,459,375.68,458.74,375.4,458.66Z" style="fill:#263238"></path><path d="M371.46,445.65a11.23,11.23,0,0,0-8.95,1.21,10.86,10.86,0,0,0-4.9,6.45c0,.08.13.12.16,0a13,13,0,0,1,13.65-7.53A.09.09,0,0,0,371.46,445.65Z" style="fill:#263238"></path><path d="M353.7,427.59c-5.17-2.16-11.93-2.75-16.87.2-.19.11,0,.39.17.37a77.42,77.42,0,0,1,16.53.1A.35.35,0,0,0,353.7,427.59Z" style="fill:#263238"></path><path d="M357.08,430.76c-5.17-2.16-11.93-2.74-16.86.21-.19.11,0,.38.16.36a77.41,77.41,0,0,1,16.53.11A.36.36,0,0,0,357.08,430.76Z" style="fill:#263238"></path><path d="M360.46,433.94c-5.16-2.16-11.92-2.75-16.86.2-.19.12,0,.39.16.37a78.07,78.07,0,0,1,16.53.1A.35.35,0,0,0,360.46,433.94Z" style="fill:#263238"></path><path d="M313.39,446.43c-13.06-3.65-23.21-6.75-24.11-7.69s.63-8.8,2.86-19.17Z" style="opacity:0.1"></path><path d="M347.65,423.58,294.08,410.8s15.72-88,13.44-91.16c-4.3-5.91-69.7-4.65-89.87-24.7-21.36-21.22-12-48.06-12-48.06h58.5s3.95,10,5,10.35c13.25,3.87,61.38,7.3,80.31,22.47,4.88,3.91,13.11,14.07,14.79,24.21C369.56,336.1,347.65,423.58,347.65,423.58Z" style="fill:#263238"></path><path d="M297.66,400.92a27.41,27.41,0,0,1,4.85.71c1.64.33,3.29.65,4.93,1l10,2.06c6.69,1.39,13.36,2.83,20,4.4,3.75.89,7.45,1.92,11.16,2.94a.12.12,0,0,1-.06.23c-13.5-2.19-26.81-5.2-40.13-8.27L303,402.71a31.42,31.42,0,0,1-5.4-1.54C297.48,401.12,297.54,400.92,297.66,400.92Z" style="fill:#37474f"></path><path d="M293,315.88c-21.54-3-60.54-6.27-75.3-20.94-21.36-21.22-12-48.05-12-48.05h41.75Z" style="fill:#37474f"></path><path d="M304.21,396c-.14.77.3,1.22.57,0,6.28-28.75,10.86-61.36,11.33-66,.23-2.33.43-4.68.54-7,.05-1.18.09-2.36.06-3.55a17.2,17.2,0,0,0-.37-3.6,4.22,4.22,0,0,0-.34-.93,2.44,2.44,0,0,0-.69-.8,6.91,6.91,0,0,0-1.65-.91,25.51,25.51,0,0,0-3.41-1.1c-2.29-.6-4.6-1.06-6.91-1.48-4.62-.85-9.26-1.56-13.89-2.28-9.27-1.39-18.55-2.73-27.75-4.45s-18.39-3.7-27.11-7c-4.29-1.73-8.6-3.79-11.57-7.43a41.13,41.13,0,0,1-7.72-11.55,50.28,50.28,0,0,1-3.59-27.45,50.57,50.57,0,0,0,3.12,27.66,41.75,41.75,0,0,0,7.7,11.79,29.82,29.82,0,0,0,2.49,2.54,25.6,25.6,0,0,0,2.91,2.07,44.06,44.06,0,0,0,6.36,3.12,103,103,0,0,0,13.46,4.24c4.56,1.14,9.16,2.1,13.77,3,9.22,1.75,18.51,3.14,27.77,4.55,4.63.7,9.27,1.39,13.87,2.22,2.3.42,4.59.87,6.84,1.45a25.7,25.7,0,0,1,3.29,1,6.4,6.4,0,0,1,1.42.77,1.35,1.35,0,0,1,.45.51,3.91,3.91,0,0,1,.26.71,16.28,16.28,0,0,1,.35,3.38c0,1.16,0,2.32,0,3.49-.1,2.33-.29,4.66-.52,7-.46,4.66-1,9.31-1.68,13.95C312.24,353.12,305.85,386.79,304.21,396Z" style="fill:#37474f"></path><path d="M310.5,460.73c-3,1-72.38-.14-75.64-2.27-1.25-.79-1.82-13.37-2.07-28.59v-.47c-.06-3.14-.1-6.37-.11-9.64,0-.45,0-.9,0-1.35a347.24,347.24,0,0,1,2.29-41l55.64.05-1.74,41.05-.07,1.76-.34,9.18,0,.94s15.93,15.2,19.26,17.92S313.53,459.77,310.5,460.73Z" style="fill:#ad6359"></path><path d="M313.54,461c-2.92,1-76.06.29-79.23-1.74-1.21-.77-1.82-13.55-2.14-28.27h57.49s17.84,15.44,21.07,18.05S316.46,460.07,313.54,461Z" style="fill:#FFC727"></path><path d="M313.54,461c-2.92,1-76.06.29-79.23-1.74-1.21-.77-1.82-13.55-2.14-28.27h57.49s17.84,15.44,21.07,18.05S316.46,460.07,313.54,461Z" style="opacity:0.5"></path><path d="M312.37,457.67c-14-.45-60.13-1-74-.35-.11,0-.11.08,0,.09,13.85.75,60,.81,74,.49C312.66,457.9,312.66,457.68,312.37,457.67Z" style="fill:#263238"></path><path d="M309.38,448.77c-7.64-3.75-16.36-4.7-22-3.47-5.44,1.18-10.87,3.86-12.77,8.59-.06.14.3.31.39.18,5.88-7.89,21-10.26,34.29-5C309.52,449.15,309.65,448.9,309.38,448.77Z" style="fill:#263238"></path><path d="M291.29,439.32a43.74,43.74,0,0,0-26.15,1c-.28.11.07.48.36.45,8.66-.9,16.56-1.61,25.72-.57C291.86,440.24,291.92,439.49,291.29,439.32Z" style="fill:#263238"></path><path d="M288.35,435.75a43.74,43.74,0,0,0-26.15,1c-.28.11.07.48.35.45,8.67-.9,16.57-1.61,25.73-.57C288.91,436.67,289,435.92,288.35,435.75Z" style="fill:#263238"></path><path d="M285.41,432.18a43.74,43.74,0,0,0-26.15,1c-.28.11.07.48.35.45,8.66-.9,16.57-1.61,25.73-.58C286,433.1,286,432.35,285.41,432.18Z" style="fill:#263238"></path><path d="M290.26,431.93l-58.94-.45s.41-93.69-2.49-101.36c-3-7.83-13.6-13.35-26.6-28.39-19.69-22.79-2.5-54.82-2.5-54.82l57.61,0s7.48,18.89,7,26.54c0,0-6.17.39-9.92.39,0,0,26.81,22.18,33.66,43C294,334.57,290.26,431.93,290.26,431.93Z" style="fill:#263238"></path><path d="M238,275.13a76.62,76.62,0,0,1,16.33-1.92A114.24,114.24,0,0,1,271,274a.12.12,0,0,1,0,.24c-5.49.19-11,.48-16.48.78s-10.93.76-16.4.76A.35.35,0,0,1,238,275.13Z" style="fill:#37474f"></path><path d="M209.88,267.64a43.08,43.08,0,0,0,7.6-1.72,10.89,10.89,0,0,0,5.43-2.89c2.91-3.11,4.12-7.38,6.37-10.91a.12.12,0,0,1,.22.1,54.06,54.06,0,0,1-2.13,7.24,15.05,15.05,0,0,1-3.2,5.48c-3.6,3.75-9.55,3.27-14.3,3.2C209.54,268.13,209.57,267.67,209.88,267.64Z" style="fill:#37474f"></path><path d="M234.49,419.92a28.05,28.05,0,0,1,5-.39l5.16-.14,10.5-.22c7-.14,14-.22,21-.16,3.94,0,7.88.21,11.82.38a.12.12,0,0,1,0,.24c-14,.87-28,.89-42,.87l-5.73,0a33.44,33.44,0,0,1-5.75-.3A.13.13,0,0,1,234.49,419.92Z" style="fill:#37474f"></path><path d="M261.74,249.27c-.27,3.48-.47,7-.89,10.45-.2,1.63-.35,3.29-.67,4.91a3.19,3.19,0,0,1-.89,1.87,3.89,3.89,0,0,1-2.1.71,2.28,2.28,0,0,1-2.83-2.22c-.29-3.17.64-14.2.66-15.11,0-.18-.58-.18-.6,0-.86,7-2,15.83-.54,17.35a4.67,4.67,0,0,0,6.05.42,4.33,4.33,0,0,0,1.32-2.84c.23-1.51.3-3.07.41-4.6.27-3.63.59-7.27.66-10.92C262.32,249,261.77,248.94,261.74,249.27Z" style="fill:#37474f"></path><path d="M256.53,267.69a9.63,9.63,0,0,0-.26,1.32c-.09.44-.19.89-.3,1.32s-.2.88-.32,1.32-.19.88-.29,1.32a.17.17,0,0,0,.32.11,9.63,9.63,0,0,0,.53-1.24c.15-.44.29-.88.41-1.33s.22-.88.31-1.32a6.66,6.66,0,0,0,.24-1.38C257.17,267.49,256.64,267.37,256.53,267.69Z" style="fill:#37474f"></path><path d="M202,252.36a124.73,124.73,0,0,0-1.38,22.44,38.45,38.45,0,0,0,1.91,11.12,21.71,21.71,0,0,0,2.76,5c1.1,1.54,2.28,3,3.49,4.45,4.87,5.73,10.24,11,15.44,16.36,2.61,2.69,5.2,5.39,7.63,8.21a35.68,35.68,0,0,1,3.31,4.43,15.64,15.64,0,0,1,1.65,5.15c.68,3.64,1,7.37,1.36,11.1s.53,7.46.71,11.2c.36,7.47.54,12.86.72,20.35s-.14,34.6-.17,41.67c0,.42.58.55.64,0,.2-7.5.24-15,.34-22.48s.06-11.72,0-19.21-.25-12.89-.57-20.39c-.17-3.74-.38-7.49-.67-11.23a112.14,112.14,0,0,0-1.33-11.22,24.81,24.81,0,0,0-.64-2.78,10.48,10.48,0,0,0-1.14-2.7,35.25,35.25,0,0,0-3.44-4.55c-2.47-2.85-5.08-5.54-7.7-8.22-5.25-5.36-10.6-10.61-15.54-16.21-1.22-1.41-2.41-2.85-3.5-4.35a20,20,0,0,1-2.75-4.78,38.76,38.76,0,0,1-2-10.93A123.57,123.57,0,0,1,202,252.36Z" style="fill:#37474f"></path><path d="M237,178.7c15,21.27,37.79,44.84,44.44,47.45,8.4,3.3,49.34-3.83,51.42-4.4,3.43-.95-.82-34.6-4.07-34-9.77,1.85-35.91,8.12-38.38,7.05s-21.19-11.55-41-23.83C235.8,162.49,227.68,165.5,237,178.7Z" style="fill:#ad6359"></path><path d="M330.6,222.29c3.68,0,20.55-1.32,25.16-2.74s17.58-6.5,16.85-10.14S368,207,368,207s5.14-3,4.06-6.61-7.1-1.56-7.1-1.56,5.05-3.47,3.73-7-7-.46-7-.46,4.77-3,2.45-5.39c-2.78-2.93-10.95,3.52-16.16,4.71-1.18.27-24.36,3.78-24.36,3.78Z" style="fill:#ad6359"></path><path d="M362.09,191.09c-6,4.73-9.47,5.76-17,6.53-.14,0-.15.23,0,.23,7.41-.09,11.93-.75,17.22-6.48C362.6,191.09,362.38,190.87,362.09,191.09Z" style="fill:#263238"></path><path d="M365.39,198.4c-6.68,4.36-10.42,5.51-18.21,6.89a.1.1,0,0,0,0,.2c7.75-.72,12.24-1.48,18.35-6.72C365.84,198.53,365.7,198.2,365.39,198.4Z" style="fill:#263238"></path><path d="M367.56,207c-6.78,3.76-10.82,5.19-18.55,5.56a.15.15,0,0,0,0,.29c7.93.38,13-1.37,18.65-5.63C368,206.93,368,206.77,367.56,207Z" style="fill:#263238"></path><path d="M318.27,191.38s7.2-6.34,11-8.42,20.72-4.68,21.49-1.06c1,4.69-8.49,8.11-13.36,9.18,0,0,2.31,10.83-4,14.76S318.27,191.38,318.27,191.38Z" style="fill:#ad6359"></path><path d="M350.58,183.28c-2.18,4.92-8.65,5.92-13.29,7.31a.44.44,0,0,0-.26.68c.66,4.6.26,11.29-3.33,14.64a.11.11,0,0,0,.14.18c4.33-3.08,5.27-9.61,4.22-14.61,4.78-1.35,11.23-2.63,12.57-8.18C350.64,183.27,350.59,183.25,350.58,183.28Z" style="fill:#263238"></path><path d="M320.71,186.05l6.19,40s-36.8,6.24-45.56,2.18S247.48,195,237.45,180s-1.57-18,10.28-10.83,41.11,24.44,42.39,24.55S320.71,186.05,320.71,186.05Z" style="fill:#455a64"></path><path d="M314.67,211.65c-.71-4.51-1.38-9-2.25-13.52-.5-2.55-1-5.11-1.5-7.65,0-.1-.19-.08-.18,0,.53,4.56,1.07,9.13,1.81,13.67s1.43,9,2.23,13.53c.45,2.56,1,5.1,1.58,7.63,0,0,.1,0,.09,0C316.07,220.74,315.38,216.2,314.67,211.65Z" style="fill:#263238"></path><path d="M286,229.37a15.85,15.85,0,0,1-4.69-1.08c-8.77-4-33.86-33.26-43.9-48.29-7.19-10.78-4.87-15.37,1.4-14.44C253.22,184.66,270,207.52,286,229.37Z" style="opacity:0.1"></path><path d="M189.47,264.23c.19.22,80.19-9.76,81-10.6,1.08-1.17-9.67-66.27-22.71-84.47-3.27-4.55-14.73-5.14-20.18-1.22C200.54,187.37,188.81,263.43,189.47,264.23Z" style="fill:#455a64"></path><path d="M219.81,175.16C197.76,196,173,238.26,177.7,247.64c5.21,10.45,35.92-18.82,35.87-20.59,0-1.34,7.73-26.28,16.33-46.09S225.27,170,219.81,175.16Z" style="fill:#f7a9a0"></path><path d="M213.77,227.09c1-2.92,12.84-36.53,17.3-47.9,4-10.21,2.22-14.51-6.58-8.4-16.22,11.25-42.25,45.33-48.69,63.82-6.21,17.82,5.78,18.48,18.29,10.6C204.34,238.75,213.77,227.09,213.77,227.09Z" style="fill:#455a64"></path><path d="M211.7,232.12q6.63-20.9,15.06-41.18-6.63,20.91-15.06,41.18Z" style="fill:#263238"></path><path d="M224,199a22.52,22.52,0,0,1,3.07-4.88A14.66,14.66,0,0,1,224,199Z" style="fill:#263238"></path><path d="M227.71,170.27c.68.89,1.39,1.75,2.11,2.6s1.47,1.67,2.22,2.49c1.5,1.63,3.05,3.21,4.67,4.7s3.26,3,5,4.32,3.48,2.65,5.29,3.87l-.6.15a2.11,2.11,0,0,0,.14-.32c.06-.12.1-.25.15-.38s.17-.54.24-.81c.15-.55.28-1.11.4-1.68.25-1.12.45-2.27.64-3.42s.35-2.3.52-3.45l.48-3.47c0,1.17-.06,2.34-.13,3.51s-.15,2.33-.26,3.5-.28,2.33-.48,3.49c-.11.58-.23,1.16-.37,1.74q-.11.44-.24.87l-.14.44-.09.22a1.8,1.8,0,0,1-.12.25l-.22.41-.38-.26a64,64,0,0,1-5.38-3.9c-.87-.69-1.71-1.43-2.55-2.16-.41-.36-.81-.76-1.22-1.13s-.81-.77-1.2-1.17a62.29,62.29,0,0,1-4.51-5A50.52,50.52,0,0,1,227.71,170.27Z" style="fill:#263238"></path><path d="M242.68,181.7c-3.5-.16-10.13-7.34-12.44-13.08-.16-.4.87-4.23,1.9-8.94.62-2.87,1.23-6.07,1.58-9l18.05,6.71a47.69,47.69,0,0,0-3.14,11.17,7.28,7.28,0,0,0,0,1.23c0,.06,0,.13,0,.2C248.72,172.32,248.15,182,242.68,181.7Z" style="fill:#ad6359"></path><path d="M248.61,169.76c0,.06,0,.12,0,.21a12.1,12.1,0,0,1-1.93-.13c-10.53-1.49-11.59-14.67-11.66-18.71l16.75,6.23a48.35,48.35,0,0,0-3.16,11.17A8.45,8.45,0,0,0,248.61,169.76Z" style="fill:#263238"></path><path d="M232.57,130.65c-2.21,6.58.75,25.84,5.34,30.25,6.66,6.39,17.84,7.3,23.34-.77,5.33-7.82,1-32.86-4.13-36.89C249.53,117.3,235.84,120.94,232.57,130.65Z" style="fill:#ad6359"></path><path d="M247.55,140.28a15,15,0,0,0,1.61-.65,2.74,2.74,0,0,0,1.52-1,.89.89,0,0,0-.19-1.08,2.21,2.21,0,0,0-2.24-.13,3.24,3.24,0,0,0-1.82,1.49A1,1,0,0,0,247.55,140.28Z" style="fill:#263238"></path><path d="M260.86,138.87a16.52,16.52,0,0,1-1.72-.23,2.84,2.84,0,0,1-1.72-.57.9.9,0,0,1-.08-1.09,2.22,2.22,0,0,1,2.15-.68,3.3,3.3,0,0,1,2.13,1A1,1,0,0,1,260.86,138.87Z" style="fill:#263238"></path><path d="M250,155.19c.34.29.68.69,1.16.69a3.45,3.45,0,0,0,1.38-.42s.09,0,.06.06a1.79,1.79,0,0,1-1.61.83,1.41,1.41,0,0,1-1.11-1.09C249.84,155.19,249.94,155.15,250,155.19Z" style="fill:#263238"></path><path d="M251.09,151.18a4.47,4.47,0,0,0,3.12,1.77,5.38,5.38,0,0,0,1.6,0,1.55,1.55,0,0,0,.31-.06l.28-.06a.32.32,0,0,0,.24-.31h0a.27.27,0,0,0,0-.13h0v-.12c0-1-.25-2.53-.25-2.53.38.15,2.32.87,2.25.34a66.83,66.83,0,0,0-2.67-13.37.12.12,0,0,0-.24,0c.38,4.2,1.49,8.3,1.94,12.5a7.87,7.87,0,0,0-2.15-.49c-.14,0,.45,2.94.44,3.4a.18.18,0,0,1,0,0,6.21,6.21,0,0,1-4.71-1.11C251.1,151,251,151.08,251.09,151.18Z" style="fill:#263238"></path><path d="M251,143.17s-.09.07-.09.12c.16,1.29.12,2.8-1,3.34,0,0,0,.08,0,.07C251.35,146.37,251.38,144.37,251,143.17Z" style="fill:#263238"></path><path d="M249.74,141.91c-2.1,0-1.89,4.24.06,4.21S251.5,141.89,249.74,141.91Z" style="fill:#263238"></path><path d="M258.57,142.28c0-.05.11.05.11.11,0,1.3.25,2.79,1.45,3.18,0,0,0,.07,0,.07C258.67,145.5,258.38,143.52,258.57,142.28Z" style="fill:#263238"></path><path d="M259.68,140.87c2.09-.25,2.43,3.94.5,4.17S257.93,141.08,259.68,140.87Z" style="fill:#263238"></path><path d="M255.35,152.5a5.41,5.41,0,0,1-2,1.83,2.37,2.37,0,0,1-1.45.2c-1.08-.19-1.18-1.16-1-2a5.61,5.61,0,0,1,.37-1.31A7,7,0,0,0,255.35,152.5Z" style="fill:#263238"></path><path d="M253.34,154.33a2.37,2.37,0,0,1-1.45.2c-1.08-.19-1.18-1.16-1-2A2.49,2.49,0,0,1,253.34,154.33Z" style="fill:#ff9bbc"></path><path d="M232.55,148.14c3,.42,5-4.13,5.45-6s-.76-9.86.28-12.72a6,6,0,0,1,6.29-4.11c2.48.38,6,3.08,7.7,2.69s1.64-4.2,2.86-4.36c2.69-.35,5.64,6.32,6.53,9.17,0,0-.44-13.15-14.38-12.65-12.71.46-15.81,8.63-16.39,12.52C229.78,140.12,232.55,148.14,232.55,148.14Z" style="fill:#263238"></path><path d="M248.13,150.51a6,6,0,1,1,6-7.39h0a6,6,0,0,1-4.53,7.24A6,6,0,0,1,248.13,150.51Zm.27-11.27a5.23,5.23,0,1,0,5,4.06A5.27,5.27,0,0,0,248.4,139.24Z" style="fill:#37474f"></path><path d="M261.93,149.15c-2.31-.05-4.35-2.47-4.64-5.61a7.18,7.18,0,0,1,.88-4.33,3.76,3.76,0,0,1,6.41-.6,7.25,7.25,0,0,1,1.67,4.09c.31,3.32-1.45,6.21-3.92,6.44Zm-.34-11.25a1.61,1.61,0,0,0-.31,0,3.22,3.22,0,0,0-2.42,1.71,6.43,6.43,0,0,0-.77,3.84c.27,2.88,2.13,5.06,4.16,4.87s3.46-2.68,3.19-5.55a6.39,6.39,0,0,0-1.46-3.63A3.32,3.32,0,0,0,261.59,137.9Z" style="fill:#37474f"></path><path d="M254,143.83l-.58-.56c.84-.86,2.86-2.08,4.47-.65l-.53.61C255.94,141.94,254.11,143.76,254,143.83Z" style="fill:#37474f"></path><path d="M227.36,147.89l-.75-.31c.14-.35,1.43-3.42,3.2-3.88s12.53-.42,13-.42v.81c-3.11,0-11.51.06-12.78.39S227.7,147,227.36,147.89Z" style="fill:#37474f"></path><path d="M236.22,146.39s-4.28-6.24-7.1-4.72.35,10.54,3.64,11.8a3.37,3.37,0,0,0,4.52-1.77Z" style="fill:#ad6359"></path><path d="M230.09,144.23a0,0,0,0,0,0,.09c2.31,1,3.51,3.12,4.35,5.35a1.86,1.86,0,0,0-2.77-.53.07.07,0,0,0,.06.12A2.09,2.09,0,0,1,234,150a10.34,10.34,0,0,1,1.07,1.85c.11.21.48.1.4-.14a.43.43,0,0,1,0-.05C235.52,148.71,233.26,144.56,230.09,144.23Z" style="fill:#263238"></path><path d="M248.83,168.37l-4.65,10.4-13.52-13.45-4,4.19s13.07,21.24,13.17,20.29l4.74-9,6.47,6.38-.23-15.77Z" style="fill:#ebebeb"></path><path d="M251.41,179.43c-.13-2.6-.18-5.23-.44-7.82,0-.09-.16-.14-.19,0-.6,2.5,0,12.45-.1,14.83l0,0c-.27-.27-6-5.61-6.07-5.53-1,1.42-4.49,7.94-4.73,8.53C237.79,186,229,172.7,226.54,169.5c-.07-.09-.22,0-.17.09,1.81,3.55,13.16,21.11,13.33,21.07a100,100,0,0,0,5-9.46c1,1.16,6.74,7.17,6.77,6.78A73.9,73.9,0,0,0,251.41,179.43Z" style="fill:#263238"></path><path d="M178.67,248.55c6.87,4.79,28.68,1.33,61.47-3.89,4.54-.72,7-34.86,2.14-34.33-6.16.66-38,5.47-39.66,6C188.28,220.55,174,245.3,178.67,248.55Z" style="fill:#ad6359"></path><path d="M280.87,216.33c-.52,3.94-10.14,1.84-10.14,1.84a7.3,7.3,0,0,1,2.42,4.36c.33,3-4.23,4.85-4.23,4.85a9.05,9.05,0,0,1,1.81,5c0,2.91-4.3,5.43-4.3,5.43a8.29,8.29,0,0,1-1.18,5.41c-4.73,7-26.5,4.13-32.53,2l-4-32.21s19.82-9.28,28.7-8.43C262.32,205.06,281.66,210.3,280.87,216.33Z" style="fill:#ad6359"></path><path d="M270.67,218c-4.95-2.2-10.41-3.21-15.69-4.14a.1.1,0,0,0,0,.19c5.19,1.22,10.42,3.14,15.64,4.2A.13.13,0,0,0,270.67,218Z" style="fill:#263238"></path><path d="M268.86,227.2a14.24,14.24,0,0,0-3.62-.7q-2-.24-3.9-.42c-2.61-.23-5.22-.41-7.84-.5-.11,0-.15.17,0,.18,2.6.24,5.2.51,7.78.86,1.3.18,2.59.36,3.88.56a16.82,16.82,0,0,0,3.67.38A.19.19,0,0,0,268.86,227.2Z" style="fill:#263238"></path><path d="M266.32,237.81a9.62,9.62,0,0,0-3.3-.46q-1.78-.12-3.57-.27c-2.38-.19-4.75-.38-7.12-.66a.1.1,0,0,0,0,.19c2.4.29,4.81.61,7.21.88l3.56.38a9.29,9.29,0,0,0,3.24.06A.06.06,0,0,0,266.32,237.81Z" style="fill:#263238"></path><path d="M236.39,207.74l-15.87,46s-39,.3-44.13-5.67c-3.66-4.27,10.17-28.06,26.07-32.73Z" style="fill:#455a64"></path><path d="M185.68,227.54c1.62-2.84,7.64-9.36,16.79-12.19.08,0,.14.09.06.13-6.61,2.77-14.95,9.54-16.75,12.14C185.74,227.69,185.64,227.61,185.68,227.54Z" style="fill:#263238"></path><path d="M214.18,246.86c1.18-4.56,2.6-9.05,4-13.53s2.86-9,4.41-13.43c.87-2.52,1.73-5,2.69-7.52,0-.07.14,0,.12,0-1.17,4.55-2.58,9-4,13.53s-2.85,9-4.35,13.45c-.84,2.53-1.73,5-2.69,7.52C214.36,247,214.15,247,214.18,246.86Z" style="fill:#263238"></path><path d="M236.26,207.35a41.2,41.2,0,0,0-5.37,1.09q-2.67.66-5.33,1.39c-3.51.95-19.14,3.51-25.18,6.27-.07,0,.42.2.48.16,2.82-1.46,33.4-7.62,35.15-8.27,0,.14-.95,3.09-.95,3.24s.14.17.2.07,1.14-3.3,1.27-3.55A.26.26,0,0,0,236.26,207.35Z" style="fill:#263238"></path><path d="M223.06,246.43c-.73,2.57-1.52,5.11-2.31,7.66-4.11,0-25.92.66-38.22-2.76a10.68,10.68,0,0,1-1.89-.73c18.43,3.41,34.55,2.56,39.89,2.87l-.3.21c.92-2.43,1.84-4.85,2.83-7.25Z" style="fill:#263238"></path></g><g id="freepik--Plant--inject-200"><path d="M112.36,304.29a96.28,96.28,0,0,0-2.22-15.68c-1.11-4.64-2.68-9.39-5.6-13.23-2.68-3.5-6.51-6.3-11-6.84-4.29-.53-8.33,1.39-11.55,4.1-4,3.36-7,7.8-9.89,12.11a146.83,146.83,0,0,0-8.55,15c-.09.16.17.31.25.14a94.27,94.27,0,0,1,7.65-12.53,79.08,79.08,0,0,1,8.8-10.67c3-2.88,6.7-5.58,11-5.71s8.18,2.25,10.74,5.53c2.86,3.67,4.32,8.25,5.41,12.71a95.17,95.17,0,0,1,2.21,14.93c.84,10.34,1.06,20.73,1.3,31.09q.2,8.79.26,17.58c0,3,0,5.95.07,8.92a56,56,0,0,0,.35,8.59c.09.58,1,.52,1.13,0a50.29,50.29,0,0,0,.4-8.14c0-2.82.07-5.63.1-8.45q.07-8.2.06-16.42C113.25,326.28,113.12,315.25,112.36,304.29Z" style="fill:#263238"></path><path d="M78.68,277.17c-.93.38.33-10.63-4-12-6.13-2-20.18,1.61-28,12a23.28,23.28,0,0,0-3.38,7c3.86-1.87,16.64-7.79,19.85-6,2.92,1.65-15.4,7.41-21,11.1a42.66,42.66,0,0,0-.51,4.62c3.3-2.27,12.28-8.16,16.3-8.16,4.46,0-10.34,7.83-16.33,13.45a47.24,47.24,0,0,0,3.46,15.88c1.53-2.9,4.91-8.55,9.27-11.6,6.05-4.23,8.7,2.57,1.08,7.95-4.07,2.87-7,5.25-8.85,6.84a31.4,31.4,0,0,0,6.78,8.77,24.75,24.75,0,0,1,9.94-6.79c1.47-.52,3.88-1.19,6.79-2.17a62.56,62.56,0,0,0,2.06-11.28c.17-4.48,5.47-2,3.32,6-.41,1.5-.78,2.73-1.13,3.76a30.4,30.4,0,0,0,6.49-3.18c.28-2.6-.15-8.6-1.22-14.25-1.32-7.05,4-7.55,5.2,1.32.54,4.1-.24,8.35-.5,11.11,6.07-3.54,11.09-10.72,11.09-10.72a26.89,26.89,0,0,0-4.2-11.1c-3-4.51.25-6.28,3.24-2.21,1.66,2.26,2.65,6.07,3.19,9C104,275.12,96.1,270.16,78.68,277.17ZM49.61,300.6c-1.65-2.4,4.07-6.8,5.3-5.3C56.5,297.21,51.26,303,49.61,300.6Zm38.21-9.86c-2.32,1.68-4.54-3.88-3-4.83S89.79,289.3,87.82,290.74Z" style="fill:#455a64"></path><path d="M82.5,287.61c-.78-1.56-1.6-3.1-2.5-4.6a26,26,0,0,0-2.88-4.17c.25-.31.49-.62.75-.92.1-.12-.08-.3-.19-.18l-.85,1a.28.28,0,0,0-.12.14c-1.08,1.29-2.09,2.62-3.06,4a47.11,47.11,0,0,0-5.06,1.46c-1.71.58-3.4,1.17-5.06,1.87-.18.08-.09.36.08.29,1.65-.73,3.32-1.44,5-2s3.26-1,4.89-1.43c-.53.75-1,1.51-1.55,2.28A59.36,59.36,0,0,0,63,289c-3,1.43-5.93,3.1-8.83,4.78a.15.15,0,0,0,.16.25,95.94,95.94,0,0,1,8.78-4.55c2.8-1.31,5.7-2.39,8.53-3.64-7.12,11.11-11.39,23.93-17.09,35.8-.08.17.19.32.26.14,1.74-4.16,3.75-8.22,5.64-12.31,1.71-3.68,3.37-7.37,5.07-11,.5-1.07,1-2.15,1.54-3.22-.32,5.94-.19,12-1.16,17.84a.15.15,0,1,0,.29,0c.41-6.34,1.53-12.58,1.48-19,0,0,0-.05,0-.08,1.2-2.43,2.49-4.82,3.88-7.14,2.36,5.55,4.84,11.19,5.93,17.15,0,.18.34.1.29-.09-1.61-6-3.09-12-6-17.48a66.92,66.92,0,0,1,5-7.23c.79,1.47,1.81,2.87,2.7,4.28s1.75,2.77,2.56,4.18a60.91,60.91,0,0,1,4.45,9.42c.06.18.35.08.28-.09C85.43,293.86,84.06,290.68,82.5,287.61Z" style="fill:#263238"></path><path d="M138.58,301.12c-4.56-4.58-9.87-10.6-16.93-10.58-6.8,0-11.82,5.49-14.7,11.15-3,5.92-4.09,12.63-4.94,19.14a231.74,231.74,0,0,0-1.8,23.54c-.13,4.37-.11,8.74,0,13.11a86.09,86.09,0,0,0,1,13.23c.13.71,1.26.73,1.3,0,.2-3.68.06-7.37,0-11.06s0-7.25.17-10.87c.26-7.33.8-14.66,1.66-21.94.75-6.37,1.35-12.91,3.25-19.06,1.72-5.54,4.93-11.89,10.55-14.32,7.67-3.32,15.16,2.75,20.17,7.88C138.48,301.44,138.71,301.25,138.58,301.12Z" style="fill:#263238"></path><path d="M152.47,308.28c-6.12-.62-4.43-3.95,1.14-2.49a25.33,25.33,0,0,1,8.31,4,36.22,36.22,0,0,0-2.46-14.51c-5.12-1.28-9.76,1-14.54,3.21s-7.95-3.56-2.35-6.35a17.78,17.78,0,0,1,15.15-.27c-.45-.77-.89-1.48-1.37-2.15a25.61,25.61,0,0,0-4.67-5.18c-4.17.34-6.49,2.92-7.72,3.74-1.76,1.15-4.53-.21-2.78-2.71,1.37-2,4.79-2.86,7.61-3.09-5-3-10-3-12.89-1.69C131,283,132.35,296,132.35,296s-12.94-6.92-17.18-1.48a16.25,16.25,0,0,0-2.68,6.37c4.57-1.68,10.2-2.09,10.73.65.56,2.9-7.18,2.05-11.2,2.51-.49,5.8.86,12.58,5.48,17.37,3.93-7.56,12.66-13.3,13.91-9.13s-8.14,5.22-12,10.87a24.94,24.94,0,0,0,5.38,3c2.1-3.14,5.6-7.48,7.28-6.16s-2.72,4.38-5.57,6.85A81.06,81.06,0,0,0,139,330.32c1-4.36,3-8.44,4.95-8.06s-1.8,4.94-3.41,8.37a125.65,125.65,0,0,0,17.12,2.17c.35-.09,2.7-7,3.76-15.54a24.76,24.76,0,0,0-8.89-1.78c-4.33-.21-4.74-5.14,1.74-4.45a16.56,16.56,0,0,1,7.48,3.1c.06-.9.12-1.83.15-2.76h0A24.4,24.4,0,0,0,152.47,308.28Zm-1.61-6.74c.66-1.47,4.61-1,4.23.86S150.31,302.79,150.86,301.54Zm-32.37,12.23c-.25-1.23,2.4-2.35,2.77-1.36S118.82,315.42,118.49,313.77Zm18.61,10.1c-2.1-1.09.91-5.89,2.84-5.12C141.51,319.38,139.2,325,137.1,323.87Z" style="fill:#455a64"></path><path d="M156.87,331.81c-2.9-4.86-5.78-9.75-8.83-14.52-1.42-2.22-2.91-4.4-4.45-6.54l.69-.16c.39-.08.77-.16,1.16-.22.89-.16,1.79-.29,2.69-.38s1.7-.13,2.55-.14a13.09,13.09,0,0,1,2.73.14c.11,0,.13-.15,0-.14-.91,0-1.83-.09-2.74-.1s-1.77,0-2.65.06-1.65.13-2.47.26c-.46.07-.91.15-1.36.24a7.27,7.27,0,0,0-.81.17c-1.58-2.16-3.21-4.29-4.9-6.37A58.33,58.33,0,0,1,154.4,299c.1,0,.06-.15,0-.14a53.88,53.88,0,0,0-16.14,4.9c-.92-1.14-1.86-2.28-2.8-3.41s-2.17-2.5-3.12-3.84c-.07-.09-.2,0-.12.08a55.36,55.36,0,0,1,3.68,4.52h0a56.21,56.21,0,0,0-5.92,4.75c-1.93,1.71-3.82,3.49-5.65,5.31-.06.06,0,.17.1.1,1.82-1.8,3.69-3.52,5.66-5.15s4-3.13,6-4.75l0,0c.45.6.9,1.2,1.35,1.78l.68.9,0,.06c.76,1,1.51,2,2.26,3a24,24,0,0,0-2.25,4.06c-.65,1.37-1.21,2.79-1.74,4.21a62.05,62.05,0,0,0-2.42,9.11c0,.09.12.13.14,0a52.62,52.62,0,0,1,2.65-8.93c.56-1.48,1.2-2.93,1.87-4.38s1.33-2.58,1.9-3.91c.65.87,1.3,1.74,1.94,2.62l.54.77c0,.06,0,.13.06.13h0c2,2.79,3.9,5.64,5.75,8.53a2.37,2.37,0,0,0-.25.64c-.12.35-.23.7-.34,1a24.74,24.74,0,0,0-.79,4.24,20.31,20.31,0,0,1-.18,2.35.07.07,0,1,0,.14,0,7.72,7.72,0,0,1,.17-2.19c.1-.75.24-1.5.41-2.24s.34-1.33.54-2c.1-.33.2-.65.32-1,.06-.17.14-.35.2-.53.86,1.35,1.72,2.71,2.56,4.09,1.68,2.71,3.33,5.44,5,8.16C156.74,332.07,157,332,156.87,331.81Z" style="fill:#263238"></path><path d="M112.06,369.14c-.07-2.75-.51-5.53-.81-8.27s-.61-5.5-.9-8.25c-.57-5.31-.88-10.73-2.13-15.93a23.18,23.18,0,0,0-6.47-11.92,10.6,10.6,0,0,0-6.36-3,11,11,0,0,0-6.74,2.08,23.38,23.38,0,0,0-5.67,6A57.52,57.52,0,0,0,78.56,337c0,.09.1.15.15.06a36.65,36.65,0,0,1,9.57-10.73,11.21,11.21,0,0,1,6-2.51,8.17,8.17,0,0,1,5.84,2.33c3.21,2.79,5.07,6.9,6.18,10.94,1.31,4.78,1.74,9.81,2.39,14.71.39,2.92.76,5.83,1.15,8.75s.62,5.87,1.23,8.73A.48.48,0,0,0,112.06,369.14Z" style="fill:#263238"></path><path d="M95,327.72c-6.33-.12-13,4.6-13,4.6S85.49,320,75.6,320.4c-5.88.24-13.22,6.41-14.69,16,2.26-1.2,7-3.52,10.83-3.59,5.12-.09,5.47,3.92-1.6,4.53a44.71,44.71,0,0,0-9.48,1.57,26.56,26.56,0,0,0,1.19,8.89c3.94-2.39,10.68-4.94,10.88-1.63.15,2.45-6.81,2.65-10.24,3.51a41.48,41.48,0,0,0,5.9,10.51A95.64,95.64,0,0,0,82.64,357a27.11,27.11,0,0,0-.44-5.16c-.84-4.39,2.39-4.47,2.81-.25a15.38,15.38,0,0,1-.3,4.72A42.28,42.28,0,0,0,93.85,352a27.78,27.78,0,0,0-2-9.74c-1.26-3.43,1.23-5.4,3.34-1.45,1.36,2.54.81,7.32.36,10a15.4,15.4,0,0,0,3-3.06C105.28,338.33,101.27,327.86,95,327.72ZM67.68,330c.23-1.78,4.64-1.44,4.42-.06S67.42,332,67.68,330Zm-4.92,14.47c.43-1.14,2.33-1,2.24-.08S62.47,345.21,62.76,344.47ZM89,350.67c-2.57.11-1.72-5.23-.23-5.44C90,345.05,90.94,350.59,89,350.67Z" style="fill:#455a64"></path><path d="M86.69,351.16c-.25-.67-.47-1.34-.68-2a18.83,18.83,0,0,1,.49,2.07C86.53,351.34,86.74,351.29,86.69,351.16Z" style="fill:#263238"></path><path d="M84.08,342.58c-.47-1.36-1-2.71-1.52-4.06-.28-.71-.57-1.42-.89-2.13a8.2,8.2,0,0,0-.88-1.78,14.11,14.11,0,0,0,.8-1.73.05.05,0,0,0-.09-.05,21.2,21.2,0,0,0-1.93,3c-.27.46-.53.94-.8,1.41a13.48,13.48,0,0,0-1.67.26l-1.77.36-1.76.41c-.58.14-1.16.33-1.76.42-.13,0-.08.24,0,.19a11.84,11.84,0,0,1,1.86-.49q.84-.18,1.71-.3c.57-.09,1.15-.16,1.73-.21s.87-.07,1.3-.11c-.23.42-.48.83-.71,1.24l-.1.2a5.69,5.69,0,0,0-1.42.17q-.77.13-1.53.3c-1,.23-2.06.48-3.08.76-2.14.6-4.25,1.28-6.36,2-.12,0-.05.22.07.18a62.46,62.46,0,0,1,6.39-1.78c1-.22,2-.46,3-.67l1.53-.32a9.56,9.56,0,0,0,1.18-.26c-1.09,2-2.11,4.05-3.06,6.14-2,4.54-3.77,9.22-5.53,13.88,0,.11.13.19.17.07A127.31,127.31,0,0,1,75,346.07c.39-.8.8-1.6,1.2-2.4,0,.16.07.32.1.49.1.55.2,1.1.29,1.65.19,1.1.38,2.21.54,3.32a38,38,0,0,1,.8,6.87.1.1,0,1,0,.19,0c-.18-1.09-.18-2.24-.25-3.35s-.15-2.31-.29-3.47-.27-2.22-.45-3.32c-.1-.55-.19-1.11-.29-1.66a3.37,3.37,0,0,0-.31-1.19c.58-1.17,1.15-2.33,1.74-3.49s1.1-2.17,1.67-3.25c.23-.46.49-.92.75-1.39a12,12,0,0,0,.65,1.67c.26.62.51,1.25.77,1.87.57,1.38,1.09,2.78,1.62,4.17.75,2,1.57,4,2.19,6.07C85.27,346.64,84.75,344.58,84.08,342.58Z" style="fill:#263238"></path><path d="M86,349.14c0-.16-.09-.32-.14-.48C85.92,348.82,86,349,86,349.14Z" style="fill:#263238"></path><polygon points="128.6 368.33 127.9 382.35 126.11 455.25 86.96 455.25 85.17 382.35 84.48 368.33 128.6 368.33" style="fill:#FFC727"></polygon><polygon points="128.6 368.33 127.9 382.35 126.11 455.25 86.96 455.25 85.17 382.35 84.48 368.33 128.6 368.33" style="opacity:0.5"></polygon><polygon points="128.6 368.33 127.9 382.35 85.17 384.77 84.48 368.33 128.6 368.33" style="opacity:0.2"></polygon><rect x="81.69" y="366.88" width="49.69" height="11.33" style="fill:#FFC727"></rect><rect x="81.69" y="366.88" width="49.69" height="11.33" style="opacity:0.5"></rect><rect x="90.13" y="455.25" width="6.87" height="5.93" style="fill:#FFC727"></rect><rect x="90.13" y="455.25" width="6.87" height="5.93" style="opacity:0.5"></rect><rect x="90.13" y="455.25" width="6.87" height="2.97" style="opacity:0.2"></rect><rect x="116.08" y="455.25" width="6.87" height="5.93" style="fill:#FFC727"></rect><rect x="116.08" y="455.25" width="6.87" height="5.93" style="opacity:0.5"></rect><rect x="116.08" y="455.25" width="6.87" height="2.97" style="opacity:0.2"></rect></g><g id="freepik--speech-bubble-2--inject-200"><path d="M637.56,70.42a25.54,25.54,0,0,1-40.79,20.51l-12.52,3.2,5.22-11.66a25.28,25.28,0,0,1-3-12,25.56,25.56,0,1,1,51.12,0Z" style="fill:#fff"></path><path d="M637.56,70.42c-.13,21.6-24.77,33-40.7,20.86l-12.5,3.28-.88.23.37-.84L589,82.28v.42c-5.88-10.46-3-24.6,6.27-32.11,16.8-13.85,42.19-1.94,42.25,19.83Zm0,0c.08-16.34-15.91-28.82-31.7-24.51a25.25,25.25,0,0,0-16,36.33l.11.21-.09.22-5.26,11.64-.51-.6,12.55-3.12c17.09,12.35,40.45,1.16,40.87-20.17Z" style="fill:#263238"></path><path d="M603.08,70.42A2.11,2.11,0,1,1,601,68.31,2.11,2.11,0,0,1,603.08,70.42Z" style="fill:#263238"></path><path d="M614.15,70.42A2.11,2.11,0,1,1,612,68.31,2.1,2.1,0,0,1,614.15,70.42Z" style="fill:#263238"></path><path d="M625.22,70.42a2.11,2.11,0,1,1-2.11-2.11A2.1,2.1,0,0,1,625.22,70.42Z" style="fill:#263238"></path></g><g id="freepik--speech-bubble-1--inject-200"><path d="M172,99.81a25.55,25.55,0,0,0,40.79,20.52l12.52,3.2-5.21-11.66A25.56,25.56,0,1,0,172,99.81Z" style="fill:#fff"></path><path d="M172,99.81c.42,21.34,23.79,32.53,40.88,20.18l12.54,3.11-.51.61-5.25-11.64-.1-.22.11-.21a25.25,25.25,0,0,0-16-36.33C188,71,172,83.47,172,99.81Zm0,0C172.1,78.05,197.49,66.14,214.3,80c9.29,7.51,12.15,21.64,6.26,32.11l0-.43,5.17,11.68.37.84-.88-.24-12.5-3.27c-15.93,12.11-40.57.74-40.7-20.87Z" style="fill:#263238"></path><path d="M206.53,99.81a2.11,2.11,0,1,0,2.1-2.1A2.1,2.1,0,0,0,206.53,99.81Z" style="fill:#263238"></path><path d="M195.45,99.81a2.11,2.11,0,1,0,2.11-2.1A2.11,2.11,0,0,0,195.45,99.81Z" style="fill:#263238"></path><path d="M184.38,99.81a2.11,2.11,0,1,0,2.11-2.1A2.1,2.1,0,0,0,184.38,99.81Z" style="fill:#263238"></path></g><g id="freepik--Floor--inject-200"><path d="M66.79,461.27c197.46-.61,419-.61,616.42,0-197.46.62-419,.62-616.42,0Z" style="fill:#263238"></path></g><g id="freepik--Robot--inject-200"><path d="M531.49,448c4.14-.45,54.89-2.86,55.6-2.86s2.72,9.11,2.25,10.31-40.6,13.89-48.62,14.59c-12.19,1.08-36.32-5.75-37.38-6.42s-.19-7.92.7-9.26C504.48,453.74,527.35,448.49,531.49,448Z" style="fill:#37474f"></path><path d="M505.43,456.16s7.1-16.33,15.89-22.24C524.78,431.59,543,427,543,427l31.54-8.57s8.36,12,9.15,15.36,2.05,15.35,2.05,15.35S549.64,463,538.49,463C518.83,463.05,505.43,456.16,505.43,456.16Z" style="fill:#FFC727"></path><path d="M535.1,252.47c-4.69,7.46-13,70.52-10.86,76.55s25.43,12.88,31.23,7.56,11.08-79.36,6.94-84.74-9.87-8.48-14.5-7.88S539.13,246.06,535.1,252.47Z" style="fill:#FFC727"></path><g style="opacity:0.2"><path d="M554.23,255.5a.83.83,0,0,1-1.08.45,1,1,0,0,1-.45-1.39.82.82,0,0,1,1.27-.34A1.08,1.08,0,0,1,554.23,255.5Zm0,0a.79.79,0,0,0-.36-1.06.63.63,0,0,0-.79.35.82.82,0,0,0,.17,1A.63.63,0,0,0,554.23,255.5Z"></path><path d="M554.46,264.64a.83.83,0,0,1-1.08.46,1,1,0,0,1-.45-1.39.83.83,0,0,1,1.28-.34A1.07,1.07,0,0,1,554.46,264.64Zm0,0a.78.78,0,0,0-.36-1.06.63.63,0,0,0-.79.36.84.84,0,0,0,.17.95A.62.62,0,0,0,554.46,264.64Z"></path><path d="M554.67,274a.83.83,0,0,1-1.08.45,1,1,0,0,1-.45-1.39.83.83,0,0,1,1.27-.34A1.08,1.08,0,0,1,554.67,274Zm0,0a.79.79,0,0,0-.36-1.06.63.63,0,0,0-.79.36.82.82,0,0,0,.17.94A.63.63,0,0,0,554.67,274Z"></path><path d="M554.06,283.37a.84.84,0,0,1-1.09.45,1,1,0,0,1-.44-1.39.83.83,0,0,1,1.27-.34A1.1,1.1,0,0,1,554.06,283.37Zm0,0a.79.79,0,0,0-.36-1.06.64.64,0,0,0-.8.36.82.82,0,0,0,.17.94A.63.63,0,0,0,554.06,283.37Z"></path><path d="M553.73,292.43a.83.83,0,0,1-1.08.45,1,1,0,0,1-.45-1.38.82.82,0,0,1,1.27-.35A1.08,1.08,0,0,1,553.73,292.43Zm0,0a.79.79,0,0,0-.36-1.06.63.63,0,0,0-.79.36.79.79,0,0,0,.17.94A.62.62,0,0,0,553.73,292.43Z"></path><path d="M553.11,300.7a.83.83,0,0,1-1.08.45,1,1,0,0,1-.45-1.39.83.83,0,0,1,1.27-.34A1.08,1.08,0,0,1,553.11,300.7Zm0,0a.79.79,0,0,0-.36-1.06.64.64,0,0,0-.79.35.82.82,0,0,0,.17.95A.63.63,0,0,0,553.11,300.7Z"></path><path d="M552.15,309a.83.83,0,0,1-1.08.45,1,1,0,0,1-.45-1.38.82.82,0,0,1,1.27-.35A1.08,1.08,0,0,1,552.15,309Zm0,0a.79.79,0,0,0-.36-1.06.63.63,0,0,0-.79.36.79.79,0,0,0,.17.94A.62.62,0,0,0,552.15,309Z"></path><path d="M551.23,317.11a.84.84,0,0,1-1.08.46,1,1,0,0,1-.45-1.39.82.82,0,0,1,1.27-.34A1.07,1.07,0,0,1,551.23,317.11Zm0,0a.79.79,0,0,0-.36-1.06.63.63,0,0,0-.79.36.79.79,0,0,0,.17.94A.62.62,0,0,0,551.23,317.11Z"></path><path d="M550.39,324.6a.83.83,0,0,1-1.08.45,1,1,0,0,1-.45-1.38.82.82,0,0,1,1.27-.34A1.07,1.07,0,0,1,550.39,324.6Zm0,0a.79.79,0,0,0-.36-1.06.63.63,0,0,0-.79.36.81.81,0,0,0,.17.94A.62.62,0,0,0,550.39,324.6Z"></path><path d="M549.06,332.31a.83.83,0,0,1-1.08.46,1.05,1.05,0,0,1-.45-1.39.82.82,0,0,1,1.27-.34A1.07,1.07,0,0,1,549.06,332.31Zm0,0a.79.79,0,0,0-.36-1.06.63.63,0,0,0-.79.36.79.79,0,0,0,.17.94A.62.62,0,0,0,549.06,332.31Z"></path><path d="M556.54,250.1a189.79,189.79,0,0,1,.56,21.2c-.14,7.07-.54,14.13-1.09,21.17-.32,3.52-.63,7-1,10.54s-.84,7-1.3,10.51-1,7-1.53,10.46l-1.82,10.4,1.62-10.44c.47-3.49,1-7,1.45-10.47s.89-7,1.22-10.5.69-7,1-10.54c.59-7,1-14.08,1.23-21.14.08-3.53.13-7.07.09-10.6S556.81,253.63,556.54,250.1Z"></path></g><path d="M524.33,343.65c-.73,4.9,17.29,76.67,20.41,79.55s25.74-2.44,29.3-8.48.07-44.07-1-51.37-17.1-28.75-18.79-27.73C539.77,344.37,525,339.37,524.33,343.65Z" style="fill:#FFC727"></path><g style="opacity:0.2"><path d="M551.91,346.65a.92.92,0,0,1-.9.81,1,1,0,0,1-.81-1.16.87.87,0,0,1,1.11-.77A1,1,0,0,1,551.91,346.65Zm0,0a.74.74,0,0,0-.64-.88.68.68,0,0,0-.65.62.77.77,0,0,0,.42.84A.67.67,0,0,0,551.91,346.65Z"></path><path d="M556.33,353a.91.91,0,0,1-.9.82,1,1,0,0,1-.81-1.16.87.87,0,0,1,1.11-.77A1,1,0,0,1,556.33,353Zm0,0a.73.73,0,0,0-.64-.87.68.68,0,0,0-.65.62.76.76,0,0,0,.42.83A.66.66,0,0,0,556.33,353Z"></path><path d="M560.54,359.18a.91.91,0,0,1-.9.82,1,1,0,0,1-.81-1.16.88.88,0,0,1,1.11-.78A1,1,0,0,1,560.54,359.18Zm0,0a.72.72,0,0,0-.64-.87.7.7,0,0,0-.65.62.77.77,0,0,0,.43.83A.66.66,0,0,0,560.54,359.18Z"></path><path d="M563.77,365.51a.9.9,0,0,1-.89.82,1,1,0,0,1-.82-1.16.88.88,0,0,1,1.12-.77A1,1,0,0,1,563.77,365.51Zm0,0a.72.72,0,0,0-.63-.87.68.68,0,0,0-.65.62.74.74,0,0,0,.42.83A.65.65,0,0,0,563.77,365.51Z"></path><path d="M565.28,373.72a.91.91,0,0,1-.9.82,1,1,0,0,1-.81-1.16.88.88,0,0,1,1.11-.78A1,1,0,0,1,565.28,373.72Zm0,0a.72.72,0,0,0-.63-.88.71.71,0,0,0-.66.62.78.78,0,0,0,.43.84A.66.66,0,0,0,565.28,373.72Z"></path><path d="M567,390.93a.91.91,0,0,1-.9.82,1,1,0,0,1-.81-1.16.88.88,0,0,1,1.11-.78A1,1,0,0,1,567,390.93Zm0,0a.73.73,0,0,0-.63-.88.71.71,0,0,0-.66.62.77.77,0,0,0,.43.84A.66.66,0,0,0,567,390.93Z"></path><path d="M568.94,408.82a.91.91,0,0,1-.9.82,1,1,0,0,1-.81-1.16.87.87,0,0,1,1.11-.77A1,1,0,0,1,568.94,408.82Zm0,0a.72.72,0,0,0-.64-.87.7.7,0,0,0-.65.62.76.76,0,0,0,.43.83A.65.65,0,0,0,568.94,408.82Z"></path><path d="M566.16,382.19a.91.91,0,0,1-.9.82,1,1,0,0,1-.81-1.16.88.88,0,0,1,1.11-.78A1,1,0,0,1,566.16,382.19Zm0,0a.74.74,0,0,0-.64-.88.69.69,0,0,0-.65.62.78.78,0,0,0,.42.84A.67.67,0,0,0,566.16,382.19Z"></path><path d="M567.68,399.72a.91.91,0,0,1-.9.81,1,1,0,0,1-.81-1.15.87.87,0,0,1,1.11-.78A1,1,0,0,1,567.68,399.72Zm0,0a.72.72,0,0,0-.64-.88.69.69,0,0,0-.65.62.78.78,0,0,0,.43.84A.66.66,0,0,0,567.68,399.72Z"></path><path d="M552,341.32c3.48,4.85,6.89,9.77,10.09,14.87.8,1.27,1.6,2.55,2.33,3.89.38.66.73,1.33,1.07,2,.17.34.31.73.46,1.09s.21.76.32,1.14a76.59,76.59,0,0,1,1.54,9.25c.7,6.21,1.19,12.44,1.65,18.66l.65,9.34c.2,3.12.4,6.23.68,9.34-.38-3.09-.69-6.2-1-9.3l-.82-9.33c-.56-6.21-1-12.43-1.8-18.61a77,77,0,0,0-1.46-9.16c-.1-.36-.18-.74-.3-1.1s-.26-.68-.42-1c-.33-.68-.67-1.34-1-2-.72-1.32-1.49-2.61-2.26-3.91-1.55-2.57-3.16-5.11-4.79-7.63S553.62,343.82,552,341.32Z"></path></g><path d="M523.83,336.78c.37-4.07,1.8-20.65,2.65-21.11s4.44-1.31,5.12.43,2.2,18.69,3.74,19.44,14.71,2.84,21.19-1.52c1.22-.82,1.64,5.41.47,6.45s-11.37,5.5-20.73,4c-1-.16-3.3,20.28-4.59,21.14s-4.58.75-5.39-.23S523.09,344.64,523.83,336.78Z" style="fill:#37474f"></path><path d="M538.6,340.31c-.2,8.14-4.56,14.61-9.74,14.45s-9.2-6.9-9-15.05,4.56-14.61,9.74-14.45S538.81,332.16,538.6,340.31Z" style="fill:#455a64"></path><path d="M544.74,423.2c-3.44-.69-2.07,5.44,4.68,6.51,10.25,1.62,25.65-6.48,26.81-10.29s-1.14-7.28-1.67-6S557,425.67,544.74,423.2Z" style="fill:#37474f"></path><path d="M537.24,240c-2.4,6.47,4.48,13.78,9.83,16.31,9.25,4.38,14.62,3,17.11-1.79,2.25-4.35.6-16.2-8.3-20.22C546.5,230.08,538.35,237,537.24,240Z" style="fill:#263238"></path><path d="M589.48,440.45l4-23.91,30.19-4.81s15,26.29,14.9,26.2S589.48,440.45,589.48,440.45Z" style="fill:#FFC727"></path><path d="M589.48,440.45l4-23.91,30.19-4.81s15,26.29,14.9,26.2S589.48,440.45,589.48,440.45Z" style="opacity:0.1"></path><path d="M581.23,455.37s27.18-2.55,31.68-3.14,36,3.14,36,3.14,1.47,8.23,1.3,9-28.65,12-40.86,11.39-30.59-9-30.57-9.63S581.23,455.37,581.23,455.37Z" style="fill:#37474f"></path><path d="M581.84,460.37s16.5,7.36,25.65,7.54,40.11-10,40.11-10-5.84-19.45-15.43-27.85-28.21-6.35-35.3-.85S581.84,460.37,581.84,460.37Z" style="fill:#FFC727"></path><path d="M592.48,244.9c5.47,6.73,20.69,68.12,19.26,74.4S588,335.69,581.6,331.23s-19.8-77.15-16.28-83.07,8.85-9.82,13.51-9.88S587.77,239.11,592.48,244.9Z" style="fill:#FFC727"></path><g style="opacity:0.2"><path d="M570.88,251.26a.82.82,0,0,1,1.3.16,1.07,1.07,0,0,1-.29,1.44.82.82,0,0,1-1.13-.3A1.09,1.09,0,0,1,570.88,251.26Zm.88,1.41a.83.83,0,0,0,.07-1,.63.63,0,0,0-.83-.24.81.81,0,0,0-.24,1.1A.62.62,0,0,0,571.76,252.67Z"></path><path d="M571.66,260.37a.82.82,0,0,1,1.3.16,1.06,1.06,0,0,1-.29,1.44.8.8,0,0,1-1.12-.3A1.08,1.08,0,0,1,571.66,260.37Zm.89,1.41a.83.83,0,0,0,.06-1,.61.61,0,0,0-.82-.24.8.8,0,0,0-.24,1.1A.62.62,0,0,0,572.55,261.78Z"></path><path d="M572.49,269.63a.81.81,0,0,1,1.29.16,1.06,1.06,0,0,1-.28,1.44.81.81,0,0,1-1.13-.3A1.09,1.09,0,0,1,572.49,269.63Zm.88,1.4a.82.82,0,0,0,.06-1,.61.61,0,0,0-.82-.24.79.79,0,0,0-.24,1.1A.61.61,0,0,0,573.37,271Z"></path><path d="M574.14,278.89a.81.81,0,0,1,1.3.16,1.06,1.06,0,0,1-.29,1.44.8.8,0,0,1-1.12-.3A1.07,1.07,0,0,1,574.14,278.89Zm.89,1.4a.82.82,0,0,0,.06-1,.61.61,0,0,0-.82-.24.79.79,0,0,0-.24,1.1A.61.61,0,0,0,575,280.29Z"></path><path d="M575.47,287.83a.82.82,0,0,1,1.3.16,1.07,1.07,0,0,1-.29,1.44.8.8,0,0,1-1.12-.3A1.08,1.08,0,0,1,575.47,287.83Zm.89,1.41a.85.85,0,0,0,.06-1,.61.61,0,0,0-.82-.24.8.8,0,0,0-.24,1.1A.62.62,0,0,0,576.36,289.24Z"></path><path d="M577,296a.81.81,0,0,1,1.3.16,1.06,1.06,0,0,1-.29,1.44.81.81,0,0,1-1.12-.3A1.07,1.07,0,0,1,577,296Zm.89,1.4a.83.83,0,0,0,.06-1,.61.61,0,0,0-.82-.24.79.79,0,0,0-.24,1.1A.61.61,0,0,0,577.89,297.35Z"></path><path d="M578.88,304.07a.81.81,0,0,1,1.3.15,1.08,1.08,0,0,1-.29,1.45.82.82,0,0,1-1.12-.3A1.07,1.07,0,0,1,578.88,304.07Zm.89,1.4a.83.83,0,0,0,.06-1,.62.62,0,0,0-.83-.24.8.8,0,0,0-.23,1.1A.62.62,0,0,0,579.77,305.47Z"></path><path d="M580.69,312a.81.81,0,0,1,1.3.15,1.07,1.07,0,0,1-.29,1.44.82.82,0,0,1-1.13-.29A1.09,1.09,0,0,1,580.69,312Zm.88,1.4a.82.82,0,0,0,.07-1,.63.63,0,0,0-.83-.25.82.82,0,0,0-.24,1.11A.62.62,0,0,0,581.57,313.37Z"></path><path d="M582.35,319.27a.82.82,0,0,1,1.3.16,1.07,1.07,0,0,1-.29,1.44.81.81,0,0,1-1.12-.29A1.09,1.09,0,0,1,582.35,319.27Zm.89,1.41a.83.83,0,0,0,.06-1,.62.62,0,0,0-.82-.25.8.8,0,0,0-.24,1.11A.62.62,0,0,0,583.24,320.68Z"></path><path d="M584.53,326.74a.8.8,0,0,1,1.29.15,1.07,1.07,0,0,1-.28,1.45.83.83,0,0,1-1.13-.3A1.09,1.09,0,0,1,584.53,326.74Zm.88,1.4a.82.82,0,0,0,.07-1,.62.62,0,0,0-.83-.24.81.81,0,0,0-.24,1.1A.62.62,0,0,0,585.41,328.14Z"></path><path d="M567.87,247.54a191.21,191.21,0,0,0,1.8,21.11c.92,7,2.1,13.94,3.42,20.85.71,3.45,1.42,6.89,2.22,10.31s1.61,6.83,2.45,10.24,1.79,6.77,2.68,10.16l3,10.06-2.76-10.13c-.86-3.39-1.8-6.77-2.6-10.18s-1.66-6.81-2.38-10.25-1.46-6.87-2.15-10.31c-1.37-6.89-2.59-13.82-3.56-20.8-.48-3.49-.92-7-1.27-10.5S568,251.08,567.87,247.54Z"></path></g><path d="M614.75,326.41c1,1.84,6.21,16.48,8.21,33.44,2.54,21.59,1.78,46.51.74,48.77-1.86,4.05-24.51,9.24-29.88,5.28s-11.05-39.07-12.28-47.65c-1-7.31-.5-33.77,1.4-33.58C599.29,334.25,612.67,322.75,614.75,326.41Z" style="fill:#FFC727"></path><g style="opacity:0.2"><path d="M586.85,335.33a.82.82,0,0,1,1.29.25,1.06,1.06,0,0,1-.36,1.42.83.83,0,0,1-1.11-.38A1.09,1.09,0,0,1,586.85,335.33Zm.81,1.46a.83.83,0,0,0,.12-1,.63.63,0,0,0-.81-.29.78.78,0,0,0-.3,1.08A.61.61,0,0,0,587.66,336.79Z"></path><path d="M587.16,344.48a.82.82,0,0,1,1.29.24,1.05,1.05,0,0,1-.37,1.42.81.81,0,0,1-1.1-.37A1.07,1.07,0,0,1,587.16,344.48Zm.81,1.46a.83.83,0,0,0,.12-1,.64.64,0,0,0-.82-.3.8.8,0,0,0-.29,1.09A.62.62,0,0,0,588,345.94Z"></path><path d="M587.5,353.78a.82.82,0,0,1,1.29.24,1.06,1.06,0,0,1-.36,1.42.82.82,0,0,1-1.11-.37A1.08,1.08,0,0,1,587.5,353.78Zm.81,1.45a.81.81,0,0,0,.12-1,.63.63,0,0,0-.81-.3.79.79,0,0,0-.3,1.09A.61.61,0,0,0,588.31,355.23Z"></path><path d="M588.67,363.13a.82.82,0,0,1,1.29.24,1.06,1.06,0,0,1-.36,1.42.83.83,0,0,1-1.11-.37A1.1,1.1,0,0,1,588.67,363.13Zm.82,1.46a.84.84,0,0,0,.11-1,.63.63,0,0,0-.81-.3.81.81,0,0,0-.3,1.09A.63.63,0,0,0,589.49,364.59Z"></path><path d="M589.54,372.14a.81.81,0,0,1,1.28.25,1.06,1.06,0,0,1-.36,1.42.82.82,0,0,1-1.11-.38A1.09,1.09,0,0,1,589.54,372.14Zm.81,1.46a.81.81,0,0,0,.11-1,.62.62,0,0,0-.81-.3.8.8,0,0,0-.3,1.08A.62.62,0,0,0,590.35,373.6Z"></path><path d="M590.64,380.35a.82.82,0,0,1,1.29.24,1.06,1.06,0,0,1-.36,1.42.82.82,0,0,1-1.11-.37A1.07,1.07,0,0,1,590.64,380.35Zm.81,1.46a.83.83,0,0,0,.12-1,.63.63,0,0,0-.81-.3.79.79,0,0,0-.3,1.09A.62.62,0,0,0,591.45,381.81Z"></path><path d="M592.09,388.58a.82.82,0,0,1,1.29.24,1.06,1.06,0,0,1-.36,1.42.83.83,0,0,1-1.11-.37A1.1,1.1,0,0,1,592.09,388.58Zm.82,1.46a.84.84,0,0,0,.11-1,.63.63,0,0,0-.81-.3.81.81,0,0,0-.3,1.09A.63.63,0,0,0,592.91,390Z"></path><path d="M593.49,396.58a.82.82,0,0,1,1.29.25,1.06,1.06,0,0,1-.36,1.42.83.83,0,0,1-1.11-.38A1.07,1.07,0,0,1,593.49,396.58Zm.81,1.46a.83.83,0,0,0,.12-1,.64.64,0,0,0-.82-.29.79.79,0,0,0-.29,1.08A.62.62,0,0,0,594.3,398Z"></path><path d="M594.77,404a.82.82,0,0,1,1.29.24,1.05,1.05,0,0,1-.37,1.42.81.81,0,0,1-1.1-.37A1.07,1.07,0,0,1,594.77,404Zm.81,1.46a.81.81,0,0,0,.11-1,.61.61,0,0,0-.81-.29.79.79,0,0,0-.29,1.08A.62.62,0,0,0,595.58,405.45Z"></path><path d="M596.55,411.58a.82.82,0,0,1,1.29.25,1.06,1.06,0,0,1-.36,1.42.83.83,0,0,1-1.11-.38A1.1,1.1,0,0,1,596.55,411.58Zm.81,1.46a.81.81,0,0,0,.12-1,.62.62,0,0,0-.81-.3.8.8,0,0,0-.3,1.08A.61.61,0,0,0,597.36,413Z"></path><path d="M584.18,333.67a182,182,0,0,0,.66,20.62c.55,6.85,1.35,13.68,2.3,20.48.52,3.39,1.05,6.78,1.66,10.16s1.25,6.74,1.9,10.1,1.42,6.7,2.13,10l2.42,10L593,405c-.67-3.36-1.43-6.69-2-10.06s-1.29-6.72-1.83-10.11-1.08-6.76-1.58-10.16c-1-6.78-1.85-13.59-2.45-20.43-.29-3.42-.54-6.85-.7-10.28S584.12,337.11,584.18,333.67Z"></path></g><path d="M607.53,323.32c-1.54-3.7-7.7-18.83-8.64-18.94s-4.57.41-4.71,2.31,3.35,18.47,2.11,19.75-7.28,5.87-14.67,4.17c-1.39-.32,0,5.71,1.43,6.26s6.55,3.25,15-1.65c.89-.52,7.93,19.46,9.4,19.79s4.54-1,5-2.23S610.5,330.48,607.53,323.32Z" style="fill:#37474f"></path><path d="M590.06,334.1c2.55,7.62,10.08,11.45,16.81,8.56s10.11-11.42,7.56-19-10.09-11.45-16.82-8.56S587.5,326.49,590.06,334.1Z" style="fill:#455a64"></path><path d="M623.6,407.8c2.89-2.22,3.86,4-1.92,8.11-8.75,6.23-25.74,6-28.17,3.06s-1.6-7.18-.65-6.25S613.28,415.76,623.6,407.8Z" style="fill:#37474f"></path><path d="M590.52,240c2.15,6.25-4.56,13-9.73,15.32-8.93,3.94-14,2.52-16.31-2.17-2.05-4.21-.23-15.48,8.35-19.09C581.88,230.27,589.52,237.11,590.52,240Z" style="fill:#263238"></path><path d="M541.77,219c-2.83,1.48-3.49,19.49-2.18,23.2,2.42,6.83,13.94,13.55,17.57,14.25s8.67,1.17,10.58,0,2.24-4,10.92-8.92c4.37-2.48,6.19-1.9,8.08-3.65s4-21,2.46-21.58C566.52,214.61,546.06,216.75,541.77,219Z" style="fill:#FFC727"></path><path d="M502.11,153.91c-3.85,3.4-7.37,24.22-3.1,28.07s41.6-8.84,44-11.77,12-21.93,8.39-22.71S510,146.9,502.11,153.91Z" style="fill:#FFC727"></path><g style="opacity:0.2"><path d="M540.17,164.78a.93.93,0,1,1,1-.68A.94.94,0,0,1,540.17,164.78Zm0,0a.71.71,0,0,0,.81-.71.72.72,0,0,0-.62-.68.7.7,0,1,0-.19,1.39Z"></path><path d="M531.58,167.27a.93.93,0,1,1,1-.68A.93.93,0,0,1,531.58,167.27Zm0,0a.7.7,0,1,0,.19-1.39.73.73,0,0,0-.78.49A.71.71,0,0,0,531.58,167.27Z"></path><path d="M523.41,169.94a.94.94,0,0,1-.81-.94.94.94,0,1,1,.81.94Zm0,0a.7.7,0,1,0,.19-1.39.7.7,0,0,0-.77.48A.71.71,0,0,0,523.41,169.94Z"></path><path d="M515.84,172.05a.94.94,0,0,1-.81-.94.94.94,0,1,1,1.84.26A.94.94,0,0,1,515.84,172.05Zm0,0a.7.7,0,1,0,.19-1.39.7.7,0,0,0-.77.48A.71.71,0,0,0,515.84,172.05Z"></path><path d="M508.09,173.83a.93.93,0,1,1,1-.68A.94.94,0,0,1,508.09,173.83Zm0,0a.7.7,0,1,0-.58-.91A.71.71,0,0,0,508.09,173.83Z"></path><path d="M500.56,175.58a.93.93,0,1,1,1-.68A.94.94,0,0,1,500.56,175.58Zm0,0a.71.71,0,0,0,.81-.71.71.71,0,0,0-1.39-.19A.71.71,0,0,0,500.56,175.58Z"></path><path d="M543.29,166.64q-5.1,1.92-10.28,3.64c-3.45,1.15-6.92,2.23-10.4,3.28s-7,2-10.52,2.88-7.08,1.65-10.67,2.24c3.56-.75,7.08-1.65,10.58-2.58s7-1.94,10.48-3,6.95-2.1,10.42-3.18S539.83,167.76,543.29,166.64Z"></path></g><path d="M487.25,178.35c-8.05-2.1-34.2-37-32.18-43s19.74-15.17,25-13,18.53,24.92,19.72,29.49S495.84,180.58,487.25,178.35Z" style="fill:#FFC727"></path><g style="opacity:0.2"><path d="M477.82,159.7a.94.94,0,0,1,.54-1.11.94.94,0,1,1,.49,1.8A.94.94,0,0,1,477.82,159.7Zm0,0a.72.72,0,0,0,1,.47.72.72,0,0,0-.37-1.36A.72.72,0,0,0,477.82,159.7Z"></path><path d="M473.14,153.28a.93.93,0,1,1,1,.68A.93.93,0,0,1,473.14,153.28Zm0,0a.7.7,0,1,0,.6-.89A.7.7,0,0,0,473.14,153.28Z"></path><path d="M468.57,147.05a.93.93,0,1,1,1,.68A.94.94,0,0,1,468.57,147.05Zm0,0a.7.7,0,1,0,1.35-.37.72.72,0,0,0-.75-.53A.71.71,0,0,0,468.57,147.05Z"></path><path d="M464.33,141.29a.93.93,0,1,1,1,.68A.93.93,0,0,1,464.33,141.29Zm0,0a.71.71,0,0,0,1,.46.71.71,0,0,0-.37-1.35A.71.71,0,0,0,464.33,141.29Z"></path><path d="M475.93,159.89a36.3,36.3,0,0,1-4.45-4.74c-1.36-1.7-2.61-3.47-3.83-5.27s-2.33-3.66-3.42-5.53l-1.57-2.85-1.49-2.89,3.37,5.56c1.15,1.83,2.28,3.67,3.5,5.46s2.43,3.57,3.72,5.3c.65.87,1.32,1.71,2,2.55A27.33,27.33,0,0,0,475.93,159.89Z"></path></g><path d="M491.86,182.12c-9.31-4-15.8-13.9-15.88-14.76s2.61-2.51,4.16-2.61,10.65,7.16,11.71,6,8.41-13.65,7.27-20.8c-.21-1.29,5.55.66,6,1.95s-2,13.55-6.1,21.18c-.44.81,15,1.91,15.22,3.26s1.17,3.52.17,3.94S501.47,186.3,491.86,182.12Z" style="fill:#37474f"></path><path d="M497.7,167.85c6.13,2.47,9.65,8.05,7.87,12.46s-8.19,6-14.32,3.5-9.65-8.05-7.87-12.46S491.57,165.38,497.7,167.85Z" style="fill:#455a64"></path><path d="M453.79,133.62c1.8,3.13,9.34,2.34,14.88-.33s12-7.74,11.42-10.89c-.42-2.2-4.92-4.62-15.74-.26S452.9,132.09,453.79,133.62Z" style="fill:#37474f"></path><path d="M455.46,131.63c3.82,2.15,19.26-5,21-9.41.57-1.45-5.85-24.17-9.7-25.17s-23.34,12.39-22.14,17.12S453.45,130.5,455.46,131.63Z" style="fill:#FFC727"></path><path d="M457.43,102.23c.81,1.42,4,1.56,6.52.27,3.49-1.82,4.49-3.92,4.12-5.3-.25-1-3-2.46-7.1-.35C457.67,98.55,456.78,101.1,457.43,102.23Z" style="fill:#37474f"></path><path d="M467.22,96.6c-1.29-3-6-10.88-7.3-11.22-3.78-1-6.6,2.53-6.35,4.33.15,1.07,2.6,11,4.93,11.76C462,102.62,468,98.44,467.22,96.6Z" style="fill:#FFC727"></path><path d="M453.26,89.65c1,1.11,3.42.54,5.19-.63,2.31-1.53,2.5-3.59,1.56-4.51-.62-.6-2.9-1-5,.95C453.56,86.86,452.44,88.77,453.26,89.65Z" style="fill:#37474f"></path><path d="M453,89.14c-2.78-1.14-8.61-4.23-10.48-7.4-1.24-2.11.2-3.29,2-3.15s13.29,3.84,14.53,6.06S455.27,90.07,453,89.14Z" style="fill:#FFC727"></path><rect x="413.46" y="60.18" width="35.45" height="55.85" transform="translate(783.46 351.88) rotate(-154.72)" style="fill:#37474f"></rect><rect x="446.94" y="68.95" width="5.65" height="55.85" transform="translate(815.1 376.52) rotate(-154.72)" style="fill:#263238"></rect><rect x="438.72" y="112.89" width="5.65" height="2.76" transform="translate(91.07 -177.6) rotate(25.28)" style="fill:#FFC727"></rect><rect x="438.72" y="112.89" width="5.65" height="2.76" transform="translate(91.07 -177.6) rotate(25.28)" style="opacity:0.1"></rect><rect x="405.24" y="104.11" width="35.45" height="2.76" transform="translate(85.54 -170.5) rotate(25.28)" style="fill:#FFC727"></rect><rect x="437.27" y="116.82" width="5.65" height="1.04" transform="translate(92.24 -176.68) rotate(25.28)" style="fill:#FFC727"></rect><rect x="437.27" y="116.82" width="5.65" height="1.04" transform="translate(92.24 -176.68) rotate(25.28)" style="opacity:0.1"></rect><rect x="403.79" y="108.04" width="35.45" height="1.04" transform="translate(86.72 -169.59) rotate(25.28)" style="fill:#FFC727"></rect><rect x="455.29" y="78.67" width="5.65" height="1.04" transform="translate(77.68 -188.03) rotate(25.28)" style="fill:#FFC727"></rect><rect x="455.29" y="78.67" width="5.65" height="1.04" transform="translate(77.68 -188.03) rotate(25.28)" style="opacity:0.1"></rect><rect x="421.81" y="69.89" width="35.45" height="1.04" transform="translate(72.15 -180.94) rotate(25.28)" style="fill:#FFC727"></rect><path d="M447.75,119.9c1.66.26,3.84-2.21,4.41-5,.79-4-.24-6.1-1.58-6.69-.93-.42-3.9.82-4.84,5.43C445,117.34,446.43,119.69,447.75,119.9Z" style="fill:#37474f"></path><path d="M446,118.56c-2.45-2.26-8.49-8.55-8.62-11.07s1.06-4.68,2.37-4.86,10.06,4.36,11,6.56S448.06,120.45,446,118.56Z" style="fill:#FFC727"></path><path d="M437.47,108.29c.84,1,3.15,0,4.28-1.54s1.22-3.57.14-4.15a3.27,3.27,0,0,0-4.09,1.84C436.92,106.12,436.75,107.41,437.47,108.29Z" style="fill:#37474f"></path><path d="M437.7,107.64c-1.31-.48-3.27-7.71-3.05-9.63s1.83-3.24,2.94-2.42,4.21,6.94,4.26,8C441.91,104.84,439.55,108.33,437.7,107.64Z" style="fill:#FFC727"></path><path d="M538.53,200.42c.05,2.38,1.17,21.25,3.28,23.37s11,6,17.76,7.23c9,1.7,21.23-.6,26-3.52s11.76-28.69,10.44-29.8-29.15-6.5-39.72-5.42S538.49,198.28,538.53,200.42Z" style="fill:#37474f"></path><path d="M542,222.72a92.94,92.94,0,0,0,10.33,4.5,37,37,0,0,0,11,2.45,57.36,57.36,0,0,0,11.2-.71,107,107,0,0,0,10.87-2.3,85.06,85.06,0,0,1-10.83,2.47,56.83,56.83,0,0,1-11.24.81,37.87,37.87,0,0,1-11.07-2.55A77.88,77.88,0,0,1,542,222.72Z" style="fill:#263238"></path><path d="M541.56,220.1a96.36,96.36,0,0,0,10.77,4.7,38.76,38.76,0,0,0,11.47,2.55,59.07,59.07,0,0,0,11.67-.74,110.28,110.28,0,0,0,11.34-2.4,88.45,88.45,0,0,1-11.29,2.57,59.4,59.4,0,0,1-11.72.84A39,39,0,0,1,552.26,225,79.46,79.46,0,0,1,541.56,220.1Z" style="fill:#263238"></path><path d="M541.2,217.65a98.76,98.76,0,0,0,11.15,4.88,39.88,39.88,0,0,0,11.88,2.64,61,61,0,0,0,12.09-.77,112.24,112.24,0,0,0,11.74-2.49,91.08,91.08,0,0,1-11.7,2.66,61.22,61.22,0,0,1-12.13.87,40.44,40.44,0,0,1-12-2.75A82.09,82.09,0,0,1,541.2,217.65Z" style="fill:#263238"></path><path d="M541.61,215.46a98.7,98.7,0,0,0,11.15,4.87A40.21,40.21,0,0,0,564.64,223a61.8,61.8,0,0,0,12.09-.77,114.86,114.86,0,0,0,11.74-2.49,92.79,92.79,0,0,1-11.7,2.66,62,62,0,0,1-12.13.87,41.08,41.08,0,0,1-11.95-2.75A83.34,83.34,0,0,1,541.61,215.46Z" style="fill:#263238"></path><path d="M541.25,212.86a101.42,101.42,0,0,0,11.55,5,41.39,41.39,0,0,0,12.3,2.74,62.91,62.91,0,0,0,12.51-.8,117.72,117.72,0,0,0,12.16-2.58A95.82,95.82,0,0,1,577.66,220a64.1,64.1,0,0,1-12.56.89,41.88,41.88,0,0,1-12.37-2.85A86.16,86.16,0,0,1,541.25,212.86Z" style="fill:#263238"></path><path d="M540.65,210a104.13,104.13,0,0,0,11.85,5.18A42.67,42.67,0,0,0,565.14,218a64.88,64.88,0,0,0,12.85-.83,115.71,115.71,0,0,0,12.48-2.65A97.17,97.17,0,0,1,578,217.37a65.15,65.15,0,0,1-12.9.92,43.55,43.55,0,0,1-12.7-2.92A89.42,89.42,0,0,1,540.65,210Z" style="fill:#263238"></path><path d="M540.18,207.31a109.72,109.72,0,0,0,12.31,5.39,44.32,44.32,0,0,0,13.12,2.92,66.85,66.85,0,0,0,13.35-.86,122.22,122.22,0,0,0,13-2.75A101.25,101.25,0,0,1,579,214.94a67.88,67.88,0,0,1-13.39.95,44.82,44.82,0,0,1-13.19-3A93.16,93.16,0,0,1,540.18,207.31Z" style="fill:#263238"></path><path d="M540,204.72a113,113,0,0,0,12.64,5.54,45.66,45.66,0,0,0,13.48,3,69.67,69.67,0,0,0,13.71-.88,126,126,0,0,0,13.32-2.83,105,105,0,0,1-13.27,3,70.11,70.11,0,0,1-13.76,1,46.23,46.23,0,0,1-13.55-3.11A96.28,96.28,0,0,1,540,204.72Z" style="fill:#263238"></path><path d="M540.45,202a112,112,0,0,0,12.64,5.54,46.14,46.14,0,0,0,13.48,3,69.83,69.83,0,0,0,13.72-.89,126.35,126.35,0,0,0,13.31-2.83,105,105,0,0,1-13.27,3,69.29,69.29,0,0,1-13.76,1A45.67,45.67,0,0,1,553,207.73,95,95,0,0,1,540.45,202Z" style="fill:#263238"></path><path d="M541,199.34a110.21,110.21,0,0,0,12.64,5.54,45.5,45.5,0,0,0,13.48,3,69.77,69.77,0,0,0,13.72-.88,125.85,125.85,0,0,0,13.31-2.84,104.65,104.65,0,0,1-13.27,3,70.05,70.05,0,0,1-13.76,1A45.93,45.93,0,0,1,553.53,205,93.82,93.82,0,0,1,541,199.34Z" style="fill:#263238"></path><path d="M541.46,196.66a110.37,110.37,0,0,0,12.64,5.53,45.36,45.36,0,0,0,13.48,3,69.72,69.72,0,0,0,13.71-.88,125.82,125.82,0,0,0,13.31-2.83,104.63,104.63,0,0,1-13.27,3,70.05,70.05,0,0,1-13.76,1A46.24,46.24,0,0,1,554,202.36,95.68,95.68,0,0,1,541.46,196.66Z" style="fill:#263238"></path><path d="M542,194a111.2,111.2,0,0,0,12.64,5.54,46,46,0,0,0,13.48,3,69.72,69.72,0,0,0,13.71-.89,126.54,126.54,0,0,0,13.32-2.83,105,105,0,0,1-13.27,3,69.35,69.35,0,0,1-13.76,1,45.6,45.6,0,0,1-13.55-3.11A95,95,0,0,1,542,194Z" style="fill:#263238"></path><path d="M556,145.86c-4.39-1.93-10.15,1.71-13.21,5.71-4.69,6.14-7.73,23.43-3.09,24.9S561.4,148.22,556,145.86Z" style="fill:#37474f"></path><path d="M573.25,140.19c-10.26,0-24.15,6-28.65,17.21-3.63,9-9.37,39.22-7.19,51.7.52,3,3.57,4.58,3.57,4.58,4.1,0,8.2-14.38,15.56-15.47,8.65-1.28,11.14,24.87,26.39,22.7,3.07-.44,9.81-5,12-9.7,1.85-4,10.41-42,6.75-53.92C598.86,148.09,584.29,140.23,573.25,140.19Z" style="fill:#FFC727"></path><g style="opacity:0.2"><path d="M590.76,180.2a1.13,1.13,0,1,1-.22-1.48A1.13,1.13,0,0,1,590.76,180.2Zm0,0a.85.85,0,1,0-1.29.18A.86.86,0,0,0,590.76,180.2Z"></path><path d="M588.82,189.61a1.13,1.13,0,0,1-1.44.42,1.14,1.14,0,1,1,1.44-.42Zm0,0a.85.85,0,1,0-1.43-.91.85.85,0,1,0,1.43.91Z"></path><path d="M587,198.77a1.13,1.13,0,1,1-1.9-1.21,1.13,1.13,0,1,1,1.9,1.21Zm0,0a.85.85,0,0,0-.38-1.24.86.86,0,0,0-.91,1.42A.86.86,0,0,0,587,198.77Z"></path><path d="M585.25,207.24a1.13,1.13,0,1,1-.23-1.48A1.13,1.13,0,0,1,585.25,207.24Zm0,0a.85.85,0,1,0-1.29.19A.87.87,0,0,0,585.25,207.24Z"></path><path d="M582.88,215.93a1.12,1.12,0,1,1-1.89-1.21,1.12,1.12,0,1,1,1.89,1.21Zm0,0a.85.85,0,1,0-1.43-.91.85.85,0,1,0,1.43.91Z"></path><path d="M593.57,177.81a83.22,83.22,0,0,1-1.46,10.54c-.66,3.48-1.45,6.94-2.3,10.38S588,205.58,587,209l-1.54,5.09-1.66,5.05,2.79-10.25c.91-3.42,1.84-6.84,2.67-10.28s1.67-6.87,2.43-10.33c.38-1.73.72-3.46,1-5.2S593.39,179.58,593.57,177.81Z"></path></g><path d="M593.88,149.86c4.79-.21,8.85,5.26,10.26,10.1,2.15,7.42-1.26,24.64-6.12,24.34S588,150.12,593.88,149.86Z" style="fill:#37474f"></path><path d="M553.53,166.15c-1.63,6,.88,12,5.61,13.25s9.88-2.58,11.52-8.62-.88-12-5.6-13.25S555.17,160.11,553.53,166.15Z" style="fill:#37474f"></path><path d="M554.19,166.29c-1.38,5.09.73,10.09,4.72,11.17s8.34-2.18,9.72-7.27-.74-10.09-4.73-11.17S555.56,161.19,554.19,166.29Z" style="fill:#FFC727"></path><path d="M648,199.13c5.39,6.35,5.48,42.53.4,46.24s-24.88,1-27.94-3.78-.81-31,.85-35.47S642.25,192.36,648,199.13Z" style="fill:#FFC727"></path><g style="opacity:0.2"><path d="M644.36,212.32a.93.93,0,1,1-1.74-.65.93.93,0,0,1,1.3-.51A1,1,0,0,1,644.36,212.32Zm0,0a.7.7,0,1,0-1,.37A.71.71,0,0,0,644.36,212.32Z"></path><path d="M644.39,220.27a.93.93,0,1,1-1.74-.65.93.93,0,1,1,1.74.65Zm0,0a.71.71,0,0,0-.52-.94.7.7,0,0,0-.79.45.7.7,0,1,0,1.31.49Z"></path><path d="M644.44,228a.92.92,0,0,1-1.09.58.94.94,0,1,1,1.09-.58Zm0,0a.7.7,0,1,0-1,.37A.71.71,0,0,0,644.44,228Z"></path><path d="M644.5,235.15a.93.93,0,1,1-.44-1.16A1,1,0,0,1,644.5,235.15Zm0,0a.7.7,0,1,0-1.31-.49.7.7,0,0,0,.3.86A.71.71,0,0,0,644.5,235.15Z"></path><path d="M646,213.28a34.09,34.09,0,0,1,.82,6.45c.12,2.17.09,4.34,0,6.51s-.25,4.33-.47,6.49L646,236l-.49,3.21.53-6.47c.14-2.16.31-4.32.36-6.48s.13-4.32.09-6.48c0-1.08-.06-2.16-.13-3.24A29.05,29.05,0,0,0,646,213.28Z"></path></g><path d="M623.54,202.3c5,1.31,24.23-7.33,25.06-13s-43.43-37.4-50.44-37.72c-3.75-.17-1.44,14.41.8,21.78C600,176.86,613.31,199.6,623.54,202.3Z" style="fill:#FFC727"></path><g style="opacity:0.2"><path d="M599.2,157.76a.93.93,0,1,1-1.17-.39A.95.95,0,0,1,599.2,157.76Zm0,0a.7.7,0,1,0-.35,1A.7.7,0,0,0,599.2,157.76Z"></path><path d="M606.49,163a.93.93,0,0,1-.23,1.21.94.94,0,1,1-1-1.6A.93.93,0,0,1,606.49,163Zm0,0a.7.7,0,1,0-1.21.71.7.7,0,1,0,1.21-.71Z"></path><path d="M613.64,167.71a.93.93,0,1,1-1.17-.39A.93.93,0,0,1,613.64,167.71Zm0,0a.7.7,0,1,0-.34,1A.71.71,0,0,0,613.64,167.71Z"></path><path d="M620,172.34a.93.93,0,1,1-1.18-.39A.94.94,0,0,1,620,172.34Zm0,0a.71.71,0,0,0-1.06-.19.69.69,0,0,0-.15.9.7.7,0,0,0,.86.31A.72.72,0,0,0,620,172.34Z"></path><path d="M626.2,177.31a.93.93,0,1,1-1.18-.39A.95.95,0,0,1,626.2,177.31Zm0,0A.7.7,0,1,0,625,178a.71.71,0,0,0,.86.31A.72.72,0,0,0,626.2,177.31Z"></path><path d="M632.24,182.13a.93.93,0,1,1-1.17-.39A.95.95,0,0,1,632.24,182.13Zm0,0a.7.7,0,1,0-1.21.71.71.71,0,0,0,.86.31A.72.72,0,0,0,632.24,182.13Z"></path><path d="M598.73,154.16Q603.41,157,608,160c3,2,6,4,9,6.12s5.91,4.23,8.78,6.46,5.7,4.54,8.38,7c-2.8-2.32-5.68-4.52-8.59-6.69s-5.86-4.29-8.83-6.37-6-4.15-9-6.21S601.76,156.18,598.73,154.16Z"></path></g><path d="M652.7,195.15c1.8,10-.28,20.83-1,21.37s-4.26-.63-5.2-1.86-1.75-12.94-3.27-13.21-15,.52-22.32,5.5c-1.08.73-1.55-5-.71-6s12.36-5.88,21-6.69c.92-.08-5.67-13.09-5.74-14.47-.12-2,2.53-3.6,3.43-3S650.83,184.84,652.7,195.15Z" style="fill:#37474f"></path><path d="M637.58,198.22c-1.34-6.47,1.34-12.5,6-13.47s9.52,3.49,10.87,10-1.34,12.5-6,13.47S638.93,204.69,637.58,198.22Z" style="fill:#455a64"></path><path d="M648.94,243.57c-.41-3.59-7.63-5.88-13.77-5.65s-14.11,2.27-14.83,5.4c-.5,2.18,2.65,6.2,14.32,6.54S649.14,245.33,648.94,243.57Z" style="fill:#37474f"></path><path d="M645.5,243.06c-3.09-3.1-19.91-.33-22.74,3.41-1,1.24-2.12,25.39,1.32,27.39s29.63-5.35,29.76-10.23S647.14,244.69,645.5,243.06Z" style="fill:#FFC727"></path><path d="M633.8,271.51c-.29-1.61-3.27-2.83-6-2.44-3.91.54-5.55,2.18-5.67,3.6-.08,1,2,3.33,6.57,2.72C632.33,274.89,634,272.79,633.8,271.51Z" style="fill:#37474f"></path><path d="M622.68,273.53c.23,3.21,2,12.25,3.12,13,3.22,2.21,7.06-.16,7.43-2,.21-1,1.24-11.22-.7-12.72C629.6,269.59,622.54,271.52,622.68,273.53Z" style="fill:#FFC727"></path><path d="M633.5,284.75c-.6-1.39-3-1.65-5.09-1.14-2.7.66-3.57,2.54-3,3.72.38.77,2.4,1.89,5,.77C632.28,287.29,634,285.85,633.5,284.75Z" style="fill:#37474f"></path><path d="M633,286.17c2,2.28,5.72,7.71,5.92,11.38.14,2.44-1.68,2.83-3.19,1.89s-10.06-9.5-10.15-12S631.45,284.3,633,286.17Z" style="fill:#FFC727"></path><path d="M642.57,269.18c-.35-1.61-3.37-2.72-6.13-2.24-3.89.67-5.48,2.37-5.54,3.8,0,1,2.13,3.26,6.66,2.49C641.22,272.6,642.84,270.45,642.57,269.18Z" style="fill:#37474f"></path><path d="M631.53,271.57c.33,3.2,2.41,12.18,3.55,12.9,3.29,2.09,7.06-.4,7.36-2.2.18-1.06.86-11.26-1.13-12.69C638.3,267.4,631.32,269.57,631.53,271.57Z" style="fill:#FFC727"></path><path d="M642.72,282.42c-.65-1.37-3.1-1.54-5.13-1-2.67.76-3.48,2.66-2.86,3.83.4.75,2.46,1.8,5,.6C641.59,285,643.23,283.51,642.72,282.42Z" style="fill:#37474f"></path><path d="M642.31,283.85c2,2.22,6,7.51,6.3,11.18.22,2.43-1.58,2.89-3.13,2s-10.37-9.16-10.55-11.7S640.65,282,642.31,283.85Z" style="fill:#FFC727"></path><path d="M649.64,265c-.64-1.44-3.71-1.89-6.22-.88-3.52,1.42-4.68,3.33-4.46,4.69.16.95,2.66,2.64,6.78,1C649.06,268.48,650.16,266.12,649.64,265Z" style="fill:#37474f"></path><path d="M639.72,269.45c1,2.95,4.72,11,5.94,11.44,3.53,1.31,6.57-1.79,6.49-3.55,0-1-1.45-10.78-3.61-11.73C645.27,264.16,639.12,267.61,639.72,269.45Z" style="fill:#FFC727"></path><path d="M652.44,277.43c-.88-1.16-3.22-.84-5,.11-2.36,1.25-2.74,3.21-1.93,4.18.53.63,2.69,1.21,4.84-.44C651.9,280.08,653.15,278.35,652.44,277.43Z" style="fill:#37474f"></path><path d="M652.35,278.86c2.35,1.68,7.13,5.87,8.18,9.26.69,2.25-.91,3-2.55,2.51s-11.61-6.54-12.28-8.9S650.43,277.48,652.35,278.86Z" style="fill:#FFC727"></path><path d="M655.08,260.12c-.94-1.12-3.78-.75-5.76.77-2.78,2.14-3.33,4.13-2.79,5.28.37.8,3,1.69,6.27-.79C655.43,263.38,655.82,261,655.08,260.12Z" style="fill:#37474f"></path><path d="M647.37,266.57c1.58,2.38,6.92,8.59,8.12,8.69,3.46.29,5.4-3.23,4.89-4.77-.3-.91-4-9.22-6.13-9.53C651,260.49,646.38,265.08,647.37,266.57Z" style="fill:#FFC727"></path><path d="M659.68,268.78c-1.23-.55-3,.74-4,2.3-1.37,2.05-.82,3.81.27,4.24.71.28,2.71-.2,3.74-2.48C660.4,271.18,660.66,269.22,659.68,268.78Z" style="fill:#37474f"></path><path d="M660.23,270c2.65.33,8.37,1.64,10.71,3.93,1.55,1.52.6,2.87-1,3.16s-12.3-.22-13.88-1.84S658.07,269.71,660.23,270Z" style="fill:#FFC727"></path><path d="M560.82,141.67c-1.67,2.29-3.81,11.66,3.28,13.41,8.43,2.08,15.75-6.12,16.64-10.84.63-3.33-2.6-4.69-2.6-4.69-2.92,7.19-6.23,13.63-13.42,12.38C560.19,151.15,560.82,141.67,560.82,141.67Z" style="fill:#37474f"></path><path d="M565.71,152.2c4.5.59,10.81-2.5,13.23-8.25.16-.4-.82-4.27-1.78-9-.57-2.9-1.14-6.13-1.45-9.12l-17.51,5.29a114.89,114.89,0,0,1,2.22,12.48,6.42,6.42,0,0,1,0,1.24c0,.06,0,.13,0,.21C560.27,147.38,561.36,151.63,565.71,152.2Z" style="fill:#FFC727"></path><path d="M558.2,131.09a.65.65,0,0,1,0,.1.93.93,0,0,0,0,.13v0a.75.75,0,0,1,0,.16l.06.25,0,.15c.06.25.13.56.2.91l0,.15a.24.24,0,0,1,0,.08c0,.07,0,.15.05.22a1.74,1.74,0,0,0,0,.22c.08.38.16.79.25,1.23s.17.84.26,1.29c0,.12,0,.24.07.36l.06.3c0,.27.1.53.15.81v.09c0,.12.05.24.07.36l0,.23c.07.43.15.86.22,1.28a2,2,0,0,0,0,.24c0,.12,0,.23.05.35s0,.31.07.47c.06.39.12.78.17,1.16h0a25.29,25.29,0,0,0,16.25-10.58c0-.22-.07-.44-.11-.66l-.06-.4a.13.13,0,0,1,0-.06l-.09-.58c0-.29-.09-.57-.13-.86s-.08-.55-.11-.83c-.09-.64-.16-1.27-.23-1.9Z" style="opacity:0.2"></path><path d="M572.34,129.36a.72.72,0,1,1,.92,1.09.72.72,0,0,1-.92-1.09Zm.81.95a.54.54,0,0,0,0-.7.54.54,0,0,0-.68-.12.55.55,0,0,0-.14.82A.55.55,0,0,0,573.15,130.31Z" style="opacity:0.1"></path><path d="M573.2,134.3a.72.72,0,1,1,.92,1.09.72.72,0,0,1-.92-1.09Zm.81,1a.54.54,0,0,0,0-.7.53.53,0,0,0-.68-.13.55.55,0,1,0,.69.83Z" style="opacity:0.1"></path><path d="M574.06,139.24a.72.72,0,1,1,.92,1.09.72.72,0,0,1-.92-1.09Zm.81,1a.54.54,0,0,0,0-.7.53.53,0,0,0-.68-.13.55.55,0,1,0,.69.83Z" style="opacity:0.1"></path><path d="M574.92,144.18a.72.72,0,1,1,.92,1.09.72.72,0,0,1-.92-1.09Zm.81,1a.56.56,0,0,0,0-.7.54.54,0,0,0-.69-.13.55.55,0,1,0,.69.83Z" style="opacity:0.1"></path><path d="M573.83,126.9a113.33,113.33,0,0,1,3.47,18.8,72.72,72.72,0,0,1-3.47-18.8Z" style="opacity:0.1"></path><path d="M576.39,125.63c3.1,3.18.68,9.44-8.14,12.29-10.57,3.42-13.3-2.82-12.43-6.56S573.32,122.49,576.39,125.63Z" style="fill:#37474f"></path><path d="M558.77,88.81a9.89,9.89,0,0,1,1.94.14l-4,2,.17-1.09Z" style="fill:#FFC727"></path><path d="M558.77,88.81a9.89,9.89,0,0,1,1.94.14l-4,2,.17-1.09Z" style="opacity:0.2"></path><path d="M557.48,112.64c-.45,6.14-4.1,10.88-8.15,10.59s-7-5.51-6.54-11.65,4.09-10.88,8.15-10.59S557.92,106.5,557.48,112.64Z" style="fill:#FFC727"></path><g style="opacity:0.2"><path d="M557.48,112.64c-.45,6.14-4.1,10.88-8.15,10.59s-7-5.51-6.54-11.65,4.09-10.88,8.15-10.59S557.92,106.5,557.48,112.64Z"></path></g><path d="M556.58,112.48c-.27,3.66-2.44,6.49-4.86,6.31s-4.16-3.28-3.9-6.94,2.44-6.48,4.86-6.31S556.84,108.82,556.58,112.48Z" style="fill:#FFC727"></path><g style="opacity:0.1"><path d="M556.58,112.48c-.27,3.66-2.44,6.49-4.86,6.31s-4.16-3.28-3.9-6.94,2.44-6.48,4.86-6.31S556.84,108.82,556.58,112.48Z"></path></g><path d="M549.71,117.86a2.8,2.8,0,0,0,.93.25c2.11.15,4-2.32,4.25-5.51s-1.3-5.92-3.41-6.07a2.9,2.9,0,0,0-2,.62h0a8.6,8.6,0,0,0-1.7,4.7A7.63,7.63,0,0,0,549.71,117.86Z" style="fill:#FFC727"></path><path d="M547,103.77c-1.85,3.46-2.48,7.48-3,11.33-.93-3.86-.1-8.6,3-11.33Z" style="fill:#fff;opacity:0.4"></path><path d="M575.52,126.34a19.22,19.22,0,0,1-5.43,4.13,15.81,15.81,0,0,1-11.81,1.3,13.42,13.42,0,0,1-7.14-5.26c-5.9-8.33-2.94-29.28,2.26-33.91,7.66-6.84,22.06-5.06,25.9,5.42C581.9,105.12,580.13,121.31,575.52,126.34Z" style="fill:#263238"></path><path d="M555.32,91.15c.2-.12.41-.23.62-.34a38.82,38.82,0,0,1,15.28-1l.64.27a38.55,38.55,0,0,0-16.6,1.11h0ZM553,93a38.5,38.5,0,0,1,19.34-1.4c1.08.21,2.11.46,3.08.75-.11-.1-.22-.2-.34-.29-.85-.24-1.75-.46-2.68-.64a38.85,38.85,0,0,0-19.13,1.31A3.44,3.44,0,0,0,553,93Zm-1.1,1.49a38.74,38.74,0,0,1,19.82-1.57,33.29,33.29,0,0,1,5.78,1.68l-.21-.28a33.49,33.49,0,0,0-5.52-1.57A38.85,38.85,0,0,0,552,94.26Zm-.73,1.36a38.87,38.87,0,0,1,19.92-1.6,32.37,32.37,0,0,1,7.7,2.51l-.13-.27a32,32,0,0,0-7.51-2.41,38.88,38.88,0,0,0-19.87,1.55Zm-.57,1.31a38.74,38.74,0,0,1,19.87-1.58,31.49,31.49,0,0,1,9.11,3.23c0-.09,0-.18-.08-.26a32.13,32.13,0,0,0-9-3.15A39.08,39.08,0,0,0,550.66,97,2,2,0,0,0,550.58,97.17Zm-.48,1.28a38.71,38.71,0,0,1,19.72-1.53,30.64,30.64,0,0,1,10.2,3.86c0-.09,0-.17,0-.25a31,31,0,0,0-10.1-3.79,38.94,38.94,0,0,0-19.69,1.49C550.15,98.31,550.13,98.38,550.1,98.45Zm-.4,1.25a38.81,38.81,0,0,1,19.5-1.46,29.89,29.89,0,0,1,11.09,4.46l0-.25a30.38,30.38,0,0,0-11-4.38,38.91,38.91,0,0,0-19.49,1.42Zm-.34,1.24a38.61,38.61,0,0,1,19.21-1.37,28.62,28.62,0,0,1,11.87,5v-.25a29,29,0,0,0-11.81-4.95,38.65,38.65,0,0,0-19.21,1.34A1.17,1.17,0,0,0,549.36,100.94Zm-.3,1.22a38.45,38.45,0,0,1,18.88-1.26c6.21,1.21,10.69,3.86,12.56,5.62v-.27c-2-1.78-6.42-4.34-12.5-5.52A38.7,38.7,0,0,0,549.1,102C549.09,102,549.07,102.1,549.06,102.16Zm-.26,1.22a38.44,38.44,0,0,1,18.52-1.15c6.77,1.32,11.48,4.35,13,6.07l.16-.11h0c-1.54-1.74-6.29-4.8-13.11-6.13a38.68,38.68,0,0,0-18.53,1.13C548.83,103.25,548.81,103.31,548.8,103.38Zm-.22,1.2a38.2,38.2,0,0,1,18.11-1c6.78,1.31,11.49,4.35,13,6.07l.17-.11c-1.54-1.74-6.29-4.81-13.11-6.14a38.56,38.56,0,0,0-18.14,1Zm-.19,1.21a38.23,38.23,0,0,1,17.68-.91c6.77,1.32,11.48,4.36,13,6.08l.16-.12c-1.53-1.73-6.29-4.8-13.11-6.13a38.51,38.51,0,0,0-17.7.88Zm-.16,1.2a38.1,38.1,0,0,1,17.21-.78c6.77,1.32,11.49,4.36,13,6.08l.17-.12c-1.53-1.74-6.29-4.81-13.11-6.13a38.29,38.29,0,0,0-17.24.75Zm-.13,1.19a37.91,37.91,0,0,1,16.72-.64c6.77,1.32,11.48,4.36,13,6.07l.16-.11c-1.53-1.74-6.29-4.81-13.11-6.14a38.19,38.19,0,0,0-16.75.64A1.1,1.1,0,0,1,548.1,108.18Zm-.09,1.2a37.57,37.57,0,0,1,16.18-.51c6.77,1.31,11.49,4.35,13,6.07l.17-.11c-1.53-1.74-6.29-4.81-13.11-6.14a38.26,38.26,0,0,0-16.23.5A1.28,1.28,0,0,0,548,109.38Zm-.07,1.2a37.43,37.43,0,0,1,15.63-.38c6.77,1.31,11.48,4.35,13,6.07l.16-.11c-1.53-1.74-6.29-4.81-13.11-6.14a38,38,0,0,0-15.68.37Z" style="fill:#455a64"></path><path d="M577.22,129c-6.42,7.93-14.43,8.83-18.74,7.57-3.07-.89-6.66-4.41-8.83-7.36-6.66-9-2.69-30.95,2.6-36.58a14.46,14.46,0,0,1,6.52-3.78c-5,3.45-5.41,14.5-5.41,14.5l12.6-.09s.7-12.19,6.14-14.11c0,0,5.61.66,9.39,9C584.88,105.6,582,123.1,577.22,129Z" style="fill:#FFC727"></path><g style="opacity:0.1"><path d="M580.34,122.78c-2.5-2.19-7.4-6.57-7.56-7.18a73.89,73.89,0,0,1-.26-10.09,126.59,126.59,0,0,1,6.29-11.84,20.91,20.91,0,0,1,2.68,4.46C584,103.75,583,115,580.34,122.78Z"></path><path d="M565.65,136.57a14.43,14.43,0,0,1-7.17,0,10.66,10.66,0,0,1-3.13-1.62,7.19,7.19,0,0,1,2-1.22,30.36,30.36,0,0,1,5.36.25A17.33,17.33,0,0,1,565.65,136.57Z"></path><path d="M546.39,119.57a29.21,29.21,0,0,0,1.74-3.78c.07-.53,1.87-12.2,1.81-12.93,0-.38-.43-2.63-.81-4.71h0l-.19.51v0a56.92,56.92,0,0,0-2,7.53.09.09,0,0,1,0,.05A47.77,47.77,0,0,0,546.39,119.57Z"></path></g><path d="M547.31,123.3c1.36,4.48,7,9.55,7.34,9.7.2.07.48-.21,1-.76a4.81,4.81,0,0,1,1.16-1,33.82,33.82,0,0,1,6.74.13,6.53,6.53,0,0,1,1.4,1.11c.87.79,1.41,1.27,1.69,1.23,2.49-.33,9.34-10.45,9.48-11.1.08-.36-.93-1.44-2.58-3.18a16,16,0,0,1-2.51-2.94c-.16-.83-.59-10.64-.32-11.59.22-.76,4.93-9.17,6.87-12.62l-.12-.12c-1.94,3.43-6.69,11.9-6.91,12.69-.28,1,.12,10.68.31,11.68a14.59,14.59,0,0,0,2.55,3c1.17,1.22,2.61,2.73,2.54,3-.14.64-6.88,10.64-9.33,11-.22,0-1-.65-1.55-1.19a6.59,6.59,0,0,0-1.47-1.15,34.66,34.66,0,0,0-6.85-.12,4.76,4.76,0,0,0-1.22,1c-.28.29-.71.73-.81.71s-5.85-5-7.24-9.59c-.2-.67.88-2.82,1.75-4.55a13.56,13.56,0,0,0,1.07-2.42c.16-1.13,1.45-13.23,1.37-14.1,0-.61-1-4.17-1.57-6.29a2.56,2.56,0,0,1-.11.24c.57,2.13,1.46,5.49,1.51,6.06.07.83-1.22,13-1.37,14.07a13.94,13.94,0,0,1-1.06,2.36C548.15,120.47,547.09,122.57,547.31,123.3Z" style="opacity:0.1"></path><path d="M565.56,123.59s-5.88.33-7,.33c-1.77,0-5.9-.39-5.9-.39a31.78,31.78,0,0,0,3.14,1,21.25,21.25,0,0,0,5.79,0C563.69,124.1,565.56,123.59,565.56,123.59Z" style="opacity:0.1"></path><path d="M562.2,125.87s-3.07.17-3.65.17c-.93,0-3.09-.21-3.09-.21a16.74,16.74,0,0,0,1.65.51,11.35,11.35,0,0,0,3,0C561.22,126.13,562.2,125.87,562.2,125.87Z" style="opacity:0.1"></path><path d="M562.3,119.91a10.42,10.42,0,0,1-2.63.71c-.62,0-2.1,0-2.54,0a4.15,4.15,0,0,1-1.8-.7s.81,1.15,1.53,1.34a10.84,10.84,0,0,0,3,0A7.58,7.58,0,0,0,562.3,119.91Z" style="opacity:0.1"></path><path d="M569.84,109.92c.42.3.44,7.5-.15,8s-20.13.31-20.53.23-.31-7.58-.06-8S569,109.29,569.84,109.92Z" style="fill:#263238"></path><path d="M570.51,111.81a16.49,16.49,0,0,1-.1,6.49.53.53,0,0,1-.33.32c-4.15.71-8.42.38-12.61.39-2.17,0-4.34-.09-6.51-.24,2.17.06,4.34,0,6.51.08,4,0,8.14.12,12.17-.31.26-.06.55-.07.62-.31a18.69,18.69,0,0,0,.25-6.42Z" style="opacity:0.1"></path><path d="M548.36,116.26a19.57,19.57,0,0,1,.06-6.39.71.71,0,0,1,.29-.43c2.51-.67,5.18-.47,7.76-.48l-3.64.23c-1.21.08-2.43.12-3.62.31-.69,0-.67.74-.79,1.3a26.23,26.23,0,0,0-.06,5.46Z" style="fill:#fff;opacity:0.4"></path><path d="M565.17,112c-2.38,0-2.25,4.75,0,4.77S567.18,112,565.17,112Z" style="fill:#FFC727"></path><g style="opacity:0.30000000000000004"><path d="M565.16,112.33c-2,0-1.93,4.07,0,4.09S566.87,112.35,565.16,112.33Z" style="fill:#fff"></path></g><path d="M552.9,112.16c-2.39,0-2.26,4.75,0,4.77S554.9,112.17,552.9,112.16Z" style="fill:#FFC727"></path><g style="opacity:0.30000000000000004"><path d="M552.89,112.51c-2,0-1.93,4,0,4.07S554.59,112.53,552.89,112.51Z" style="fill:#fff"></path></g><path d="M554.74,92.08c-2.15,1.83-3,4.76-4.06,7.3-.89,2.31-1.81,5.77-2.51,8.17,0-4.66,2.08-13.24,6.57-15.47Z" style="fill:#fff;opacity:0.4"></path><path d="M587.55,113.73c-.45,6.14-4.1,10.88-8.15,10.59s-7-5.51-6.54-11.65S577,101.79,581,102.09,588,107.59,587.55,113.73Z" style="fill:#FFC727"></path><g style="opacity:0.2"><path d="M587.55,113.73c-.45,6.14-4.1,10.88-8.15,10.59s-7-5.51-6.54-11.65S577,101.79,581,102.09,588,107.59,587.55,113.73Z"></path></g><path d="M586.65,113.5c-.2,3.66-2.32,6.52-4.74,6.39s-4.22-3.21-4-6.87,2.33-6.53,4.75-6.39S586.85,109.83,586.65,113.5Z" style="fill:#FFC727"></path><g style="opacity:0.1"><path d="M586.65,113.5c-.2,3.66-2.32,6.52-4.74,6.39s-4.22-3.21-4-6.87,2.33-6.53,4.75-6.39S586.85,109.83,586.65,113.5Z"></path></g><path d="M579.89,119a2.65,2.65,0,0,0,.93.23c2.11.11,4-2.39,4.14-5.59s-1.4-5.89-3.51-6a2.9,2.9,0,0,0-1.94.66h0a8.56,8.56,0,0,0-1.61,4.73A7.6,7.6,0,0,0,579.89,119Z" style="fill:#FFC727"></path><path d="M580.12,102.78a.72.72,0,1,1,.92,1.09.72.72,0,0,1-.94-.15A.7.7,0,0,1,580.12,102.78Zm.8,1a.53.53,0,0,0,0-.7.54.54,0,1,0-.82.69A.54.54,0,0,0,580.92,103.73Z" style="opacity:0.1"></path><path d="M576.6,104.76a.72.72,0,1,1,.92,1.1.72.72,0,0,1-.92-1.1Zm.81,1a.54.54,0,0,0,0-.7.54.54,0,1,0-.82.69A.55.55,0,0,0,577.41,105.72Z" style="opacity:0.1"></path><path d="M574.41,108.68a.71.71,0,0,1,1.07,0,.73.73,0,0,1-.16,1.06.71.71,0,0,1-.93-.15A.69.69,0,0,1,574.41,108.68Zm.8.95a.54.54,0,0,0,0-.7.55.55,0,0,0-.69-.12.54.54,0,1,0,.69.82Z" style="opacity:0.1"></path><path d="M573.69,113.63a.72.72,0,1,1,.91,1.09.72.72,0,0,1-.91-1.09Zm.8,1a.54.54,0,0,0-.69-.82.53.53,0,0,0-.13.81A.54.54,0,0,0,574.49,114.59Z" style="opacity:0.1"></path><path d="M576.85,121.71a.72.72,0,1,1,.91,1.09.72.72,0,0,1-.91-1.09Zm.8,1a.54.54,0,1,0-.82,0A.54.54,0,0,0,577.65,122.67Z" style="opacity:0.1"></path><path d="M580.66,122.4a.72.72,0,1,1,0,.95A.73.73,0,0,1,580.66,122.4Zm.81,1a.56.56,0,0,0,0-.7.54.54,0,0,0-.69-.13.55.55,0,1,0,.69.83Z" style="opacity:0.1"></path><path d="M584.1,120.1c.21-.22.61-.11.76.29a.81.81,0,0,1-.25,1c-.26.13-.54-.08-.65-.37A.86.86,0,0,1,584.1,120.1Zm.45,1.12a.69.69,0,0,0,.09-.68.4.4,0,0,0-.48-.28.59.59,0,0,0-.2.75C584.08,121.33,584.39,121.4,584.55,121.22Z" style="opacity:0.1"></path><path d="M586,117.35c.13-.18.37-.08.48.27s0,.75-.14.83-.33-.07-.41-.32A1,1,0,0,1,586,117.35Zm.3,1a.72.72,0,0,0,0-.58c-.05-.17-.18-.32-.3-.25s-.19.37-.11.64S586.21,118.47,586.3,118.32Z" style="opacity:0.1"></path><path d="M585.92,106.94c.13-.18.37-.08.48.27s0,.75-.14.83-.33-.07-.41-.32A1,1,0,0,1,585.92,106.94Zm.3,1a.72.72,0,0,0,0-.58c0-.17-.18-.32-.3-.25s-.19.37-.11.64S586.13,108.06,586.22,107.91Z" style="opacity:0.1"></path><path d="M583.81,104c.22-.22.61-.11.76.29a.8.8,0,0,1-.25,1c-.25.13-.53-.07-.64-.36A.89.89,0,0,1,583.81,104Zm.45,1.12a.65.65,0,0,0,.09-.67c-.08-.21-.27-.37-.47-.29a.6.6,0,0,0-.2.76C583.79,105.23,584.11,105.3,584.26,105.12Z" style="opacity:0.1"></path><path d="M574.4,118.08a.71.71,0,0,1,1.07,0,.72.72,0,0,1-.16,1.06.7.7,0,0,1-.93-.15A.69.69,0,0,1,574.4,118.08Zm.8,1a.54.54,0,0,0,0-.7.55.55,0,0,0-.69-.12.54.54,0,1,0,.69.82Z" style="opacity:0.1"></path><path d="M587.09,115.41c1.81,3.81-1.66,9.15-6.12,7.66a3.27,3.27,0,0,1-2.2-3.27c4.09,1.36,5.29-2.4,8.32-4.39Z" style="opacity:0.1"></path></g></svg>
