<svg xmlns="http://www.w3.org/2000/svg" viewBox="0 0 500 500"><g id="freepik--City--inject-60"><polygon id="freepik--city--inject-60" points="482.48 328.11 482.48 113.9 447.4 93.64 421.08 108.83 421.08 161.39 407.92 153.8 407.92 133.54 394.76 125.94 394.76 48.83 355.28 26.04 337.74 36.17 337.74 59.84 320.19 49.71 302.64 59.84 302.64 103.74 285.1 113.84 285.1 71.75 267.55 61.62 245.62 74.28 245.62 124.93 223.69 112.27 223.69 31.23 197.37 16.03 166.66 33.76 166.66 99.51 153.5 107.1 153.5 133.73 135.96 143.86 135.96 52.79 114.03 40.13 87.71 55.32 87.71 76.95 74.55 84.55 74.55 142.98 57 153.11 57 113.57 30.68 98.38 17.52 105.97 17.52 328.11 482.48 328.11" style="fill:#f5f5f5"></polygon></g><g id="freepik--Fence--inject-60"><g id="freepik--fence--inject-60"><g id="freepik--Puck--inject-60"><path d="M40.37,143.71a1.23,1.23,0,0,0-.73-1,3.92,3.92,0,0,0-3.56,0,1.25,1.25,0,0,0-.74,1V313.85a1.25,1.25,0,0,0,.74,1,3.92,3.92,0,0,0,3.56,0,1.23,1.23,0,0,0,.73-1Z" style="fill:#ebebeb"></path><path d="M36.08,142.68a1.08,1.08,0,0,0,0,2,3.92,3.92,0,0,0,3.56,0,1.08,1.08,0,0,0,0-2A3.92,3.92,0,0,0,36.08,142.68Z" style="fill:#f0f0f0"></path></g><g id="freepik--puck--inject-60"><path d="M119.51,96.1a1.23,1.23,0,0,0-.73-1,3.92,3.92,0,0,0-3.56,0,1.25,1.25,0,0,0-.74,1V266.25a1.27,1.27,0,0,0,.74,1,4,4,0,0,0,3.56,0,1.26,1.26,0,0,0,.73-1Z" style="fill:#ebebeb"></path><path d="M115.22,95.08a1.25,1.25,0,0,0-.74,1,1.26,1.26,0,0,0,.74,1,3.92,3.92,0,0,0,3.56,0,1.24,1.24,0,0,0,.73-1,1.23,1.23,0,0,0-.73-1A3.92,3.92,0,0,0,115.22,95.08Z" style="fill:#f0f0f0"></path></g><g id="freepik--puck--inject-60"><path d="M203.55,73.5a1.26,1.26,0,0,0-.73-1,4,4,0,0,0-3.56,0,1.27,1.27,0,0,0-.74,1V243.65a1.27,1.27,0,0,0,.74,1,4,4,0,0,0,3.56,0,1.26,1.26,0,0,0,.73-1Z" style="fill:#ebebeb"></path><path d="M199.26,72.47a1.27,1.27,0,0,0-.74,1,1.26,1.26,0,0,0,.74,1,3.92,3.92,0,0,0,3.56,0,1.24,1.24,0,0,0,.73-1,1.26,1.26,0,0,0-.73-1A4,4,0,0,0,199.26,72.47Z" style="fill:#f0f0f0"></path></g><g id="freepik--puck--inject-60"><path d="M457,143.71a1.25,1.25,0,0,1,.74-1,3.92,3.92,0,0,1,3.56,0,1.23,1.23,0,0,1,.73,1V313.85a1.23,1.23,0,0,1-.73,1,3.92,3.92,0,0,1-3.56,0,1.25,1.25,0,0,1-.74-1Z" style="fill:#ebebeb"></path><path d="M461.32,142.68a1.08,1.08,0,0,1,0,2,3.92,3.92,0,0,1-3.56,0,1.08,1.08,0,0,1,0-2A3.92,3.92,0,0,1,461.32,142.68Z" style="fill:#f0f0f0"></path></g><g id="freepik--puck--inject-60"><path d="M377.88,96.1a1.25,1.25,0,0,1,.74-1,3.92,3.92,0,0,1,3.56,0,1.23,1.23,0,0,1,.73,1V266.25a1.26,1.26,0,0,1-.73,1,4,4,0,0,1-3.56,0,1.27,1.27,0,0,1-.74-1Z" style="fill:#ebebeb"></path><path d="M382.18,95.08a1.23,1.23,0,0,1,.73,1,1.24,1.24,0,0,1-.73,1,3.92,3.92,0,0,1-3.56,0,1.26,1.26,0,0,1-.74-1,1.25,1.25,0,0,1,.74-1A3.92,3.92,0,0,1,382.18,95.08Z" style="fill:#f0f0f0"></path></g><g id="freepik--puck--inject-60"><path d="M293.84,73.5a1.27,1.27,0,0,1,.74-1,4,4,0,0,1,3.56,0,1.27,1.27,0,0,1,.74,1V243.65a1.27,1.27,0,0,1-.74,1,4,4,0,0,1-3.56,0,1.27,1.27,0,0,1-.74-1Z" style="fill:#ebebeb"></path><path d="M298.14,72.47a1.27,1.27,0,0,1,.74,1,1.26,1.26,0,0,1-.74,1,3.92,3.92,0,0,1-3.56,0,1.26,1.26,0,0,1-.74-1,1.27,1.27,0,0,1,.74-1A4,4,0,0,1,298.14,72.47Z" style="fill:#f0f0f0"></path></g><path d="M482.89,277.61c-12.09-17.8-31.07-34.49-56.94-48.82-97.17-53.81-254.73-53.81-351.9,0-25.87,14.32-44.85,31-56.94,48.82v68.32H482.89Z" style="fill:#f0f0f0"></path><path d="M482.89,279.61a2,2,0,0,1-1.65-.87C468.92,260.61,450,244.39,425,230.54c-96.48-53.43-253.48-53.43-350,0-25,13.85-43.94,30.06-56.26,48.19a2,2,0,0,1-3.31-2.24C28.13,257.83,47.52,241.2,73.08,227c97.56-54,256.29-54,353.84,0,25.56,14.16,44.95,30.79,57.63,49.45a2,2,0,0,1-.53,2.78A2,2,0,0,1,482.89,279.61Z" style="fill:#ebebeb"></path><path d="M482.89,176.35a.49.49,0,0,1-.41-.21c-12.46-18.33-31.56-34.7-56.77-48.67-96.89-53.65-254.53-53.65-351.42,0-25.22,14-44.32,30.34-56.77,48.66a.5.5,0,0,1-.69.14.51.51,0,0,1-.14-.7c12.55-18.46,31.76-34.93,57.12-49C171,72.8,329,72.8,426.19,126.6c25.36,14,44.57,30.52,57.12,49a.51.51,0,0,1-.14.7A.46.46,0,0,1,482.89,176.35Z" style="fill:#e0e0e0"></path></g></g><g id="freepik--Floor--inject-60"><ellipse id="freepik--floor--inject-60" cx="250" cy="355.71" rx="239.7" ry="138.39" style="fill:#fafafa"></ellipse></g><g id="freepik--Clouds--inject-60"><path id="freepik--Cloud--inject-60" d="M431.49,31.65c0-2.67-2.93-4.53-6.25-4.84-3.91-.37-6.69,1.37-6.78,4.45-2.56-1.05-5.26-.37-5,2.44-.67-.77-3.16-.75-4.05-.53a3.46,3.46,0,0,0-2.23,1.9,2.5,2.5,0,0,0-.23,1.44c-1.49-.49-4.89-.79-5.73.58-1.51,2.43,4.52,2.51,5.73,1.77.26,1.9,6.75,2.21,8.32.46,1.22,1.23,3,1.51,4.88,1.62,3.21.19,5.18-.9,7.68-2.17,2.72,2.3,7.43,2.34,9.88-.29.62.59,2.35.77,3.73.44.9-.22,1.11-.6,1.11-.6a8.61,8.61,0,0,0,1.67.5c1.77.37,5.08,0,3.7-1.63a4.22,4.22,0,0,0-2.94-.72c-.78-1.52-3.89-3-5.68-1.68-.07-1.85-1.76-3.29-4.14-3.66C434.32,31,432.4,30.9,431.49,31.65Z" style="fill:#f5f5f5"></path><path id="freepik--cloud--inject-60" d="M52.71,55.08c0-3.08-3.38-5.22-7.2-5.58-4.5-.43-7.7,1.58-7.8,5.13-3-1.21-6.05-.44-5.82,2.8-.77-.88-3.63-.86-4.66-.61A4,4,0,0,0,24.66,59a2.92,2.92,0,0,0-.26,1.65c-1.72-.56-5.62-.9-6.6.67-1.74,2.8,5.2,2.89,6.61,2,.29,2.19,7.75,2.54,9.56.53,1.41,1.42,3.44,1.74,5.63,1.87,3.69.22,5.95-1,8.83-2.51C51.57,65.92,57,66,59.81,62.93c.72.68,2.7.89,4.29.51,1-.25,1.28-.69,1.28-.69a8.81,8.81,0,0,0,1.92.57c2,.43,5.85,0,4.25-1.86a4.81,4.81,0,0,0-3.38-.84c-.89-1.75-4.47-3.42-6.53-1.93-.08-2.13-2-3.79-4.76-4.22C56,54.33,53.76,54.21,52.71,55.08Z" style="fill:#f5f5f5"></path><path id="freepik--cloud--inject-60" d="M466.19,57.64c0-3.54-3.88-6-8.27-6.42-5.17-.48-8.85,1.82-9,5.9-3.38-1.39-6.95-.5-6.68,3.22-.88-1-4.18-1-5.36-.7a4.65,4.65,0,0,0-3,2.51,3.41,3.41,0,0,0-.3,1.9c-2-.64-6.46-1-7.58.77-2,3.22,6,3.32,7.59,2.35.34,2.51,8.91,2.92,11,.6,1.62,1.64,3.95,2,6.47,2.15,4.24.25,6.84-1.19,10.15-2.88,3.6,3,9.82,3.11,13.06-.38.83.78,3.11,1,4.94.59,1.19-.29,1.47-.8,1.47-.8a10.51,10.51,0,0,0,2.2.66c2.35.49,6.73,0,4.89-2.14-.62-.73-2.91-1.18-3.88-1-1-2-5.15-3.93-7.51-2.22-.09-2.45-2.33-4.36-5.47-4.85C469.93,56.78,467.4,56.64,466.19,57.64Z" style="fill:#f5f5f5"></path></g><g id="freepik--Shadows--inject-60"><ellipse id="freepik--Shadow--inject-60" cx="365.66" cy="409.81" rx="75.94" ry="43.85" style="fill:#e0e0e0"></ellipse><ellipse id="freepik--shadow--inject-60" cx="132.88" cy="414.5" rx="73.12" ry="42.22" style="fill:#e0e0e0"></ellipse><path id="freepik--shadow--inject-60" d="M282,438.07l-2.42,1.4c-9,5.19-24.69,4.54-35.07-1.45l-85.68-49.39c-10.38-6-11.51-15.06-2.52-20.25l2.43-1.4c9-5.19,24.69-4.54,35.07,1.45l85.68,49.39C289.9,423.81,291,432.88,282,438.07Z" style="fill:#e0e0e0"></path></g><g id="freepik--Skateboard--inject-60"><g id="freepik--skateboard--inject-60"><path d="M179.19,386.46a9.77,9.77,0,0,0-3.75-7.14l-.09-.08L175,379l-.19-.13-.46-.24a3.48,3.48,0,0,0-2.74-.52,33.21,33.21,0,0,0-3.78,2,4,4,0,0,0-1.82,3.69,6.82,6.82,0,0,0,.07.79,9.94,9.94,0,0,0,3.56,6.4l.08.07a4.3,4.3,0,0,0,4.79.69c1.58-.84,2.15-1.19,3-1.63s1.69-1.57,1.68-3.58v-.1Z" style="fill:#BA68C8"></path><path d="M179.19,386.46a9.77,9.77,0,0,0-3.75-7.14l-.09-.08L175,379l-.19-.13-.46-.24a3.48,3.48,0,0,0-2.74-.52,33.21,33.21,0,0,0-3.78,2,4,4,0,0,0-1.82,3.69,6.82,6.82,0,0,0,.07.79,9.94,9.94,0,0,0,3.56,6.4l.08.07a4.3,4.3,0,0,0,4.79.69c1.58-.84,2.15-1.19,3-1.63s1.69-1.57,1.68-3.58v-.1Z" style="fill:#fff;opacity:0.6000000000000001"></path><path d="M166,384c0-2.79,2-3.92,4.37-2.52a9.66,9.66,0,0,1,4.37,7.57c0,2.79-2,3.92-4.37,2.52A9.63,9.63,0,0,1,166,384Z" style="fill:#fff;opacity:0.6000000000000001"></path><path d="M168,385.22c0-1.49,1.05-2.09,2.33-1.35a5.17,5.17,0,0,1,2.32,4c0,1.48-1,2.08-2.32,1.34A5.14,5.14,0,0,1,168,385.22Z" style="fill:#e0e0e0"></path><path d="M169.24,383.56a2.15,2.15,0,0,1,1,.31,5.17,5.17,0,0,1,2.32,4c0,1.05-.52,1.66-1.28,1.66a2.07,2.07,0,0,1-1-.32,5.14,5.14,0,0,1-2.33-4c0-1.05.53-1.66,1.29-1.66m0-.49h0c-1.06,0-1.77.86-1.77,2.15a5.59,5.59,0,0,0,2.57,4.44,2.52,2.52,0,0,0,1.28.39c1.06,0,1.77-.87,1.77-2.15a5.62,5.62,0,0,0-2.57-4.45,2.61,2.61,0,0,0-1.28-.38Z" style="fill:#263238"></path><path d="M169.31,386c0-.62.43-.88,1-.57a2.16,2.16,0,0,1,1,1.69c0,.62-.43.87-1,.56A2.13,2.13,0,0,1,169.31,386Z" style="fill:#455a64"></path><path d="M244.54,424.4a9.75,9.75,0,0,0-3.75-7.14l-.09-.09-.34-.21c-.07,0-.13-.1-.19-.13l-.46-.24a3.42,3.42,0,0,0-2.75-.52,33.29,33.29,0,0,0-3.78,2,4,4,0,0,0-1.81,3.69,6.85,6.85,0,0,0,.07.78,9.91,9.91,0,0,0,3.56,6.4l.08.08a4.3,4.3,0,0,0,4.79.68c1.57-.83,2.14-1.18,3-1.62s1.69-1.57,1.68-3.59v0S244.54,424.42,244.54,424.4Z" style="fill:#BA68C8"></path><path d="M244.54,424.4a9.75,9.75,0,0,0-3.75-7.14l-.09-.09-.34-.21c-.07,0-.13-.1-.19-.13l-.46-.24a3.42,3.42,0,0,0-2.75-.52,33.29,33.29,0,0,0-3.78,2,4,4,0,0,0-1.81,3.69,6.85,6.85,0,0,0,.07.78,9.91,9.91,0,0,0,3.56,6.4l.08.08a4.3,4.3,0,0,0,4.79.68c1.57-.83,2.14-1.18,3-1.62s1.69-1.57,1.68-3.59v0S244.54,424.42,244.54,424.4Z" style="fill:#fff;opacity:0.6000000000000001"></path><path d="M231.38,421.9c0-2.79,2-3.92,4.37-2.53a9.67,9.67,0,0,1,4.38,7.57c0,2.79-2,3.92-4.38,2.53A9.69,9.69,0,0,1,231.38,421.9Z" style="fill:#fff;opacity:0.6000000000000001"></path><path d="M233.3,423.15c0-1.48,1-2.08,2.33-1.34a5.14,5.14,0,0,1,2.32,4c0,1.48-1,2.08-2.32,1.34A5.12,5.12,0,0,1,233.3,423.15Z" style="fill:#e0e0e0"></path><path d="M234.59,421.49a2.21,2.21,0,0,1,1,.32,5.14,5.14,0,0,1,2.32,4c0,1.05-.52,1.66-1.29,1.66a2.14,2.14,0,0,1-1-.32,5.12,5.12,0,0,1-2.33-4c0-1,.53-1.66,1.29-1.66m0-.48h0c-1.06,0-1.77.86-1.77,2.14a5.6,5.6,0,0,0,2.56,4.45,2.61,2.61,0,0,0,1.28.38c1.06,0,1.78-.86,1.78-2.14a5.59,5.59,0,0,0-2.57-4.45,2.61,2.61,0,0,0-1.28-.38Z" style="fill:#263238"></path><path d="M234.65,423.93c0-.62.44-.87,1-.56a2.18,2.18,0,0,1,1,1.69c0,.62-.44.87-1,.56A2.16,2.16,0,0,1,234.65,423.93Z" style="fill:#455a64"></path><path d="M285.05,406.3,173.34,341.93c-5.68-3.07-11-3.81-16.93.42s-6.95,14.41-4,20.15,5.77,9.65,21,18.22S210.55,402,221,408.18s17.79,10.67,25.56,14.23c7.24,3.32,18.38,2.78,24.73,1.39s12.1-4,15.24-7.8S289.21,408.77,285.05,406.3Z" style="fill:#BA68C8"></path><path d="M157.71,342.22c-4.34,2.51-7.75,11.71-3.08,20s10.91,11.86,15.78,14.67l71,41a42,42,0,0,0,20.63,5.2c7.6,0,14.24-1.68,19.45-4.82s10.15-8,3-12.29-10.37-5.62-23.37-13.13L202,358.66c-9-5.18-26.1-15.87-30.43-17.57S163.21,339.05,157.71,342.22Z" style="fill:#455a64"></path><path d="M241,400a.7.7,0,0,1,0,1.32,2.54,2.54,0,0,1-2.28,0,.7.7,0,0,1,0-1.32A2.54,2.54,0,0,1,241,400Z" style="fill:#e0e0e0"></path><path d="M249.14,395.32a.69.69,0,0,1,0,1.31,2.48,2.48,0,0,1-2.28,0,.69.69,0,0,1,0-1.31A2.48,2.48,0,0,1,249.14,395.32Z" style="fill:#e0e0e0"></path><path d="M248.59,404.35a.7.7,0,0,1,0,1.32,2.54,2.54,0,0,1-2.28,0,.7.7,0,0,1,0-1.32A2.54,2.54,0,0,1,248.59,404.35Z" style="fill:#e0e0e0"></path><path d="M256.69,399.68a.69.69,0,0,1,0,1.31,2.48,2.48,0,0,1-2.28,0,.69.69,0,0,1,0-1.31A2.48,2.48,0,0,1,256.69,399.68Z" style="fill:#e0e0e0"></path><path d="M178.71,365a.7.7,0,0,1,0,1.32,2.54,2.54,0,0,1-2.28,0,.7.7,0,0,1,0-1.32A2.54,2.54,0,0,1,178.71,365Z" style="fill:#e0e0e0"></path><path d="M186.81,360.31a.7.7,0,0,1,0,1.32,2.52,2.52,0,0,1-2.27,0,.7.7,0,0,1,0-1.32A2.52,2.52,0,0,1,186.81,360.31Z" style="fill:#e0e0e0"></path><path d="M186.27,369.35a.7.7,0,0,1,0,1.32,2.54,2.54,0,0,1-2.28,0,.7.7,0,0,1,0-1.32A2.54,2.54,0,0,1,186.27,369.35Z" style="fill:#e0e0e0"></path><path d="M194.37,364.67a.7.7,0,0,1,0,1.32,2.54,2.54,0,0,1-2.28,0,.7.7,0,0,1,0-1.32A2.54,2.54,0,0,1,194.37,364.67Z" style="fill:#e0e0e0"></path></g></g><g id="freepik--character-2--inject-60"><g id="freepik--Chartacter--inject-60"><g id="freepik--Bottom--inject-60"><path d="M354.83,379.86l2.06-19L334,358.32s.87,15,.72,21.9c-.07,3.25-2.32,9.35-2.32,9.35s9,4.84,13.71,2.88,7.82-9.55,7.71-10.95Z" style="fill:#b16668"></path><path d="M306.08,412.54c-.32,0-.48,3,1.32,4.49,2.08,1.65,8.63,4.75,16.35,3.38s11.8-4,14.79-6.77,7.17-6.68,10.64-7.62a25.09,25.09,0,0,0,8.52-4.82c1-1.07.65-5.6.65-5.6Z" style="fill:#263238"></path><path d="M355,378s.42.21.67,1.25c.29,1.24.72,4.86,1.32,6.89.84,2.82,1.59,8.64,1.26,11s-6.39,5.42-9.72,6.88a43.38,43.38,0,0,0-10.69,7.54c-3.51,3.21-11,6.72-16.09,6.92-6,.23-12.81-1.43-14.49-4.17-2.06-3.39-3.64-7.36,5.05-11.93,1.64-.86,7.38-4.66,9.33-6,5.28-3.71,9-7.07,11.19-13.32a3.43,3.43,0,0,1,1.19-1.93,2.88,2.88,0,0,1,1.72-.24c1.49.15,7.42.7,8.8,1.29,1.21.52,2.93,1.11,3,2.66a5.74,5.74,0,0,1-.26,1.58c-.1.32-.16.74.12.92s.6-.05.82-.27a24,24,0,0,0,2.26-3,24.91,24.91,0,0,1,2.16-2.73,14.7,14.7,0,0,0,1.48-1.07A3.64,3.64,0,0,0,355,378Z" style="fill:#455a64"></path><path d="M337.86,411.59c1.49-1.36,3.08-2.69,4.68-3.88h0s-10.15,6.9-14.5,4.18c-2.8-1.76-1.61-4.1-1.58-4.83s-9.79-5.44-12.44-5.64h0a17.07,17.07,0,0,1-1.7,1c-6.8,3.12-7.55,6.78-6.2,11.28,1.68,2.73,7.82,5.36,15.55,5C326.73,418.47,334.35,414.8,337.86,411.59Z" style="fill:#37474f"></path><path d="M327.1,404.89c-5.42,2.49-3,3.42-1.46,3.57s10.59-5.76,16.05-10.55c5.69-5,10-11.56,12.12-13.4.79-.69,1.64-1.52,2.39-2.3-.21-1.22-.37-2.34-.51-2.92-.25-1-.67-1.25-.67-1.25a7,7,0,0,1-.9,2.2,14.7,14.7,0,0,1-1.48,1.07,24.91,24.91,0,0,0-2.16,2.73,23.19,23.19,0,0,1-2.26,3C343.68,393.46,332.51,402.41,327.1,404.89Z" style="fill:#37474f"></path><path d="M326,407.63a.58.58,0,0,0,.34-.15.54.54,0,0,0,0-.78c-1.64-1.86-9.23-6.1-13.27-5.46a.54.54,0,0,0-.45.63.53.53,0,0,0,.62.46c3.77-.59,11,3.64,12.29,5.11A.56.56,0,0,0,326,407.63Z" style="fill:#263238"></path><path d="M330.67,404.41a.55.55,0,0,0,.38-.92c-1.64-1.86-9.23-6.1-13.27-5.47a.56.56,0,0,0-.46.63.55.55,0,0,0,.63.46c3.77-.58,11,3.64,12.29,5.11A.52.52,0,0,0,330.67,404.41Z" style="fill:#263238"></path><path d="M335.35,401.35a.52.52,0,0,0,.34-.14.55.55,0,0,0,.05-.78c-1.65-1.86-9.24-6.11-13.28-5.47a.55.55,0,0,0-.45.63.53.53,0,0,0,.62.46c3.77-.58,11,3.64,12.29,5.12A.55.55,0,0,0,335.35,401.35Z" style="fill:#263238"></path><path d="M339.67,397.9a.51.51,0,0,0,.34-.14.56.56,0,0,0,0-.78c-1.65-1.86-9.25-6.1-13.27-5.47a.55.55,0,0,0-.46.63.54.54,0,0,0,.62.47c3.77-.58,11,3.63,12.3,5.11A.52.52,0,0,0,339.67,397.9Z" style="fill:#263238"></path><path d="M343.89,394.46a.52.52,0,0,0,.33-.14.56.56,0,0,0,.06-.78c-2.27-2.64-10.17-6.11-14.21-5.48a.55.55,0,0,0-.45.63.54.54,0,0,0,.62.47c3.63-.57,11.2,2.77,13.21,5.11A.56.56,0,0,0,343.89,394.46Z" style="fill:#263238"></path><path d="M390.71,387.53l-5.06-23.4,22.45-3.55.29,23.09s1.7,6.22.43,8.35-14.76,4.35-16,2.92S390.71,387.53,390.71,387.53Z" style="fill:#b16668"></path><path d="M392.84,424.39c.58,5.25,1.64,8.65,3.84,11.49s6.13,3.34,10,1.95,8.83-4.45,9.76-9.15.55-7.8-.56-12.59Z" style="fill:#263238"></path><path d="M408.39,383.67c1.63-.08,1.18,4.05,1.93,11.12.8,7.66,4.14,13.66,5.32,19.8,1.34,7,1.07,10.25-1.48,14.91S402.07,439.59,397,434c-4.14-4.55-4.55-10.12-4.51-17.3,0-7.41.13-12.63-.45-18.19-.56-5.3-2.71-10.21-1.33-11,.14.77,1.51,6.15,2.42,6.07a9.73,9.73,0,0,0-.07-2,2.35,2.35,0,0,1,.37-1.78,7.43,7.43,0,0,1,2.62-1.36c1.58-.49,4.41-1.09,6-1.42.8-.17,1.61-.3,2.42-.4a7.17,7.17,0,0,1,2.07,0,1.23,1.23,0,0,1,.91.61,2,2,0,0,1,.12.81,5.82,5.82,0,0,0,.27,1.44c.07.2.24.44.47.36s.25-.29.25-.46C408.56,388.53,408.45,384.13,408.39,383.67Z" style="fill:#455a64"></path><path d="M415.18,412.61c.2,1,1.47,7.71-.52,9.19-2.15,1.6-3.6-3.61-3.6-3.61s-5.24-.8-12.64,3.13c.43,1.06-.57,4.85-2.67,4.33s-3.25-8.23-3.26-8.33c0,6.88.49,12.26,4.51,16.68,5.07,5.59,14.61.16,17.16-4.5s2.82-7.9,1.48-14.91C415.5,413.89,415.35,413.23,415.18,412.61Z" style="fill:#37474f"></path><path d="M410.49,418.72c.15,2.58,2.91,1.36,2.87-2.3s-1.89-12.55-2.58-18.53c-.44-8.61-.76-14.3-2.39-14.22,0,.09,0,.18,0,.27s.16,4.9.18,5.46c.27,5.26.31,15.47,1,20.22A77,77,0,0,1,410.49,418.72Z" style="fill:#37474f"></path><path d="M399.29,421.14a73.92,73.92,0,0,1-2-8.86c-.78-4.71-3.49-14.12-4.83-19.19-.43-.83-1.8-5.56-1.8-5.56-1.13.33,0,4.84.51,7s1.16,4.37,1.81,7.4c1.66,6,1.8,14.93,2.87,18.36S399.93,423.61,399.29,421.14Z" style="fill:#37474f"></path><path d="M398.27,421.55l.21-.09a21.91,21.91,0,0,1,12.45-2.72.67.67,0,0,0,.72-.48.51.51,0,0,0-.46-.62,22.92,22.92,0,0,0-13.31,2.92.55.55,0,0,0-.22.77A.58.58,0,0,0,398.27,421.55Z" style="fill:#263238"></path><path d="M396.66,416.11a.8.8,0,0,0,.2-.07A27,27,0,0,1,410.8,413a.66.66,0,0,0,.7-.5.51.51,0,0,0-.48-.6,28.09,28.09,0,0,0-14.73,3.22.53.53,0,0,0,.37,1Z" style="fill:#263238"></path><path d="M410.16,407.72a.67.67,0,0,0,.5-.43.5.5,0,0,0-.41-.65c-7.38-1.34-14.41,2.91-14.71,3.09a.55.55,0,0,0-.22.77.62.62,0,0,0,.82.14c.07-.05,6.91-4.17,13.77-2.91A.7.7,0,0,0,410.16,407.72Z" style="fill:#263238"></path><path d="M409.52,402.76a.67.67,0,0,0,.49-.43.49.49,0,0,0-.39-.65c-8.12-1.62-14.73,2.89-15,3.09a.54.54,0,0,0-.17.77.63.63,0,0,0,.84.09c.06-.05,6.42-4.38,14-2.87A.76.76,0,0,0,409.52,402.76Z" style="fill:#263238"></path><path d="M408.78,397.18a.66.66,0,0,0,.48-.41.5.5,0,0,0-.38-.67c-7.61-1.63-14.81,3.06-15.11,3.26a.55.55,0,0,0-.19.77.6.6,0,0,0,.83.1c.07,0,7-4.56,14.09-3.05A.66.66,0,0,0,408.78,397.18Z" style="fill:#263238"></path><path d="M403.08,207.24c2,20.8,3.38,32.37,2.63,59.6-.28,10.32-1.37,22.26-1.36,32.59,0,2.92-.36,6.18.09,9.08.84,5.37,1.83,10.78,2.85,16.15A93.75,93.75,0,0,1,409,336.57c.36,6-.28,12.13.91,18a58.42,58.42,0,0,1,1.34,6.65,10.38,10.38,0,0,1-.3,3.64c-.34,1.19-1.3,2-1.68,3.06-.55,1.56-.08,3.92-.09,5.61,0,0-13.5,5.89-21.87,2.81-.38-1.5-.48-4-1.31-5.22-.59-.89-2-1.4-2.72-2.28a8,8,0,0,1-1.64-3.2,31.38,31.38,0,0,1-.41-5.05c-.32-4-2.08-7.66-3.32-11.45-3.32-10.22-2.63-21.05-4.65-31.49-2.73-14.1-4-23-5.55-33.06s-5.89,19.94-5.89,19.95A33.3,33.3,0,0,0,362,310c.11,3.57,0,7.07.42,10.59a76,76,0,0,1-.84,23.5c-.79,4.06-1.47,6.86-1.29,11,.11,2.44.51,4.59-.45,6.83-.68,1.61-1.66,2-2.52,3.5-.35.61-.41,5.49-.79,5.72,0,0-13.89,7.2-22.59-.17-.1-1.42.05-4.24-.52-5.5a7.73,7.73,0,0,1-2.53-5.36c-.15-2.29.56-4,.59-6.25a74.64,74.64,0,0,0-.69-8.43,96.8,96.8,0,0,1-.35-12c.09-3.49.69-7.19.19-10.62a142.16,142.16,0,0,1-1-17.52c-.49-22.72-.33-69,2.36-98.26Z" style="fill:#455a64"></path><path d="M391.05,234.52c0,23.73,9.23,30,13.56,31.81C404.61,266.33,395.07,255.79,391.05,234.52Z" style="fill:#37474f"></path><path d="M361.93,244l6.37,44.75c-.2-1.37-.41-2.76-.63-4.16-1.52-10-5.89,19.95-5.89,19.95L363,285a82.06,82.06,0,0,0-1.07-18.32l-3.81-19.23a22.36,22.36,0,0,1-13.45-10.65C349.86,241.94,361.93,244,361.93,244Z" style="fill:#263238"></path><path d="M409.37,374.37c-3.78,3-14.75,5.59-22.25,2.78l-1.49-6.51c5.66,2,17.34.75,23.63-3.22Z" style="fill:#263238"></path><path d="M356.52,371.94c-2.55,2.64-15.67,4.32-22.62.11l-.49-6.54c5.26,3,18.72,3,23.9-.05Z" style="fill:#263238"></path><path d="M405.54,271.44s-.79,29.8-.87,31.93-15.55,6.3-15.94,4.95c-.66-2.26-.48-7.28-1.74-31.47C399.79,275.17,405.54,271.44,405.54,271.44Z" style="fill:#37474f"></path><path d="M389.37,285.18a4.76,4.76,0,0,1,1.46-.12c.56,0,1.13,0,1.69-.09a25.09,25.09,0,0,0,3.56-.55,27.17,27.17,0,0,0,3.91-1.21c1-.41,2-.95,3.05-1.35.1,0,.11.15,0,.2a14.52,14.52,0,0,1-3.27,1.7,24.75,24.75,0,0,1-3.22,1.06,25.42,25.42,0,0,1-3.55.64c-.6.06-1.2.11-1.8.13a3.88,3.88,0,0,1-1.89-.14C389.28,285.4,389.27,285.21,389.37,285.18Z" style="fill:#263238"></path><path d="M395.93,281.87a.79.79,0,0,0,.26.66,1,1,0,0,0,1.11,0,1.11,1.11,0,0,0,.56-1.09,1,1,0,0,0-.39-.67,1.11,1.11,0,0,0-.77-.2c-.34,0-.45.23-.6.53A1.72,1.72,0,0,0,395.93,281.87Zm.64-.67a.55.55,0,0,1,.43-.11c.48.05.56.84.17,1.07a.63.63,0,0,1-.78-.15A.67.67,0,0,1,396.57,281.2Z" style="fill:#263238"></path></g><g id="freepik--Top--inject-60"><g id="freepik--Arm--inject-60"><path d="M280,181a15.48,15.48,0,0,1-7.94.52c-3.62-.47-5.39-1-7.39.08s-2.28,2.13-3.91,2.58a92.72,92.72,0,0,0-8.82,3.18,3.51,3.51,0,0,0-.64,5c-1.73,0-2.55,3.05.09,5.69-1.45.37-1.73,3.37,0,5-.61,1.07-.18,2.55,1.46,3.64a25.1,25.1,0,0,0,5,2.39c1.18.43,2.24.08,4-.8a16.78,16.78,0,0,0,3.34-2c1.35.16,4.58.81,10.61-3.5a28.54,28.54,0,0,1,9.35-4.84S287.12,183.44,280,181Z" style="fill:#b16668"></path><path d="M272.77,193.83a17.12,17.12,0,0,1-2.83-.58,7.31,7.31,0,0,1-1.32-.57,2.45,2.45,0,0,1-.83-.86l-.15-.32a10.18,10.18,0,0,0-.72-1.34,2.66,2.66,0,0,0-1.35-1.17,2.57,2.57,0,0,1,1.46,2,15.58,15.58,0,0,1,.61,2.77,7.5,7.5,0,0,1-.23,2.75,2.7,2.7,0,0,1-1.22,1.75l-.1.05a2.18,2.18,0,0,1-2.74-1.24c-1.12-2.15-2.35-4.22-3.34-6.41-1.5-2.83-.3-4.15,1.5-6.34-1.89,2-3.12,3.4-2,6.05l-.25-.19a3,3,0,0,0-.87-.38,1.52,1.52,0,0,0-.73-.09c-.06,0,0,.1,0,.11.24.09.49.12.72.22a3.12,3.12,0,0,1,.74.45,3.2,3.2,0,0,1,.52.52,2.48,2.48,0,0,1,.19.26,1.45,1.45,0,0,0,.17.18c.81,1.78,1.76,3.49,2.66,5.2-2.07,0-4.34.64-6.26-.16a7,7,0,0,1-1.3-.94c-1.25-1-2.65-2.12-3.87-3.16a29.82,29.82,0,0,0,5,4.47c2.12.83,4.31.08,6.45-.17l.3.56a2.85,2.85,0,0,0,1.34,1.36,1.9,1.9,0,0,0,.73.2c-2.17.74-4.44,2.4-6.71,2-2.31-.84-4.65-1.94-7-2.74,2.29,1.11,4.53,2.25,6.92,3.13,2.32.38,4.36-1.09,6.36-2.13a3.55,3.55,0,0,1,2.41,1c1.12,1.7-4.23,4.33-5.5,5a5.41,5.41,0,0,1-5.11.05,51.41,51.41,0,0,1-5.08-2,34.91,34.91,0,0,0,5,2.29,9.16,9.16,0,0,0,2.68.73,6.1,6.1,0,0,0,2.71-.71,25.25,25.25,0,0,0,4.1-2.5c1.09.91.08,2.48-.66,3.38,1.23-.69,2.09-2.8.71-3.42,1.18-.95,2-2,1.34-2.91a3.65,3.65,0,0,0-2.57-.86l.51-.26a2.35,2.35,0,0,0,2.39-1.57,7.84,7.84,0,0,0,.42-4.51A10.78,10.78,0,0,0,272.77,193.83Z" style="fill:#9a4a4d"></path><path d="M345.22,151.84,343.76,121c-10.35,2.88-13.08,6.12-22.27,21.87-7.5,12.85-14.71,25.76-14.71,25.76s-21.95,10.08-28.23,13l5,16.66c5.71-1.39,8.33-2.14,19.58-5.15,19.56-5.23,20.21-6.65,23.41-11.25,3.72-5.35,4.35-6.89,8.2-13.16C341.64,157.51,345.22,151.84,345.22,151.84Z" style="fill:#b16668"></path><path d="M343.93,120.53c-8.63,1.83-12.56,3.73-19.26,15.33S312,158.44,312,158.44s3,7.26,9.07,11.63,11.08,4.06,11.08,4.06L344,155.82Z" style="fill:#37474f"></path></g><g id="freepik--Chest--inject-60"><path id="freepik--chest--inject-60" d="M380.05,117.76c10.47,2.58,15.59,5.53,19.35,6.92,0,0,10.25,6.64,6.89,38-.48,4.43-1.65,17.13-1.68,27.82,0,7.6.85,30.26,1.14,35.55,0,0-20.66,5.63-50,2.12-23-2.75-25.36-13-25.36-13s.69-43.65,2-61.21c1.71-23.07,5-26.34,11.55-33.49.83-.48,16.51-2.7,16.51-2.7Z" style="fill:#f5f5f5"></path><path d="M340.79,141.09a83.83,83.83,0,0,0-1.71,15.12c11.37,4.19,25.27,7.44,38.73,7,.15-5.68.63-10.4,1.24-15.76C369.58,147.71,352.52,145.41,340.79,141.09Z" style="fill:#e0e0e0"></path></g><g id="freepik--Head--inject-60"><path d="M384.65,72s3.7.62,5.76,5.31c1,2.35,1.57,8-2.77,19.41a45.63,45.63,0,0,1-7,12.33,6,6,0,0,1-3.75,2.35l1-9,.88-7.75s-5.2-1.89-6-9.12c-.62-5.81,1.92-7.95,1.92-7.95Z" style="fill:#263238"></path><path d="M390.18,76.52c1.81-8.84-15-22-25.72-15.93-3.42-5-12.09-3.17-13.09,1.87-3-1.58-9.16,5.34-7.88,9.16-1.83,0-4,2.77-2.71,5.28s-.5,3.76-1.8,2.62c.11,3.29,5.07,3.47,6.1,1-.79,1.89,1.91,4,3.46,2.85,10,.25,20.82-.14,30.93.68Z" style="fill:#263238"></path><path d="M348.32,71.19c-2.16,1.84-5.3,6-6.46,22-.78,10.84,1.78,15.73,5.68,17.76a23.61,23.61,0,0,0,10.57,2.57l-.23,6.51c-9.74,8.64,16.1,11.59,22.81.12l.34-17.81c.65,1.34,4.12,2.31,6.79-.15,4.21-3.91,3.61-9.76.66-12s-7.46-2-9.25,2.31c-3.52,1.08-5.91-3.77-4.44-16.82C360.61,78.67,357.38,67.41,348.32,71.19Z" style="fill:#b16668"></path><path d="M358.11,113.52c11.39-.21,16.83-5.42,18.31-9.55,0,0,.26,7.18-7.75,10.48a22.34,22.34,0,0,1-10.56,1.83Z" style="fill:#9a4a4d"></path><path d="M353.62,101.43l7.55-2a3.71,3.71,0,0,1-2.61,4.74A4.14,4.14,0,0,1,353.62,101.43Z" style="fill:#9a4a4d"></path><path d="M356.87,104.24a4.2,4.2,0,0,0,1.69-.06,3.73,3.73,0,0,0,2.71-2.9A4.51,4.51,0,0,0,356.87,104.24Z" style="fill:#ffa8a7"></path><path d="M365.59,88.13a2.13,2.13,0,1,1-1.85-2.35A2.12,2.12,0,0,1,365.59,88.13Z" style="fill:#263238"></path><path d="M350.39,86.24a2.13,2.13,0,1,1-1.85-2.36A2.12,2.12,0,0,1,350.39,86.24Z" style="fill:#263238"></path><path d="M358.11,83.9l-3.75,13-6-3.16C351.44,87.82,355,84.9,358.11,83.9Z" style="fill:#9a4a4d"></path><path d="M345.32,82.37l5.05-1.07a2.49,2.49,0,0,0-3-2A2.68,2.68,0,0,0,345.32,82.37Z" style="fill:#263238"></path><path d="M368.5,84.31,364,81.67a2.51,2.51,0,0,1,3.5-1A2.72,2.72,0,0,1,368.5,84.31Z" style="fill:#263238"></path><g id="freepik--Cap--inject-60"><path d="M346.32,70.7c20.78.73,29.32,10.51,29.32,10.51,2.34,1.71,6.08,4.87,7.28,7.72a6.61,6.61,0,0,1,6.68,2.41,16.22,16.22,0,0,0,1.55-4.26c1.71-6.93,2.35-21.37-14-27.4-15-5.53-25.79-3.44-29.36,4.55A34.51,34.51,0,0,0,346.32,70.7Z" style="fill:#455a64"></path><path d="M376.15,79.27A28.42,28.42,0,0,0,367,67.42c-4.53-3.64-14.72-5.61-19.32-6.35-8-1.3-10.25.12-10.56,1.32-.07.29-.41,1.61-.49,1.91a1.23,1.23,0,0,0,0,.81c.89,2.1,6.82,6.51,6.82,6.51,10.51-1.08,22.75,2.83,32.15,9.59Z" style="fill:#BA68C8"></path><path d="M375.64,81.21c-9.4-6.76-21.9-10.26-32.15-9.59,0,0-5.93-4.41-6.82-6.51-.47-1.15.56-3.71,10.51-2.1,4.6.74,14.79,2.71,19.31,6.35A28.51,28.51,0,0,1,375.64,81.21Z" style="fill:#37474f"></path></g></g><path d="M435.79,235.51a9.72,9.72,0,0,0,4.23,6.86l.1.09.35.19.2.11a5,5,0,0,0,.48.21,3.44,3.44,0,0,0,2.77.33,33.17,33.17,0,0,0,3.63-2.26,4,4,0,0,0,1.55-3.81,6.49,6.49,0,0,0-.11-.77,10,10,0,0,0-4-6.14l-.08-.07a4.31,4.31,0,0,0-4.83-.36c-1.52,1-2.06,1.34-2.87,1.84s-1.58,1.68-1.43,3.69v.09Z" style="fill:#BA68C8"></path><path d="M435.79,235.51a9.72,9.72,0,0,0,4.23,6.86l.1.09.35.19.2.11a5,5,0,0,0,.48.21,3.44,3.44,0,0,0,2.77.33,33.17,33.17,0,0,0,3.63-2.26,4,4,0,0,0,1.55-3.81,6.49,6.49,0,0,0-.11-.77,10,10,0,0,0-4-6.14l-.08-.07a4.31,4.31,0,0,0-4.83-.36c-1.52,1-2.06,1.34-2.87,1.84s-1.58,1.68-1.43,3.69v.09Z" style="fill:#fff;opacity:0.6000000000000001"></path><path d="M449.08,237.1c.2,2.78-1.68,4-4.18,2.82a9.66,9.66,0,0,1-4.89-7.25c-.19-2.78,1.68-4,4.19-2.82A9.66,9.66,0,0,1,449.08,237.1Z" style="fill:#fff;opacity:0.6000000000000001"></path><path d="M447.08,236c.1,1.48-.89,2.15-2.22,1.5a5.12,5.12,0,0,1-2.6-3.86c-.1-1.48.89-2.15,2.22-1.5A5.12,5.12,0,0,1,447.08,236Z" style="fill:#e0e0e0"></path><path d="M443.53,231.87a2.14,2.14,0,0,1,1,.25,5.12,5.12,0,0,1,2.6,3.86c.08,1.09-.45,1.74-1.27,1.74a2.26,2.26,0,0,1-.95-.24,5.12,5.12,0,0,1-2.6-3.86c-.08-1.1.45-1.75,1.27-1.75m0-.48h0a1.63,1.63,0,0,0-1.24.52,2.23,2.23,0,0,0-.52,1.74,5.62,5.62,0,0,0,2.87,4.26,2.67,2.67,0,0,0,1.17.3,1.67,1.67,0,0,0,1.25-.52,2.29,2.29,0,0,0,.51-1.75,5.62,5.62,0,0,0-2.87-4.26,2.8,2.8,0,0,0-1.17-.29Z" style="fill:#263238"></path><path d="M445.68,235.29c0,.62-.37.9-.93.63a2.14,2.14,0,0,1-1.09-1.61c0-.62.37-.91.93-.63A2.13,2.13,0,0,1,445.68,235.29Z" style="fill:#455a64"></path><path d="M368,202.19a9.75,9.75,0,0,0,4.23,6.86l.1.09.36.18a1.32,1.32,0,0,0,.2.12l.47.21a3.44,3.44,0,0,0,2.77.33,34.23,34.23,0,0,0,3.64-2.26,4,4,0,0,0,1.55-3.81,6.5,6.5,0,0,0-.12-.77,10,10,0,0,0-4-6.14l-.08-.07a4.31,4.31,0,0,0-4.83-.36c-1.51,1-2.06,1.34-2.87,1.84s-1.57,1.68-1.43,3.69v.09Z" style="fill:#BA68C8"></path><path d="M368,202.19a9.75,9.75,0,0,0,4.23,6.86l.1.09.36.18a1.32,1.32,0,0,0,.2.12l.47.21a3.44,3.44,0,0,0,2.77.33,34.23,34.23,0,0,0,3.64-2.26,4,4,0,0,0,1.55-3.81,6.5,6.5,0,0,0-.12-.77,10,10,0,0,0-4-6.14l-.08-.07a4.31,4.31,0,0,0-4.83-.36c-1.51,1-2.06,1.34-2.87,1.84s-1.57,1.68-1.43,3.69v.09Z" style="fill:#fff;opacity:0.6000000000000001"></path><path d="M381.27,203.78c.19,2.78-1.68,4-4.19,2.82a9.71,9.71,0,0,1-4.89-7.25c-.19-2.79,1.69-4,4.19-2.82A9.67,9.67,0,0,1,381.27,203.78Z" style="fill:#fff;opacity:0.6000000000000001"></path><path d="M379.27,202.66c.1,1.48-.9,2.15-2.23,1.5a5.14,5.14,0,0,1-2.6-3.86c-.1-1.48.9-2.15,2.23-1.5A5.17,5.17,0,0,1,379.27,202.66Z" style="fill:#e0e0e0"></path><path d="M375.71,198.55a2.21,2.21,0,0,1,1,.25,5.17,5.17,0,0,1,2.6,3.86c.07,1.09-.46,1.74-1.28,1.74a2.29,2.29,0,0,1-.95-.24,5.14,5.14,0,0,1-2.6-3.86c-.07-1.1.45-1.75,1.27-1.75m0-.48h0a1.66,1.66,0,0,0-1.24.52,2.22,2.22,0,0,0-.51,1.74,5.57,5.57,0,0,0,2.87,4.26,2.6,2.6,0,0,0,1.16.3,1.67,1.67,0,0,0,1.25-.52,2.29,2.29,0,0,0,.51-1.75,5.62,5.62,0,0,0-2.87-4.26,2.76,2.76,0,0,0-1.17-.29Z" style="fill:#263238"></path><path d="M377.86,202c.05.62-.37.9-.93.63a2.17,2.17,0,0,1-1.09-1.62c0-.61.38-.9.94-.62A2.14,2.14,0,0,1,377.86,202Z" style="fill:#455a64"></path><path d="M328.81,223.05l115.9,56.48c5.88,2.67,11.24,3.05,16.85-1.59s5.94-14.85,2.62-20.38-6.42-9.22-22.16-16.72-38.59-18.66-49.45-24.09-18.49-9.42-26.49-12.43c-7.45-2.81-18.53-1.51-24.77.32s-11.79,4.82-14.66,8.84S324.49,220.88,328.81,223.05Z" style="fill:#BA68C8"></path><path d="M460.28,278.16c4.15-2.8,6.92-12.21,1.69-20.14s-11.7-11.08-16.76-13.55l-73.64-36a42.06,42.06,0,0,0-20.94-3.75c-7.59.53-14.1,2.66-19.07,6.16s-9.57,8.67-2.16,12.46,10.74,4.89,24.23,11.48l61.37,30c9.31,4.55,27.14,14,31.58,15.42S455,281.71,460.28,278.16Z" style="fill:#37474f"></path><path d="M373.15,226.3a.7.7,0,0,1-.09-1.32,2.56,2.56,0,0,1,2.27-.16.7.7,0,0,1,.1,1.32A2.58,2.58,0,0,1,373.15,226.3Z" style="fill:#e0e0e0"></path><path d="M365.39,231.52a.69.69,0,0,1-.09-1.31,2.52,2.52,0,0,1,2.28-.16.69.69,0,0,1,.09,1.31A2.51,2.51,0,0,1,365.39,231.52Z" style="fill:#e0e0e0"></path><path d="M365.32,222.47c-.66-.32-.7-.91-.1-1.31a2.52,2.52,0,0,1,2.28-.16.69.69,0,0,1,.09,1.31A2.5,2.5,0,0,1,365.32,222.47Z" style="fill:#e0e0e0"></path><path d="M357.56,227.69a.69.69,0,0,1-.09-1.31,2.56,2.56,0,0,1,2.27-.16.7.7,0,0,1,.09,1.32A2.53,2.53,0,0,1,357.56,227.69Z" style="fill:#e0e0e0"></path><path d="M437.75,256.9c-.65-.32-.7-.91-.09-1.31a2.5,2.5,0,0,1,2.27-.16c.65.32.7.91.09,1.31A2.5,2.5,0,0,1,437.75,256.9Z" style="fill:#e0e0e0"></path><path d="M430,262.13a.7.7,0,0,1-.09-1.32,2.53,2.53,0,0,1,2.27-.15c.66.32.7.9.1,1.31A2.52,2.52,0,0,1,430,262.13Z" style="fill:#e0e0e0"></path><path d="M429.91,253.07a.69.69,0,0,1-.09-1.31,2.51,2.51,0,0,1,2.28-.16.7.7,0,0,1,.09,1.32A2.55,2.55,0,0,1,429.91,253.07Z" style="fill:#e0e0e0"></path><path d="M422.16,258.3c-.66-.32-.7-.91-.1-1.31a2.52,2.52,0,0,1,2.28-.16.69.69,0,0,1,.09,1.31A2.5,2.5,0,0,1,422.16,258.3Z" style="fill:#e0e0e0"></path><g id="freepik--arm--inject-60"><path d="M399.4,125.73c9.25,3.43,12.11,4.8,18.17,22.9,5.7,17,8.58,25,10.95,33.64,2.06,7.48,1.3,9.49-3.6,23.11-2.56,7.09-12.73,29.82-14.68,37.39a29.74,29.74,0,0,1-7.37,12.5c-1,1.1-2.53,3.08-4,3.55-2.35.73-4.93-1.07-7.25-1.2-1.4-.08-2.88.34-4.16-.22s-1.9-1.68-3.09-2.07c-.78-.25-1.64-.11-2.41-.4-1.36-.51-1.73-2-1.69-3.31,0-.32.33-3.34.33-3.34l2.79,1.37c1.7-1.62,5.07-5,5.71-7.2.87-2.91-3-2.81-6.69-3a6.28,6.28,0,0,1-5.82-5.33c0-1.73,6.26.25,10.14-.74s9.3-2,11.66-4.44c3.59-3.7,8.13-39.27,8.13-39.27l-12.44-32.63S387.67,137.9,399.4,125.73Z" style="fill:#b16668"></path><path d="M399.4,124.68c8.71,3.95,11.6,4.37,15.1,13.65s11.57,32.6,11.57,32.6-.53,3.84-10,8.25c-8.89,4.15-13.56,2.68-13.56,2.68s-5.78-15.27-9.29-25.37S388,133.32,399.4,124.68Z" style="fill:#37474f"></path></g></g></g></g><g id="freepik--character-1--inject-60"><g id="freepik--chartacter--inject-60"><g id="freepik--bottom--inject-60"><path d="M84.87,390.32c1.29-15.09.08-21.43,1.64-45h0c.18-6,.48-12.51,1-18.26,1.61-19.34,4.71-25.92,5-29.65,0,0,0-23.21,1.76-65.54C95.11,212,101,206,105.83,195.46l58.94.66c3.11,26.36,2.93,75.26,2.43,102.15-.26,13.71-6.6,81.8-6.73,83.48-.47,6,0,8.35,2.37,10.9,4.92,5.32,12.07,10.42,18.25,15.08-.93,2.35-8.43,2.18-12.12.35a94.71,94.71,0,0,1-13.73-8.87c-5.08-3.8-11.59-6.87-11.61-12.57a5.4,5.4,0,0,0-.16-1c-.06-3.33-7.47-47.29-8-58.68-.44-9.8,1-26.4,1-26.4l-5.26-33.75s-3.34,17.56-7.53,34.25c-3.41,13.59-9.41,31.52-13.27,48.24h0c-3.73,19.28-9.06,33-10.06,42.62C100,394.21,97.1,416.83,96,422s-12.61,5.19-13.24-3.74C82.29,412.32,84.63,393.16,84.87,390.32Z" style="fill:#ffa8a7"></path><path d="M191.63,413.87c.31,0,.79,3.45-.94,4.92-2,1.69-7.82,4.47-15.53,3.48s-11.89-3.35-15-5.9-7.4-6.15-10.89-6.91c-3.24-.7-6.75-2.16-7.79-3.15s-.89-5.38-.89-5.38Z" style="fill:#263238"></path><path d="M143.33,384s-.58,0-.78,1c-.24,1.21-.5,4.74-1,6.72-.71,2.77-1.2,8.43-.77,10.68s5.7,3.82,9.07,5.09a43.13,43.13,0,0,1,10.93,6.83c3.62,2.95,11.24,5.91,16.26,6,7.68.11,12.65-1.94,14.18-4.66,1.91-3.37.42-5.32-8.39-9.36-1.67-.76-7.53-4.19-9.53-5.43a45.58,45.58,0,0,1-6-4.42,35.12,35.12,0,0,1-2.69-2.63,12,12,0,0,1-2.23-2.81c-.1-.23-.17-.5-.26-.74a13.14,13.14,0,0,1-.57-2c-.14-.72-.23-1.78-.92-2.21a5.94,5.94,0,0,0-3.16-.37,23,23,0,0,0-3.4.47c-1.29.29-2.8.4-3.57,1.6a6.39,6.39,0,0,0-.73,3.16c0,.5,0,1,0,1.52,0,.22.09.61-.22.52s-.62-.84-.73-1.1c-.24-.57-.4-1.18-.67-1.74a8.37,8.37,0,0,0-2.49-3.25,17.44,17.44,0,0,1-1.5-1A3.49,3.49,0,0,1,143.33,384Z" style="fill:#37474f"></path><path d="M184.24,407c-11.11.75-14.61,7.52-15.09,11.71a26.82,26.82,0,0,0,7.88,1.64c7.68.11,13-1.94,14.5-4.66C193.32,412.51,192.11,410,184.24,407Z" style="fill:#fafafa"></path><path d="M167.59,407.1a.59.59,0,0,1-.35-.12.53.53,0,0,1-.07-.75,13.14,13.14,0,0,1,10.05-3.91.53.53,0,1,1-.12,1.06A12.22,12.22,0,0,0,168,406.9.55.55,0,0,1,167.59,407.1Z" style="fill:#f0f0f0"></path><path d="M162.81,404.35a.54.54,0,0,1-.35-.13.53.53,0,0,1-.07-.75,13.1,13.1,0,0,1,10.05-3.9.53.53,0,1,1-.12,1.06,12.16,12.16,0,0,0-9.09,3.52A.55.55,0,0,1,162.81,404.35Z" style="fill:#f0f0f0"></path><path d="M158.38,401.2a.54.54,0,0,1-.34-.12.52.52,0,0,1-.08-.75,13.17,13.17,0,0,1,10-3.91.54.54,0,1,1-.12,1.07A12.19,12.19,0,0,0,158.8,401,.55.55,0,0,1,158.38,401.2Z" style="fill:#f0f0f0"></path><path d="M154,398.06a.54.54,0,0,1-.34-.12.53.53,0,0,1-.08-.75c2.13-2.65,6.94-4.4,11-4a.53.53,0,1,1-.12,1.06c-3.63-.39-8.11,1.21-10,3.56A.51.51,0,0,1,154,398.06Z" style="fill:#f0f0f0"></path><path d="M99.5,426.1c-.37,5.16-1.22,8.58-3.12,11.6s-5.41,3.92-8.95,3-8.06-3.36-9-7.83-1.52-7.54-.65-12.32Z" style="fill:#263238"></path><path d="M85,388.48c-1.47.1-2,7-2.91,14-1,7.44-3.28,10.5-4.16,16.6-1,7,.12,10.1,2.55,14.35S91.65,441.9,96,435.9c3.59-4.89,3.8-10.35,3.56-17.33a153.21,153.21,0,0,1,.68-17.66c.35-5.22,1.58-10.48.32-11.07-.11.76-.22,1.74-.33,2.49a12.48,12.48,0,0,1-.5,2.78c-.16.39-.49.79-.61.16a4.05,4.05,0,0,1,0-1.3c.24-1.93-.74-2.09-1.27-2.25a62.8,62.8,0,0,0-6.78-1c-1.11-.09-5-.3-5.48.32a4.29,4.29,0,0,0-.51,2c-.14,1-.4,1.81-.42,1.48-.06-.75.11-2.7.13-3.18s.11-1.07.12-1.52S85,388.93,85,388.48Z" style="fill:#37474f"></path><path d="M77.49,423.1a17.28,17.28,0,0,0,2.61,10.64c2.43,4.25,11.86,8.51,16.25,2.51,2.19-3,2.81-6.53,3.15-10.16C97,421.4,81.63,419.18,77.49,423.1Z" style="fill:#fafafa"></path><path d="M96.39,418.47l-.18-.06s-6.79-2.86-13.4-1.43a.54.54,0,1,1-.23-1.05c7-1.51,13.86,1.4,14.11,1.52a.54.54,0,0,1,.25.72A.55.55,0,0,1,96.39,418.47Z" style="fill:#f0f0f0"></path><path d="M83.2,411.78a.55.55,0,0,1-.46-.36.54.54,0,0,1,.35-.68c6.59-2.12,13.83,1.25,14.1,1.4a.52.52,0,0,1,.22.72.55.55,0,0,1-.73.22c-.07,0-7.12-3.3-13.25-1.32A.6.6,0,0,1,83.2,411.78Z" style="fill:#f0f0f0"></path><path d="M83.49,406.88a.56.56,0,0,1-.45-.36.53.53,0,0,1,.33-.68c7.25-2.47,14.12,1.2,14.37,1.36a.53.53,0,0,1,.17.74.55.55,0,0,1-.74.17c-.06,0-6.7-3.56-13.44-1.26A.5.5,0,0,1,83.49,406.88Z" style="fill:#f0f0f0"></path><path d="M83.91,402.05a.53.53,0,0,1-.45-.35.54.54,0,0,1,.32-.69c6.79-2.42,14.19,1.35,14.46,1.51a.53.53,0,0,1,.19.74.55.55,0,0,1-.74.19c-.06,0-7.23-3.68-13.54-1.43A.5.5,0,0,1,83.91,402.05Z" style="fill:#ebebeb"></path><path d="M99.65,195.59c-6.72,11.78-7,21.43-8.11,56.64s-.2,38.18-.39,42.43-2.78,11.8-5.23,32.7A214.77,214.77,0,0,0,85.4,368s1.48,3.38,9.57,4.19c7.47.74,11.2-2,11.2-2s11.11-35.37,14.09-47.94,10.82-47,10.82-47l3.85,25.87s-2.42,11.52-.36,29.89A271.32,271.32,0,0,0,140,362.72,36.16,36.16,0,0,0,152,365a20.05,20.05,0,0,0,10.46-2.78s6.51-49,6.75-69.83-1.4-70.85-3.12-95.83Z" style="fill:#37474f"></path><path d="M122.52,301s-3.16-4.63-11-5.66-12,3.16-12,3.16S114.11,297.12,122.52,301Zm-24,.57c10.16,2.1,14.82,1.74,19.48.88C118,302.43,103.35,300.44,98.5,301.55Z" style="fill:#ffa8a7"></path><path d="M169.06,297.8l.09-2.26c-6.79-1-17.64,1.08-20.57,2.7A101.21,101.21,0,0,1,169.06,297.8Zm-15.68,3.11c4.54,1.26,15.39,1.92,15.39,1.92l.13-2.11S161.15,300.4,153.38,300.91Z" style="fill:#ffa8a7"></path><path d="M86.78,369.48a10.54,10.54,0,0,0,1.1.72c-1.67-32.9,3.06-46.48,6-59,.28-1.21.54-2.36.79-3.45,2.2-9.81,1.43-15.68,1.59-31.86.05-4.86.1-9.89.21-15.23.13-6.25.4-12.72,1-19.12,11.62-1.24,14.28-12.53,17.62-26.79.46-1.95.93-4,1.44-6l-1-.25c-.52,2.07-1,4.09-1.45,6.05-3.35,14.28-5.81,24.66-16.49,25.94,1.44-14.53,4.65-28.59,12-38.69l-.86-.61c-10.92,15-12.84,38.5-13.28,59.48-.11,5.34-.16,10.38-.21,15.24-.16,16.12.61,21.94-1.57,31.64-.24,1.1-.51,2.24-.79,3.44C89.92,323.44,85.21,336.91,86.78,369.48Zm51.47-131-7.17,36.69,3.85,25.87.38-24.86,4.83-24.75c.13,2.47.28,5,.43,7.57,1.21,21.27,2,37.61.77,42.67-3.26,13.86-2.45,22.64-1,38.58.14,1.62.3,3.31.46,5.09.8,9,1.83,12.65,2.44,18.45l1.09.26c-.6-5.78-1.66-9.61-2.48-18.81-.16-1.77-.31-3.46-.46-5.08-1.45-15.83-2.25-24.56,1-38.26,1.22-5.2.53-20.57-.75-43-.23-4.06-.45-8-.66-11.74l1-4.46c5.1-1.14,13.28-4.89,14.85-11.79C148.9,239,138.25,238.53,138.25,238.53Z" style="fill:#263238"></path></g><g id="freepik--top--inject-60"><g id="freepik--arm--inject-60"><path d="M217.61,181a15.47,15.47,0,0,0,7.94.52c3.61-.47,5.39-1,7.39.08s2.27,2.13,3.91,2.58a92.72,92.72,0,0,1,8.82,3.18,3.53,3.53,0,0,1,.64,5c1.72,0,2.54,3.05-.09,5.69,1.45.37,1.72,3.37,0,5,.61,1.07.18,2.55-1.46,3.64a25.63,25.63,0,0,1-5,2.39c-1.18.43-2.24.08-4-.8a16.69,16.69,0,0,1-3.33-2c-1.36.16-4.58.81-10.62-3.5a28.47,28.47,0,0,0-9.34-4.84S210.44,183.44,217.61,181Z" style="fill:#ffa8a7"></path><path d="M224.78,193.83a17,17,0,0,0,2.84-.58,6.93,6.93,0,0,0,1.31-.57,2.28,2.28,0,0,0,.83-.86,3.18,3.18,0,0,0,.16-.32,11.44,11.44,0,0,1,.71-1.34A2.72,2.72,0,0,1,232,189a2.58,2.58,0,0,0-1.47,2,16.49,16.49,0,0,0-.6,2.77,7.5,7.5,0,0,0,.23,2.75,2.72,2.72,0,0,0,1.21,1.75l.11.05A2.17,2.17,0,0,0,234.2,197c1.13-2.15,2.35-4.22,3.35-6.41,1.5-2.83.3-4.15-1.5-6.34,1.89,2,3.12,3.4,2,6.05l.25-.19a3,3,0,0,1,.86-.38,1.56,1.56,0,0,1,.74-.09c.05,0,0,.1,0,.11-.23.09-.48.12-.71.22a3.12,3.12,0,0,0-.74.45,2.84,2.84,0,0,0-.52.52,2.56,2.56,0,0,0-.2.26,1,1,0,0,1-.17.18c-.8,1.78-1.76,3.49-2.65,5.2,2.06,0,4.34.64,6.25-.16a7.06,7.06,0,0,0,1.31-.94c1.25-1,2.65-2.12,3.87-3.16a29.89,29.89,0,0,1-5,4.47c-2.11.83-4.3.08-6.44-.17-.1.18-.21.37-.3.56a2.85,2.85,0,0,1-1.34,1.36,1.9,1.9,0,0,1-.73.2c2.17.74,4.43,2.4,6.7,2,2.31-.84,4.66-1.94,7-2.74-2.29,1.11-4.53,2.25-6.92,3.13-2.32.38-4.36-1.09-6.37-2.13a3.55,3.55,0,0,0-2.4,1c-1.13,1.7,4.23,4.33,5.5,5a5.41,5.41,0,0,0,5.11.05,51.41,51.41,0,0,0,5.08-2,34.91,34.91,0,0,1-5,2.29,9.31,9.31,0,0,1-2.69.73,6.09,6.09,0,0,1-2.7-.71,25.25,25.25,0,0,1-4.1-2.5c-1.09.91-.08,2.48.66,3.38-1.23-.69-2.09-2.8-.71-3.42-1.18-.95-2-2-1.34-2.91a3.64,3.64,0,0,1,2.56-.86l-.5-.26a2.35,2.35,0,0,1-2.39-1.57,7.92,7.92,0,0,1-.43-4.51A10.72,10.72,0,0,1,224.78,193.83Z" style="fill:#f28f8f"></path><path d="M152.34,151.84,153.8,121c10.35,2.88,13.08,6.12,22.27,21.87,7.49,12.85,14.7,25.76,14.7,25.76s22,10.08,28.24,13l-5,16.66c-5.7-1.39-8.32-2.14-19.57-5.15-19.56-5.23-20.21-6.65-23.41-11.25-3.72-5.35-4.35-6.89-8.2-13.16C155.92,157.51,152.34,151.84,152.34,151.84Z" style="fill:#ffa8a7"></path><path d="M153.28,120.2c5.89,1.23,11.16,2.94,15.33,9.07s16.67,28.08,18,29.56,2.82,1,3.56,3.18.15,1.87,2,3c3.86,2.22,1.85,5.16,1.85,5.16l-1-.45s-3.49-.14-6.93,3.89-4.69,13.31-1.36,16.83l2,.61a3.76,3.76,0,0,1-4.22,1.67c-2.7-.86-2.09-2.21-3.93-2.21s-3.55,1.11-5.27-.61-2-4.66-4.13-7-16.92-20.72-16.92-20.72Z" style="fill:#37474f"></path><path d="M188.59,164.92A13.42,13.42,0,0,0,184,167.7a17.39,17.39,0,0,0-3.41,4.09c-1.91,3.17-3,7.3-1.95,10.94,0,.17.27.21.29,0a42,42,0,0,1,.66-5.36,17,17,0,0,1,5.26-9,19.43,19.43,0,0,1,1.89-1.5c.71-.5,1.49-.88,2.21-1.35C189.33,165.3,188.92,164.82,188.59,164.92Z" style="fill:#263238"></path><path d="M187.21,162.71a15.62,15.62,0,0,0-9.33,3.54,17.12,17.12,0,0,0-3.43,3.63,11.74,11.74,0,0,0-1.25,2.21,7.23,7.23,0,0,0-.76,2.51c0,.13.23.47.37.27.5-.71.79-1.61,1.23-2.36a22.66,22.66,0,0,1,1.31-2,17.74,17.74,0,0,1,3.32-3.44,18.61,18.61,0,0,1,8.75-3.7C187.76,163.29,187.47,162.71,187.21,162.71Z" style="fill:#263238"></path><path d="M193.07,169.67l6.48,3s-5.58,1.08-8,7.93A20.8,20.8,0,0,0,191,192.2l-7.16-1.9a15.06,15.06,0,0,1-.66-12.67C186.08,171,190.69,169.3,193.07,169.67Z" style="fill:#455a64"></path></g><g id="freepik--chest--inject-60"><path id="freepik--chest--inject-60" d="M117.51,117.76C107,120.34,96.72,125.57,93,127c0,0-5.89,10.49-1.9,35.24.71,4.4,5,14.05,5,24.74,0,7.6-3.64,29.75-3.92,35.05,0,0,20.3,9.72,49.63,6.21,23-2.75,25.78-13.09,25.78-13.09s-1.1-43.53-2.4-61.09c-1.71-23.07-5.36-26.67-11.9-33.82-.83-.48-16.19-3.31-16.19-3.31Z" style="fill:#455a64"></path></g><path d="M92.48,128.08c-8.92,3.73-12.27,5-17.42,17.52-5,12.12-9.86,27.18-13.11,35.34-3.89,9.75-1,11.15,4.11,19.05,5.24,8.17,19.33,24.4,21.64,27.77a97,97,0,0,0,9.84,12.67c5.19,0,10.94-4.92,13.06-13-.64-.49-1.27-1-1.89-1.5a11.31,11.31,0,0,1-1.6-2.25c-.12-.16-.24-.38-.13-.55a.54.54,0,0,1,.5-.12c1.54.21,3,.66,4.55.95a10,10,0,0,0,4.61,0,2.44,2.44,0,0,0,1.27-.73,1.13,1.13,0,0,0,.09-1.37,1.89,1.89,0,0,0-.5-.38l-2.68-1.56a28.25,28.25,0,0,0-5.47-2.67c-1.2-.39-2.44-.61-3.65-.94-2.84-.78-6.5-2.28-8.33-4.69a76.39,76.39,0,0,1-8-13.6c-2.87-5.8-5.41-10.79-5.41-10.79l14.35-32.3S100.94,131.47,92.48,128.08Z" style="fill:#ffa8a7"></path><path d="M93,127c-5.55,1.89-11.31,2.41-16.9,14.46-4.59,9.91-8.8,20-13,30.07a18.76,18.76,0,0,1-2,3.94,33.7,33.7,0,0,0-3.32,4.48,8.86,8.86,0,0,0-.79,5.92c.23,1.06.66,2.08.82,3.16.3,1.89-.22,3.9.44,5.69A5,5,0,0,0,60.11,197c.8.59,1.55,1.77,2.35,2.32,1.68,1.17,2.54.09,3.21.53l-.81-1.61a15.61,15.61,0,0,1,8.63-8c6.18-2.12,12.59,1.21,12.59,1.21s1.22-.21.76-1.74a5,5,0,0,1,.53-4.65c1.13-2.06.73-4.91,2.26-8s10-21.38,10-21.38S103.28,134.45,93,127Z" style="fill:#37474f"></path><path d="M63.81,197.4l4.43,6.07s2.46-4.74,9.24-7.06,11.28,0,11.28,0L85.32,190A14.93,14.93,0,0,0,74,189.14,16.32,16.32,0,0,0,63.81,197.4Z" style="fill:#455a64"></path><path d="M84.47,186.94c-1.76-2.71-5.07-4-8.14-4.57a23.3,23.3,0,0,0-5.66-.25,46.35,46.35,0,0,0-5.86.91c-.22,0-.11.46.09.44a54.77,54.77,0,0,1,5.87-.41,25,25,0,0,1,5.11.33,17,17,0,0,1,4.24,1.31,24,24,0,0,1,4.22,2.51C84.53,187.34,84.54,187,84.47,186.94Z" style="fill:#263238"></path><path d="M85.19,184.9c-.74-2.5-3-4.37-5.21-5.57a12.59,12.59,0,0,0-7.91-1.57c-.29,0,0,.54.17.54a14.87,14.87,0,0,1,7.2,1.67,19.21,19.21,0,0,1,5.53,5.1C85.11,185.24,85.23,185,85.19,184.9Z" style="fill:#263238"></path><path d="M136.36,137.27c-2.77-3.56-17.57-11.41-20.81-13.21,0,0-.73-.63-.73-3.31V117.2a82.81,82.81,0,0,1,9.38-1.08c4.12-.14,12.93.76,12.93.76s5.33,5.81,6.7,9.13A33.59,33.59,0,0,1,136.36,137.27Z" style="fill:#fafafa"></path><g id="freepik--head--inject-60"><path d="M130.27,58.27c-19.72.42-25.57,10.17-27.1,19.44s5,21.27,11.26,29.52l34.84-26.44C152.37,71.24,145.37,57.94,130.27,58.27Z" style="fill:#BA68C8"></path><path d="M108.77,103.31c3.72,1.15,5.51-1.34,5.51-1.34l.54,18.78c4.64,5.11,13.1,7.82,20.48,6.28,4-.82,6.08-3.92,1.79-8.93l0-5.54a29.1,29.1,0,0,0,5.78-.53c4-.92,6.3-4.31,7.2-8.77,1.43-7.18.57-23.87-1.76-30.76-4.78-3.18-21.14-3-30.21,3.71,1.1,5.15.49,8-1.66,11.31.55,3.58-.35,5.27-1.37,5.5-1.92.43-2.37-1.65-3.7-2.86s-6.12-1.62-7.83,2.79S105.92,102.43,108.77,103.31Z" style="fill:#ffa8a7"></path><path d="M137.13,112.56c-6.49-.17-15.32-2.61-17.59-5.41a21.94,21.94,0,0,1-3.2-5.16,16.1,16.1,0,0,0,2.16,6.48c1.76,2.47,8.49,6.53,18.63,6.48Z" style="fill:#f28f8f"></path><path d="M131.24,86a1.91,1.91,0,1,1-3.8.28,1.91,1.91,0,1,1,3.8-.28Z" style="fill:#263238"></path><path d="M129.22,78.2l-4,3.13a2.67,2.67,0,0,1,.47-3.67A2.48,2.48,0,0,1,129.22,78.2Z" style="fill:#263238"></path><path d="M147.07,80.33l-4.69.12a2.25,2.25,0,0,1,2.2-2.42A2.45,2.45,0,0,1,147.07,80.33Z" style="fill:#263238"></path><path d="M147.12,85.11a1.91,1.91,0,1,1-2.05-1.83A1.94,1.94,0,0,1,147.12,85.11Z" style="fill:#263238"></path><path d="M138.93,96.09l6.73-3.39c-1-1.29-6.74-10-9.74-10.51C135.91,82.17,138.93,96.09,138.93,96.09Z" style="fill:#f28f8f"></path><path d="M131.83,97.66l6.43,2a3.3,3.3,0,0,1-4.14,2.34A3.51,3.51,0,0,1,131.83,97.66Z" style="fill:#b16668"></path><path d="M131.71,98.64a3.47,3.47,0,0,0,2.41,3.33,3.19,3.19,0,0,0,2.24-.14A5.16,5.16,0,0,0,131.71,98.64Z" style="fill:#f28f8f"></path></g><path d="M136.36,137.27c-3.37-4.68-8.59-8.45-13.48-11.63a40,40,0,0,1-8.12-7l-.07-2.27a90.9,90.9,0,0,0-9.71,3.14c-2.52,1.21-6.56,3.11-6,4.93l5.4-2.22a116.57,116.57,0,0,0,12.31,7.76A78.16,78.16,0,0,0,136.36,137.27Z" style="fill:#37474f"></path><path d="M136.36,137.27c.75-1.59,5.59-13.39.73-19.17l0-2.21s5.13.67,6.6,1c1.71.38,2.82.82,3.1,1.91C147,119.59,142.52,134,136.36,137.27Z" style="fill:#37474f"></path></g></g></g><g id="freepik--Lines--inject-60"><g id="freepik--lines--inject-60"><path d="M245.58,170c0-.11-.32-.43-.42-.2-.58,1.25-.5,2.68-.85,4a7.92,7.92,0,0,1-1.6,3.28,7.47,7.47,0,0,1-3.07,2,5.68,5.68,0,0,1-1.82.37,4.67,4.67,0,0,1-1.24-.14c-.42-.11-.8-.32-1.22-.42-.2,0-.41.09-.34.32.17.61.93.92,1.48,1.1a5.05,5.05,0,0,0,2.25.16,9,9,0,0,0,4.26-2,7.43,7.43,0,0,0,2.31-3.72,13.86,13.86,0,0,0,.41-2.3c0-.36.06-.72.07-1.08A4.63,4.63,0,0,0,245.58,170Z" style="fill:#e0e0e0"></path><path d="M259.54,175.64c-.65.16-1.24.45-1.9.59a8.54,8.54,0,0,1-1.82.21,7.17,7.17,0,0,1-3.5-.92,7.33,7.33,0,0,1-2.53-2.39,9.06,9.06,0,0,1-.86-1.63,8.7,8.7,0,0,1-.56-1.55c-.05-.23-.57-.5-.58-.13a7,7,0,0,0,.23,2.32A7.47,7.47,0,0,0,249,174a7.89,7.89,0,0,0,3,2.66,8.38,8.38,0,0,0,4,.89,7.27,7.27,0,0,0,2.12-.33,4.24,4.24,0,0,0,2-1.05C260.19,175.91,259.78,175.58,259.54,175.64Z" style="fill:#e0e0e0"></path><path d="M261.59,181.05l-.07,0-.07,0-.19-.18a1.9,1.9,0,0,1-.28-.29,1.81,1.81,0,0,1-.35-.95,2.23,2.23,0,0,1,.19-1c.14-.33.38-.61.53-.93s-.39-.68-.68-.5A3,3,0,0,0,259.6,180a2.44,2.44,0,0,0,.62,1.12,1.78,1.78,0,0,0,.72.49,1.38,1.38,0,0,0,.91.12.26.26,0,0,0,.14-.35Z" style="fill:#e0e0e0"></path><path d="M237.35,212.34a5.21,5.21,0,0,0-2.59-1.8,6,6,0,0,0-1.62-.25,3.35,3.35,0,0,0-1.77.31.33.33,0,0,0-.15.42c.06.14.3.38.47.32a4.65,4.65,0,0,1,1.06-.09,4.34,4.34,0,0,1,.72,0,4.68,4.68,0,0,1,1.2.34,3.44,3.44,0,0,1,1.81,1.57,3.55,3.55,0,0,1-.27,2.59,10.88,10.88,0,0,1-.56,1.2c-.11.22-.2.44-.32.65a3.56,3.56,0,0,0-.34.6c-.09.24.25.67.51.5a4.76,4.76,0,0,0,1.35-1.54,8.73,8.73,0,0,0,.72-1.55A3.51,3.51,0,0,0,237.35,212.34Z" style="fill:#e0e0e0"></path><path d="M252.43,221.94a7.29,7.29,0,0,0-.91-2.84,8.08,8.08,0,0,0-4.44-3.41,8.6,8.6,0,0,0-5.47.05,8.4,8.4,0,0,0-2.43,1.35,4,4,0,0,0-1.66,2.08.39.39,0,0,0,.57.38c.65-.45,1.15-1.08,1.8-1.54a7.77,7.77,0,0,1,2.2-1.08,7.25,7.25,0,0,1,4.69.18,6.35,6.35,0,0,1,4.32,5.5,8.68,8.68,0,0,0,.44,2.54c.12.24.55.41.68.1A6.75,6.75,0,0,0,252.43,221.94Z" style="fill:#e0e0e0"></path><path d="M262.39,212.86c.09,0,.08,0,0-.09a.62.62,0,0,0-.23-.14,1.86,1.86,0,0,0-.46-.13,5.42,5.42,0,0,0-1.06-.15,6.67,6.67,0,0,0-1.83.24,7.25,7.25,0,0,0-5,4.6,5.87,5.87,0,0,0-.35,1.8,7.1,7.1,0,0,0,.45,2.41c.07.22.44.34.4,0a8.38,8.38,0,0,1,.51-3.74,6.73,6.73,0,0,1,1.61-2.48,6,6,0,0,1,2.6-1.5,6.72,6.72,0,0,1,1.47-.23,7.51,7.51,0,0,1,1.16,0c.12,0,.24,0,.36,0s.24-.05.37-.06C262.67,213.37,262.56,213,262.39,212.86Z" style="fill:#e0e0e0"></path></g></g><g id="freepik--speech-bubble--inject-60"><g id="freepik--speech-bubble--inject-60"><g id="freepik--speech-bubble--inject-60"><path d="M274.41,122.28a25.66,25.66,0,0,1-6.94,17.6l-2.13,2A25.73,25.73,0,0,1,229,105.69l2-2.13a25.73,25.73,0,0,1,43.37,18.72Z" style="fill:#fff"></path><path d="M248.61,94.38A27.94,27.94,0,0,0,244,149.87l3.15,8.09a1.63,1.63,0,0,0,3,0l3.12-8.1a27.94,27.94,0,0,0-4.73-55.48Zm25.8,27.9a25.66,25.66,0,0,1-6.94,17.6l-2.13,2A25.73,25.73,0,0,1,229,105.69l2-2.13a25.73,25.73,0,0,1,43.37,18.72Z" style="fill:#455a64"></path><path d="M274.41,122.28a25.66,25.66,0,0,1-6.94,17.6l-2.13,2A25.73,25.73,0,0,1,229,105.69l2-2.13a25.73,25.73,0,0,1,43.37,18.72Z" style="fill:#fff"></path></g><path d="M247.79,113.11a.74.74,0,0,1,.55.23.73.73,0,0,1,.22.54v18.45a.73.73,0,0,1-.22.54.74.74,0,0,1-.55.23h-3.74a.7.7,0,0,1-.54-.23.74.74,0,0,1-.23-.54v-7h-6.34v7a.74.74,0,0,1-.23.54.7.7,0,0,1-.54.23h-3.74a.81.81,0,0,1-.55-.21.75.75,0,0,1-.22-.56V113.88a.73.73,0,0,1,.22-.54.74.74,0,0,1,.55-.23h3.74a.7.7,0,0,1,.54.23.74.74,0,0,1,.23.54v6.88h6.34v-6.88a.74.74,0,0,1,.23-.54.7.7,0,0,1,.54-.23Z" style="fill:#BA68C8"></path><path d="M257.36,115.91a.79.79,0,0,1-.77.77H253a.79.79,0,0,1-.77-.77V113a.79.79,0,0,1,.77-.77h3.6a.79.79,0,0,1,.77.77Zm0,16.42a.74.74,0,0,1-.23.54.7.7,0,0,1-.54.23H253a.7.7,0,0,1-.54-.23.74.74,0,0,1-.23-.54V119a.79.79,0,0,1,.77-.77h3.6a.79.79,0,0,1,.77.77Z" style="fill:#BA68C8"></path><path d="M265.9,126.19a.7.7,0,0,1-.23.54.74.74,0,0,1-.54.23h-3.6a.79.79,0,0,1-.77-.77V113.88a.74.74,0,0,1,.23-.54.7.7,0,0,1,.54-.23h3.6a.79.79,0,0,1,.77.77Zm0,6.14a.79.79,0,0,1-.77.77h-3.6a.7.7,0,0,1-.54-.23.74.74,0,0,1-.23-.54v-2.88a.78.78,0,0,1,.23-.55.74.74,0,0,1,.54-.23h3.6a.79.79,0,0,1,.77.78Z" style="fill:#BA68C8"></path></g></g></svg>
